<svg width="60" height="53" viewBox="0 0 60 53" fill="none" xmlns="http://www.w3.org/2000/svg">
<path d="M59.4687 47.1053L33.4026 1.96183C31.8917 -0.653942 28.1083 -0.653942 26.5974 1.96183L0.531313 47.1053C-0.979586 49.7211 0.912109 53 3.93391 53H56.0661C59.0879 53 60.9796 49.7211 59.4687 47.1053ZM30.0368 15.8635C31.7074 15.8635 33.0587 17.2512 33.0095 18.9213L32.5182 36.0651C32.4813 37.4159 31.3758 38.4843 30.0246 38.4843C28.6734 38.4843 27.5678 37.4036 27.531 36.0651L27.0519 18.9213C27.0151 17.2512 28.354 15.8635 30.0368 15.8635ZM30 46.872C28.2926 46.872 26.9045 45.4843 26.9045 43.7773C26.9045 42.0703 28.2926 40.6826 30 40.6826C31.7074 40.6826 33.0955 42.0703 33.0955 43.7773C33.0955 45.4843 31.7074 46.872 30 46.872Z" fill="#FFF064"/>
</svg>
