<svg width="11" height="13" viewBox="0 0 11 13" fill="none" xmlns="http://www.w3.org/2000/svg">
<path d="M10.6266 4.73233C10.567 4.76715 9.14615 5.50194 9.14615 7.13114C9.21312 8.98913 10.9391 9.64072 10.9687 9.64072C10.9391 9.67554 10.7082 10.5283 10.024 11.4223C9.48097 12.1924 8.87829 12.9688 7.96311 12.9688C7.09258 12.9688 6.78007 12.4555 5.77561 12.4555C4.6969 12.4555 4.39168 12.9688 3.56578 12.9688C2.6506 12.9688 2.00328 12.1508 1.43068 11.3879C0.686794 10.3895 0.0545139 8.82273 0.0321925 7.31834C0.0171497 6.52115 0.181164 5.73752 0.597508 5.07192C1.18515 4.14269 2.23426 3.51191 3.37993 3.49111C4.25775 3.46352 5.039 4.05271 5.57471 4.05271C6.08811 4.05271 7.04793 3.49111 8.13392 3.49111C8.60267 3.49156 9.85268 3.62314 10.6266 4.73233ZM5.50047 3.33194C5.34422 2.60393 5.77561 1.87593 6.17739 1.41154C6.69079 0.849936 7.50164 0.46875 8.20089 0.46875C8.24553 1.19676 7.96263 1.91074 7.457 2.43075C7.00329 2.99235 6.22204 3.41514 5.50047 3.33194Z" fill="white"/>
</svg>
