<svg width="26" height="16" viewBox="0 0 26 16" fill="none" xmlns="http://www.w3.org/2000/svg">
<path d="M10.4219 2.25105C10.7474 2.58579 10.7474 3.1285 10.4219 3.46323L6.01119 8L10.4219 12.5368C10.7474 12.8715 10.7474 13.4142 10.4219 13.7489C10.0965 14.0837 9.56886 14.0837 9.24343 13.7489L4.24343 8.60609C3.91799 8.27136 3.91799 7.72864 4.24343 7.39391L9.24343 2.25105C9.56886 1.91632 10.0965 1.91632 10.4219 2.25105Z" fill="#38455C"/>
<path d="M15.5781 13.7489C15.2526 13.4142 15.2526 12.8715 15.5781 12.5368L19.9888 8L15.5781 3.46323C15.2526 3.1285 15.2526 2.58579 15.5781 2.25105C15.9035 1.91632 16.4311 1.91632 16.7566 2.25105L21.7566 7.39391C22.082 7.72864 22.082 8.27136 21.7566 8.60609L16.7566 13.7489C16.4311 14.0837 15.9035 14.0837 15.5781 13.7489Z" fill="#38455C"/>
</svg>
