<svg width="14" height="2" viewBox="0 0 14 2" fill="none" xmlns="http://www.w3.org/2000/svg">
<path d="M13 1.7C13.3866 1.7 13.7 1.3866 13.7 1C13.7 0.613398 13.3866 0.299995 13 0.299995V1.7ZM0 1C0 1.7 1.65304e-05 1.7 4.95668e-05 1.7C8.26033e-05 1.7 0.000132146 1.7 0.000198171 1.7C0.000264195 1.7 0.000346702 1.7 0.000445666 1.7C0.00054463 1.7 0.000660052 1.7 0.000791907 1.7C0.000923763 1.7 0.00107205 1.7 0.00123675 1.7C0.00140145 1.7 0.00158256 1.7 0.00178005 1.7C0.00197754 1.7 0.00219142 1.7 0.00242166 1.7C0.00265189 1.7 0.00289849 1.7 0.00316143 1.7C0.00342437 1.7 0.00370364 1.7 0.00399922 1.7C0.00429481 1.7 0.00460671 1.7 0.00493489 1.7C0.00526308 1.7 0.00560755 1.7 0.00596829 1.7C0.00632903 1.7 0.00670603 1.7 0.00709927 1.7C0.00749251 1.7 0.00790199 1.7 0.00832769 1.7C0.00875339 1.7 0.0091953 1.7 0.0096534 1.7C0.0101115 1.7 0.0105858 1.7 0.0110763 1.7C0.0115667 1.7 0.0120734 1.7 0.0125961 1.7C0.0131189 1.7 0.0136578 1.7 0.0142129 1.7C0.0147679 1.7 0.015339 1.7 0.0159263 1.7C0.0165135 1.7 0.0171169 1.7 0.0177363 1.7C0.0183557 1.7 0.0189912 1.7 0.0196427 1.7C0.0202942 1.7 0.0209618 1.7 0.0216454 1.7C0.022329 1.7 0.0230286 1.7 0.0237442 1.7C0.0244599 1.7 0.0251915 1.7 0.0259391 1.7C0.0266866 1.7 0.0274502 1.7 0.0282297 1.7C0.0290092 1.7 0.0298047 1.7 0.0306161 1.7C0.0314274 1.7 0.0322548 1.7 0.033098 1.7C0.0339412 1.7 0.0348003 1.7 0.0356753 1.7C0.0365503 1.7 0.0374411 1.7 0.0383478 1.7C0.0392546 1.7 0.0401771 1.7 0.0411155 1.7C0.0420539 1.7 0.0430081 1.7 0.0439782 1.7C0.0449482 1.7 0.045934 1.7 0.0469356 1.7C0.0479373 1.7 0.0489546 1.7 0.0499878 1.7C0.0510209 1.7 0.0520698 1.7 0.0531345 1.7C0.0541991 1.7 0.0552795 1.7 0.0563755 1.7C0.0574716 1.7 0.0585834 1.7 0.0597109 1.7C0.0608383 1.7 0.0619815 1.7 0.0631403 1.7C0.0642991 1.7 0.0654735 1.7 0.0666636 1.7C0.0678537 1.7 0.0690595 1.7 0.0702808 1.7C0.0715021 1.7 0.0727391 1.7 0.0739916 1.7C0.0752442 1.7 0.0765123 1.7 0.077796 1.7C0.0790797 1.7 0.0803789 1.7 0.0816937 1.7C0.0830085 1.7 0.0843388 1.7 0.0856846 1.7C0.0870305 1.7 0.0883918 1.7 0.0897687 1.7C0.0911455 1.7 0.0925378 1.7 0.0939456 1.7C0.0953534 1.7 0.0967767 1.7 0.0982154 1.7C0.0996541 1.7 0.101108 1.7 0.102578 1.7C0.104047 1.7 0.105532 1.7 0.107033 1.7C0.108533 1.7 0.110049 1.7 0.11158 1.7C0.113111 1.7 0.114658 1.7 0.116219 1.7C0.117781 1.7 0.119358 1.7 0.120951 1.7C0.122543 1.7 0.124151 1.7 0.125774 1.7C0.127397 1.7 0.129036 1.7 0.130689 1.7C0.132343 1.7 0.134012 1.7 0.135696 1.7C0.137381 1.7 0.13908 1.7 0.140795 1.7C0.142509 1.7 0.144239 1.7 0.145984 1.7C0.147729 1.7 0.14949 1.7 0.151265 1.7C0.153041 1.7 0.154831 1.7 0.156637 1.7C0.158443 1.7 0.160264 1.7 0.1621 1.7C0.163936 1.7 0.165787 1.7 0.167653 1.7C0.16952 1.7 0.171401 1.7 0.173298 1.7C0.175194 1.7 0.177106 1.7 0.179032 1.7C0.180959 1.7 0.1829 1.7 0.184857 1.7C0.186814 1.7 0.188785 1.7 0.190772 1.7C0.192759 1.7 0.194761 1.7 0.196777 1.7C0.198794 1.7 0.200826 1.7 0.202872 1.7C0.204919 1.7 0.206981 1.7 0.209057 1.7C0.211134 1.7 0.213225 1.7 0.215331 1.7C0.217438 1.7 0.219559 1.7 0.221695 1.7C0.223831 1.7 0.225982 1.7 0.228148 1.7C0.230314 1.7 0.232495 1.7 0.234691 1.7C0.236886 1.7 0.239097 1.7 0.241322 1.7C0.243547 1.7 0.245787 1.7 0.248042 1.7C0.250297 1.7 0.252567 1.7 0.254851 1.7C0.257135 1.7 0.259435 1.7 0.261748 1.7C0.264062 1.7 0.266391 1.7 0.268734 1.7C0.271078 1.7 0.273436 1.7 0.275808 1.7C0.278181 1.7 0.280569 1.7 0.282971 1.7C0.285373 1.7 0.28779 1.7 0.290221 1.7C0.292652 1.7 0.295099 1.7 0.297559 1.7C0.30002 1.7 0.302495 1.7 0.304985 1.7C0.307475 1.7 0.309979 1.7 0.312498 1.7C0.315017 1.7 0.317551 1.7 0.320099 1.7C0.322647 1.7 0.32521 1.7 0.327787 1.7C0.330365 1.7 0.332956 1.7 0.335563 1.7C0.338169 1.7 0.34079 1.7 0.343425 1.7C0.34606 1.7 0.34871 1.7 0.351374 1.7C0.354038 1.7 0.356716 1.7 0.359409 1.7C0.362103 1.7 0.36481 1.7 0.367532 1.7C0.370254 1.7 0.37299 1.7 0.37574 1.7C0.378491 1.7 0.381256 1.7 0.384035 1.7C0.386815 1.7 0.389608 1.7 0.392416 1.7C0.395224 1.7 0.398047 1.7 0.400883 1.7C0.40372 1.7 0.406571 1.7 0.409436 1.7C0.412301 1.7 0.415181 1.7 0.418075 1.7C0.420968 1.7 0.423876 1.7 0.426799 1.7C0.429721 1.7 0.432657 1.7 0.435608 1.7C0.438559 1.7 0.441523 1.7 0.444502 1.7C0.447482 1.7 0.450475 1.7 0.453482 1.7C0.45649 1.7 0.459511 1.7 0.462547 1.7C0.465582 1.7 0.468632 1.7 0.471696 1.7C0.47476 1.7 0.477838 1.7 0.48093 1.7C0.484022 1.7 0.487129 1.7 0.490249 1.7C0.493369 1.7 0.496503 1.7 0.499652 1.7C0.5028 1.7 0.505963 1.7 0.509139 1.7C0.512315 1.7 0.515506 1.7 0.51871 1.7C0.521915 1.7 0.525133 1.7 0.528365 1.7C0.531598 1.7 0.534844 1.7 0.538104 1.7C0.541365 1.7 0.544639 1.7 0.547927 1.7C0.551215 1.7 0.554517 1.7 0.557833 1.7C0.561149 1.7 0.564479 1.7 0.567822 1.7C0.571166 1.7 0.574524 1.7 0.577895 1.7C0.581267 1.7 0.584652 1.7 0.588051 1.7C0.59145 1.7 0.594863 1.7 0.598289 1.7C0.601716 1.7 0.605157 1.7 0.608611 1.7C0.612065 1.7 0.615533 1.7 0.619015 1.7C0.622496 1.7 0.625992 1.7 0.629501 1.7C0.63301 1.7 0.636533 1.7 0.64007 1.7C0.643607 1.7 0.647157 1.7 0.650721 1.7C0.654285 1.7 0.657863 1.7 0.661454 1.7C0.665045 1.7 0.66865 1.7 0.672269 1.7C0.675887 1.7 0.67952 1.7 0.683165 1.7C0.686811 1.7 0.690471 1.7 0.694144 1.7C0.697817 1.7 0.701503 1.7 0.705203 1.7C0.708904 1.7 0.712617 1.7 0.716344 1.7C0.720072 1.7 0.723812 1.7 0.727567 1.7C0.731321 1.7 0.735089 1.7 0.73887 1.7C0.742651 1.7 0.746446 1.7 0.750254 1.7C0.754062 1.7 0.757884 1.7 0.761719 1.7C0.765554 1.7 0.769402 1.7 0.773264 1.7C0.777126 1.7 0.781001 1.7 0.78489 1.7C0.788779 1.7 0.792681 1.7 0.796596 1.7C0.800511 1.7 0.80444 1.7 0.808382 1.7C0.812324 1.7 0.81628 1.7 0.820249 1.7C0.824217 1.7 0.828199 1.7 0.832195 1.7C0.83619 1.7 0.840199 1.7 0.844221 1.7C0.848243 1.7 0.852278 1.7 0.856326 1.7C0.860374 1.7 0.864436 1.7 0.868511 1.7C0.872586 1.7 0.876674 1.7 0.880775 1.7C0.884876 1.7 0.888991 1.7 0.893118 1.7C0.897246 1.7 0.901387 1.7 0.905541 1.7C0.909694 1.7 0.913861 1.7 0.918042 1.7C0.922222 1.7 0.926415 1.7 0.930621 1.7C0.934828 1.7 0.939047 1.7 0.94328 1.7C0.947512 1.7 0.951758 1.7 0.956016 1.7C0.960275 1.7 0.964547 1.7 0.968831 1.7C0.973116 1.7 0.977414 1.7 0.981725 1.7C0.986035 1.7 0.990359 1.7 0.994696 1.7C0.999032 1.7 1.00338 1.7 1.00774 1.7C1.01211 1.7 1.01648 1.7 1.02087 1.7C1.02526 1.7 1.02966 1.7 1.03408 1.7C1.03849 1.7 1.04292 1.7 1.04736 1.7C1.0518 1.7 1.05625 1.7 1.06072 1.7C1.06518 1.7 1.06966 1.7 1.07415 1.7C1.07864 1.7 1.08315 1.7 1.08766 1.7C1.09218 1.7 1.09671 1.7 1.10125 1.7C1.1058 1.7 1.11035 1.7 1.11492 1.7C1.11949 1.7 1.12407 1.7 1.12866 1.7C1.13326 1.7 1.13786 1.7 1.14248 1.7C1.1471 1.7 1.15173 1.7 1.15638 1.7C1.16102 1.7 1.16568 1.7 1.17035 1.7C1.17502 1.7 1.1797 1.7 1.1844 1.7C1.18909 1.7 1.1938 1.7 1.19852 1.7C1.20324 1.7 1.20797 1.7 1.21272 1.7C1.21746 1.7 1.22222 1.7 1.22699 1.7C1.23176 1.7 1.23655 1.7 1.24134 1.7C1.24614 1.7 1.25095 1.7 1.25577 1.7C1.26059 1.7 1.26542 1.7 1.27027 1.7C1.27511 1.7 1.27997 1.7 1.28484 1.7C1.28971 1.7 1.2946 1.7 1.29949 1.7C1.30439 1.7 1.3093 1.7 1.31422 1.7C1.31914 1.7 1.32407 1.7 1.32902 1.7C1.33396 1.7 1.33892 1.7 1.34389 1.7C1.34886 1.7 1.35384 1.7 1.35884 1.7C1.36383 1.7 1.36884 1.7 1.37386 1.7C1.37888 1.7 1.38391 1.7 1.38895 1.7C1.394 1.7 1.39905 1.7 1.40412 1.7C1.40919 1.7 1.41427 1.7 1.41936 1.7C1.42446 1.7 1.42956 1.7 1.43468 1.7C1.4398 1.7 1.44493 1.7 1.45007 1.7C1.45521 1.7 1.46037 1.7 1.46553 1.7C1.4707 1.7 1.47588 1.7 1.48107 1.7C1.48626 1.7 1.49146 1.7 1.49668 1.7C1.50189 1.7 1.50712 1.7 1.51236 1.7C1.5176 1.7 1.52285 1.7 1.52811 1.7C1.53337 1.7 1.53865 1.7 1.54394 1.7C1.54923 1.7 1.55452 1.7 1.55984 1.7C1.56515 1.7 1.57047 1.7 1.57581 1.7C1.58114 1.7 1.58649 1.7 1.59185 1.7C1.59721 1.7 1.60258 1.7 1.60796 1.7C1.61335 1.7 1.61874 1.7 1.62415 1.7C1.62956 1.7 1.63498 1.7 1.64041 1.7C1.64584 1.7 1.65128 1.7 1.65674 1.7C1.66219 1.7 1.66766 1.7 1.67314 1.7C1.67862 1.7 1.68411 1.7 1.68961 1.7C1.69511 1.7 1.70063 1.7 1.70615 1.7C1.71168 1.7 1.71722 1.7 1.72277 1.7C1.72832 1.7 1.73388 1.7 1.73945 1.7C1.74502 1.7 1.75061 1.7 1.75621 1.7C1.7618 1.7 1.76741 1.7 1.77303 1.7C1.77865 1.7 1.78428 1.7 1.78993 1.7C1.79557 1.7 1.80123 1.7 1.80689 1.7C1.81256 1.7 1.81824 1.7 1.82393 1.7C1.82962 1.7 1.83532 1.7 1.84103 1.7C1.84675 1.7 1.85247 1.7 1.85821 1.7C1.86395 1.7 1.86969 1.7 1.87545 1.7C1.88121 1.7 1.88699 1.7 1.89277 1.7C1.89855 1.7 1.90435 1.7 1.91015 1.7C1.91596 1.7 1.92178 1.7 1.9276 1.7C1.93343 1.7 1.93927 1.7 1.94513 1.7C1.95098 1.7 1.95684 1.7 1.96272 1.7C1.96859 1.7 1.97448 1.7 1.98038 1.7C1.98627 1.7 1.99218 1.7 1.9981 1.7C2.00402 1.7 2.00996 1.7 2.0159 1.7C2.02184 1.7 2.0278 1.7 2.03376 1.7C2.03973 1.7 2.04571 1.7 2.0517 1.7C2.05768 1.7 2.06368 1.7 2.0697 1.7C2.07571 1.7 2.08173 1.7 2.08776 1.7C2.0938 1.7 2.09984 1.7 2.1059 1.7C2.11196 1.7 2.11802 1.7 2.1241 1.7C2.13018 1.7 2.13627 1.7 2.14237 1.7C2.14847 1.7 2.15459 1.7 2.16071 1.7C2.16683 1.7 2.17297 1.7 2.17912 1.7C2.18526 1.7 2.19142 1.7 2.19759 1.7C2.20376 1.7 2.20993 1.7 2.21613 1.7C2.22232 1.7 2.22852 1.7 2.23473 1.7C2.24094 1.7 2.24717 1.7 2.2534 1.7C2.25964 1.7 2.26588 1.7 2.27214 1.7C2.2784 1.7 2.28467 1.7 2.29094 1.7C2.29722 1.7 2.30351 1.7 2.30981 1.7C2.31612 1.7 2.32243 1.7 2.32875 1.7C2.33507 1.7 2.34141 1.7 2.34775 1.7C2.3541 1.7 2.36045 1.7 2.36682 1.7C2.37319 1.7 2.37956 1.7 2.38595 1.7C2.39234 1.7 2.39874 1.7 2.40515 1.7C2.41156 1.7 2.41798 1.7 2.42442 1.7C2.43085 1.7 2.43729 1.7 2.44374 1.7C2.4502 1.7 2.45666 1.7 2.46314 1.7C2.46961 1.7 2.4761 1.7 2.4826 1.7C2.48909 1.7 2.4956 1.7 2.50212 1.7C2.50864 1.7 2.51517 1.7 2.52171 1.7C2.52825 1.7 2.5348 1.7 2.54136 1.7C2.54792 1.7 2.55449 1.7 2.56107 1.7C2.56766 1.7 2.57425 1.7 2.58085 1.7C2.58746 1.7 2.59407 1.7 2.6007 1.7C2.60732 1.7 2.61396 1.7 2.6206 1.7C2.62725 1.7 2.63391 1.7 2.64057 1.7C2.64724 1.7 2.65392 1.7 2.66061 1.7C2.6673 1.7 2.674 1.7 2.68071 1.7C2.68742 1.7 2.69414 1.7 2.70087 1.7C2.7076 1.7 2.71434 1.7 2.72109 1.7C2.72784 1.7 2.73461 1.7 2.74138 1.7C2.74815 1.7 2.75493 1.7 2.76173 1.7C2.76852 1.7 2.77533 1.7 2.78214 1.7C2.78895 1.7 2.79578 1.7 2.80261 1.7C2.80945 1.7 2.8163 1.7 2.82315 1.7C2.83001 1.7 2.83687 1.7 2.84375 1.7C2.85063 1.7 2.85751 1.7 2.86441 1.7C2.87131 1.7 2.87822 1.7 2.88513 1.7C2.89205 1.7 2.89898 1.7 2.90592 1.7C2.91286 1.7 2.9198 1.7 2.92676 1.7C2.93372 1.7 2.94069 1.7 2.94767 1.7C2.95465 1.7 2.96164 1.7 2.96864 1.7C2.97564 1.7 2.98265 1.7 2.98967 1.7C2.99669 1.7 3.00372 1.7 3.01076 1.7C3.0178 1.7 3.02485 1.7 3.03191 1.7C3.03897 1.7 3.04604 1.7 3.05312 1.7C3.0602 1.7 3.0673 1.7 3.0744 1.7C3.0815 1.7 3.08861 1.7 3.09573 1.7C3.10285 1.7 3.10998 1.7 3.11712 1.7C3.12426 1.7 3.13142 1.7 3.13858 1.7C3.14574 1.7 3.15291 1.7 3.16009 1.7C3.16727 1.7 3.17446 1.7 3.18166 1.7C3.18886 1.7 3.19608 1.7 3.2033 1.7C3.21052 1.7 3.21775 1.7 3.22499 1.7C3.23223 1.7 3.23948 1.7 3.24674 1.7C3.254 1.7 3.26127 1.7 3.26855 1.7C3.27583 1.7 3.28312 1.7 3.29042 1.7C3.29772 1.7 3.30503 1.7 3.31235 1.7C3.31967 1.7 3.327 1.7 3.33434 1.7C3.34168 1.7 3.34903 1.7 3.35639 1.7C3.36374 1.7 3.37111 1.7 3.37849 1.7C3.38587 1.7 3.39326 1.7 3.40065 1.7C3.40805 1.7 3.41546 1.7 3.42288 1.7C3.43029 1.7 3.43772 1.7 3.44515 1.7C3.45259 1.7 3.46004 1.7 3.46749 1.7C3.47495 1.7 3.48241 1.7 3.48989 1.7C3.49736 1.7 3.50485 1.7 3.51234 1.7C3.51983 1.7 3.52734 1.7 3.53485 1.7C3.54236 1.7 3.54989 1.7 3.55742 1.7C3.56495 1.7 3.57249 1.7 3.58004 1.7C3.58759 1.7 3.59516 1.7 3.60273 1.7C3.6103 1.7 3.61788 1.7 3.62546 1.7C3.63305 1.7 3.64065 1.7 3.64826 1.7C3.65587 1.7 3.66349 1.7 3.67111 1.7C3.67874 1.7 3.68638 1.7 3.69402 1.7C3.70167 1.7 3.70932 1.7 3.71699 1.7C3.72465 1.7 3.73232 1.7 3.74001 1.7C3.74769 1.7 3.75538 1.7 3.76309 1.7C3.77079 1.7 3.7785 1.7 3.78622 1.7C3.79394 1.7 3.80167 1.7 3.80941 1.7C3.81715 1.7 3.82489 1.7 3.83265 1.7C3.84041 1.7 3.84818 1.7 3.85595 1.7C3.86373 1.7 3.87151 1.7 3.87931 1.7C3.8871 1.7 3.8949 1.7 3.90272 1.7C3.91053 1.7 3.91835 1.7 3.92618 1.7C3.93401 1.7 3.94185 1.7 3.9497 1.7C3.95755 1.7 3.96541 1.7 3.97328 1.7C3.98115 1.7 3.98902 1.7 3.99691 1.7C4.00479 1.7 4.01269 1.7 4.02059 1.7C4.0285 1.7 4.03641 1.7 4.04433 1.7C4.05225 1.7 4.06018 1.7 4.06812 1.7C4.07606 1.7 4.08401 1.7 4.09197 1.7C4.09993 1.7 4.10789 1.7 4.11587 1.7C4.12385 1.7 4.13183 1.7 4.13982 1.7C4.14782 1.7 4.15582 1.7 4.16383 1.7C4.17184 1.7 4.17986 1.7 4.18789 1.7C4.19592 1.7 4.20396 1.7 4.21201 1.7C4.22005 1.7 4.22811 1.7 4.23617 1.7C4.24424 1.7 4.25231 1.7 4.26039 1.7C4.26848 1.7 4.27657 1.7 4.28467 1.7C4.29277 1.7 4.30088 1.7 4.30899 1.7C4.31711 1.7 4.32524 1.7 4.33337 1.7C4.34151 1.7 4.34965 1.7 4.3578 1.7C4.36596 1.7 4.37412 1.7 4.38229 1.7C4.39046 1.7 4.39863 1.7 4.40682 1.7C4.41501 1.7 4.4232 1.7 4.43141 1.7C4.43961 1.7 4.44783 1.7 4.45605 1.7C4.46427 1.7 4.4725 1.7 4.48074 1.7C4.48898 1.7 4.49722 1.7 4.50548 1.7C4.51374 1.7 4.522 1.7 4.53027 1.7C4.53855 1.7 4.54683 1.7 4.55512 1.7C4.56341 1.7 4.57171 1.7 4.58002 1.7C4.58832 1.7 4.59664 1.7 4.60496 1.7C4.61329 1.7 4.62162 1.7 4.62996 1.7C4.6383 1.7 4.64665 1.7 4.65501 1.7C4.66337 1.7 4.67173 1.7 4.68011 1.7C4.68848 1.7 4.69686 1.7 4.70526 1.7C4.71365 1.7 4.72205 1.7 4.73046 1.7C4.73886 1.7 4.74728 1.7 4.75571 1.7C4.76413 1.7 4.77256 1.7 4.781 1.7C4.78945 1.7 4.7979 1.7 4.80635 1.7C4.81481 1.7 4.82328 1.7 4.83175 1.7C4.84023 1.7 4.84871 1.7 4.8572 1.7C4.86569 1.7 4.87419 1.7 4.8827 1.7C4.89121 1.7 4.89972 1.7 4.90825 1.7C4.91677 1.7 4.9253 1.7 4.93384 1.7C4.94238 1.7 4.95093 1.7 4.95949 1.7C4.96804 1.7 4.97661 1.7 4.98518 1.7C4.99375 1.7 5.00233 1.7 5.01092 1.7C5.01951 1.7 5.02811 1.7 5.03671 1.7C5.04532 1.7 5.05393 1.7 5.06255 1.7C5.07117 1.7 5.0798 1.7 5.08844 1.7C5.09708 1.7 5.10572 1.7 5.11438 1.7C5.12303 1.7 5.13169 1.7 5.14036 1.7C5.14903 1.7 5.1577 1.7 5.16639 1.7C5.17507 1.7 5.18377 1.7 5.19247 1.7C5.20117 1.7 5.20988 1.7 5.21859 1.7C5.22731 1.7 5.23603 1.7 5.24477 1.7C5.2535 1.7 5.26224 1.7 5.27099 1.7C5.27974 1.7 5.28849 1.7 5.29726 1.7C5.30602 1.7 5.31479 1.7 5.32357 1.7C5.33235 1.7 5.34114 1.7 5.34993 1.7C5.35873 1.7 5.36753 1.7 5.37634 1.7C5.38515 1.7 5.39397 1.7 5.40279 1.7C5.41162 1.7 5.42045 1.7 5.42929 1.7C5.43813 1.7 5.44698 1.7 5.45584 1.7C5.4647 1.7 5.47356 1.7 5.48243 1.7C5.4913 1.7 5.50018 1.7 5.50907 1.7C5.51796 1.7 5.52685 1.7 5.53576 1.7C5.54466 1.7 5.55357 1.7 5.56249 1.7C5.5714 1.7 5.58033 1.7 5.58926 1.7C5.59819 1.7 5.60713 1.7 5.61608 1.7C5.62503 1.7 5.63398 1.7 5.64295 1.7C5.65191 1.7 5.66088 1.7 5.66986 1.7C5.67883 1.7 5.68782 1.7 5.69681 1.7C5.70581 1.7 5.71481 1.7 5.72381 1.7C5.73282 1.7 5.74184 1.7 5.75086 1.7C5.75988 1.7 5.76891 1.7 5.77795 1.7C5.78698 1.7 5.79603 1.7 5.80508 1.7C5.81413 1.7 5.82319 1.7 5.83226 1.7C5.84132 1.7 5.8504 1.7 5.85948 1.7C5.86856 1.7 5.87765 1.7 5.88674 1.7C5.89584 1.7 5.90494 1.7 5.91405 1.7C5.92316 1.7 5.93228 1.7 5.94141 1.7C5.95053 1.7 5.95966 1.7 5.9688 1.7C5.97794 1.7 5.98709 1.7 5.99624 1.7C6.00539 1.7 6.01456 1.7 6.02372 1.7C6.03289 1.7 6.04207 1.7 6.05125 1.7C6.06043 1.7 6.06962 1.7 6.07882 1.7C6.08801 1.7 6.09722 1.7 6.10643 1.7C6.11564 1.7 6.12486 1.7 6.13408 1.7C6.14331 1.7 6.15254 1.7 6.16178 1.7C6.17102 1.7 6.18026 1.7 6.18951 1.7C6.19877 1.7 6.20803 1.7 6.21729 1.7C6.22656 1.7 6.23584 1.7 6.24512 1.7C6.2544 1.7 6.26368 1.7 6.27298 1.7C6.28227 1.7 6.29158 1.7 6.30089 1.7C6.31019 1.7 6.31951 1.7 6.32883 1.7C6.33815 1.7 6.34748 1.7 6.35682 1.7C6.36616 1.7 6.3755 1.7 6.38485 1.7C6.3942 1.7 6.40356 1.7 6.41292 1.7C6.42228 1.7 6.43165 1.7 6.44103 1.7C6.45041 1.7 6.45979 1.7 6.46918 1.7C6.47857 1.7 6.48797 1.7 6.49738 1.7C6.50678 1.7 6.51619 1.7 6.52561 1.7C6.53503 1.7 6.54445 1.7 6.55388 1.7C6.56331 1.7 6.57275 1.7 6.5822 1.7C6.59164 1.7 6.60109 1.7 6.61055 1.7C6.62001 1.7 6.62947 1.7 6.63894 1.7C6.64842 1.7 6.65789 1.7 6.66738 1.7C6.67686 1.7 6.68635 1.7 6.69585 1.7C6.70535 1.7 6.71485 1.7 6.72436 1.7C6.73387 1.7 6.74339 1.7 6.75292 1.7C6.76244 1.7 6.77197 1.7 6.78151 1.7C6.79104 1.7 6.80059 1.7 6.81014 1.7C6.81969 1.7 6.82924 1.7 6.83881 1.7C6.84837 1.7 6.85794 1.7 6.86751 1.7C6.87709 1.7 6.88667 1.7 6.89626 1.7C6.90585 1.7 6.91544 1.7 6.92505 1.7C6.93465 1.7 6.94425 1.7 6.95387 1.7C6.96348 1.7 6.9731 1.7 6.98273 1.7C6.99236 1.7 7.00199 1.7 7.01163 1.7C7.02127 1.7 7.03091 1.7 7.04057 1.7C7.05022 1.7 7.05988 1.7 7.06954 1.7C7.07921 1.7 7.08888 1.7 7.09855 1.7C7.10823 1.7 7.11791 1.7 7.1276 1.7C7.13729 1.7 7.14699 1.7 7.15669 1.7C7.16639 1.7 7.1761 1.7 7.18581 1.7C7.19553 1.7 7.20525 1.7 7.21498 1.7C7.2247 1.7 7.23444 1.7 7.24417 1.7C7.25391 1.7 7.26366 1.7 7.27341 1.7C7.28316 1.7 7.29292 1.7 7.30268 1.7C7.31244 1.7 7.32221 1.7 7.33199 1.7C7.34176 1.7 7.35155 1.7 7.36133 1.7C7.37112 1.7 7.38091 1.7 7.39071 1.7C7.40051 1.7 7.41032 1.7 7.42013 1.7C7.42994 1.7 7.43976 1.7 7.44958 1.7C7.45941 1.7 7.46923 1.7 7.47907 1.7C7.4889 1.7 7.49875 1.7 7.50859 1.7C7.51844 1.7 7.52829 1.7 7.53815 1.7C7.54801 1.7 7.55788 1.7 7.56775 1.7C7.57762 1.7 7.58749 1.7 7.59737 1.7C7.60726 1.7 7.61715 1.7 7.62704 1.7C7.63693 1.7 7.64683 1.7 7.65674 1.7C7.66664 1.7 7.67655 1.7 7.68647 1.7C7.69639 1.7 7.70631 1.7 7.71624 1.7C7.72617 1.7 7.7361 1.7 7.74604 1.7C7.75598 1.7 7.76593 1.7 7.77588 1.7C7.78583 1.7 7.79579 1.7 7.80575 1.7C7.81571 1.7 7.82568 1.7 7.83565 1.7C7.84563 1.7 7.85561 1.7 7.86559 1.7C7.87558 1.7 7.88557 1.7 7.89557 1.7C7.90556 1.7 7.91556 1.7 7.92557 1.7C7.93558 1.7 7.94559 1.7 7.95561 1.7C7.96563 1.7 7.97565 1.7 7.98568 1.7C7.99571 1.7 8.00575 1.7 8.01579 1.7C8.02583 1.7 8.03587 1.7 8.04593 1.7C8.05598 1.7 8.06604 1.7 8.0761 1.7C8.08616 1.7 8.09623 1.7 8.1063 1.7C8.11637 1.7 8.12645 1.7 8.13654 1.7C8.14662 1.7 8.15671 1.7 8.16681 1.7C8.1769 1.7 8.187 1.7 8.19711 1.7C8.20721 1.7 8.21732 1.7 8.22744 1.7C8.23756 1.7 8.24768 1.7 8.2578 1.7C8.26793 1.7 8.27806 1.7 8.2882 1.7C8.29834 1.7 8.30848 1.7 8.31863 1.7C8.32878 1.7 8.33893 1.7 8.34909 1.7C8.35925 1.7 8.36941 1.7 8.37958 1.7C8.38975 1.7 8.39992 1.7 8.4101 1.7C8.42028 1.7 8.43047 1.7 8.44066 1.7C8.45085 1.7 8.46104 1.7 8.47124 1.7C8.48144 1.7 8.49164 1.7 8.50185 1.7C8.51206 1.7 8.52228 1.7 8.5325 1.7C8.54272 1.7 8.55295 1.7 8.56318 1.7C8.57341 1.7 8.58364 1.7 8.59388 1.7C8.60412 1.7 8.61437 1.7 8.62462 1.7C8.63487 1.7 8.64513 1.7 8.65539 1.7C8.66565 1.7 8.67591 1.7 8.68618 1.7C8.69645 1.7 8.70673 1.7 8.71701 1.7C8.72729 1.7 8.73757 1.7 8.74786 1.7C8.75815 1.7 8.76845 1.7 8.77875 1.7C8.78905 1.7 8.79935 1.7 8.80966 1.7C8.81997 1.7 8.83029 1.7 8.84061 1.7C8.85093 1.7 8.86125 1.7 8.87158 1.7C8.88191 1.7 8.89224 1.7 8.90258 1.7C8.91292 1.7 8.92326 1.7 8.93361 1.7C8.94396 1.7 8.95431 1.7 8.96467 1.7C8.97503 1.7 8.98539 1.7 8.99576 1.7C9.00612 1.7 9.0165 1.7 9.02687 1.7C9.03725 1.7 9.04763 1.7 9.05802 1.7C9.0684 1.7 9.07879 1.7 9.08919 1.7C9.09958 1.7 9.10998 1.7 9.12039 1.7C9.13079 1.7 9.1412 1.7 9.15161 1.7C9.16203 1.7 9.17245 1.7 9.18287 1.7C9.19329 1.7 9.20372 1.7 9.21415 1.7C9.22458 1.7 9.23502 1.7 9.24546 1.7C9.2559 1.7 9.26635 1.7 9.2768 1.7C9.28725 1.7 9.2977 1.7 9.30816 1.7C9.31862 1.7 9.32908 1.7 9.33955 1.7C9.35002 1.7 9.36049 1.7 9.37097 1.7C9.38144 1.7 9.39193 1.7 9.40241 1.7C9.4129 1.7 9.42339 1.7 9.43388 1.7C9.44438 1.7 9.45487 1.7 9.46538 1.7C9.47588 1.7 9.48639 1.7 9.4969 1.7C9.50741 1.7 9.51793 1.7 9.52845 1.7C9.53897 1.7 9.54949 1.7 9.56002 1.7C9.57055 1.7 9.58108 1.7 9.59162 1.7C9.60216 1.7 9.6127 1.7 9.62325 1.7C9.63379 1.7 9.64434 1.7 9.6549 1.7C9.66545 1.7 9.67601 1.7 9.68657 1.7C9.69714 1.7 9.7077 1.7 9.71827 1.7C9.72885 1.7 9.73942 1.7 9.75 1.7V0.299995C9.73942 0.299995 9.72885 0.299995 9.71827 0.299995C9.7077 0.299995 9.69714 0.299995 9.68657 0.299995C9.67601 0.299995 9.66545 0.299995 9.6549 0.299995C9.64434 0.299995 9.63379 0.299995 9.62325 0.299995C9.6127 0.299995 9.60216 0.299995 9.59162 0.299995C9.58108 0.299995 9.57055 0.299995 9.56002 0.299995C9.54949 0.299995 9.53897 0.299995 9.52845 0.299995C9.51793 0.299995 9.50741 0.299995 9.4969 0.299995C9.48639 0.299995 9.47588 0.299995 9.46538 0.299995C9.45487 0.299995 9.44438 0.299995 9.43388 0.299995C9.42339 0.299995 9.4129 0.299995 9.40241 0.299995C9.39193 0.299995 9.38144 0.299995 9.37097 0.299995C9.36049 0.299995 9.35002 0.299995 9.33955 0.299995C9.32908 0.299995 9.31862 0.299995 9.30816 0.299995C9.2977 0.299995 9.28725 0.299995 9.2768 0.299995C9.26635 0.299995 9.2559 0.299995 9.24546 0.299995C9.23502 0.299995 9.22458 0.299995 9.21415 0.299995C9.20372 0.299995 9.19329 0.299995 9.18287 0.299995C9.17245 0.299995 9.16203 0.299995 9.15161 0.299995C9.1412 0.299995 9.13079 0.299995 9.12039 0.299995C9.10998 0.299995 9.09958 0.299995 9.08919 0.299995C9.07879 0.299995 9.0684 0.299995 9.05802 0.299995C9.04763 0.299995 9.03725 0.299995 9.02687 0.299995C9.0165 0.299995 9.00612 0.299995 8.99576 0.299995C8.98539 0.299995 8.97503 0.299995 8.96467 0.299995C8.95431 0.299995 8.94396 0.299995 8.93361 0.299995C8.92326 0.299995 8.91292 0.299995 8.90258 0.299995C8.89224 0.299995 8.88191 0.299995 8.87158 0.299995C8.86125 0.299995 8.85093 0.299995 8.84061 0.299995C8.83029 0.299995 8.81997 0.299995 8.80966 0.299995C8.79935 0.299995 8.78905 0.299995 8.77875 0.299995C8.76845 0.299995 8.75815 0.299995 8.74786 0.299995C8.73757 0.299995 8.72729 0.299995 8.71701 0.299995C8.70673 0.299995 8.69645 0.299995 8.68618 0.299995C8.67591 0.299995 8.66565 0.299995 8.65539 0.299995C8.64513 0.299995 8.63487 0.299995 8.62462 0.299995C8.61437 0.299995 8.60412 0.299995 8.59388 0.299995C8.58364 0.299995 8.57341 0.299995 8.56318 0.299995C8.55295 0.299995 8.54272 0.299995 8.5325 0.299995C8.52228 0.299995 8.51206 0.299995 8.50185 0.299995C8.49164 0.299995 8.48144 0.299995 8.47124 0.299995C8.46104 0.299995 8.45085 0.299995 8.44066 0.299995C8.43047 0.299995 8.42028 0.299995 8.4101 0.299995C8.39992 0.299995 8.38975 0.299995 8.37958 0.299995C8.36941 0.299995 8.35925 0.299995 8.34909 0.299995C8.33893 0.299995 8.32878 0.299995 8.31863 0.299995C8.30848 0.299995 8.29834 0.299995 8.2882 0.299995C8.27806 0.299995 8.26793 0.299995 8.2578 0.299995C8.24768 0.299995 8.23756 0.299995 8.22744 0.299995C8.21732 0.299995 8.20721 0.299995 8.19711 0.299995C8.187 0.299995 8.1769 0.299995 8.16681 0.299995C8.15671 0.299995 8.14662 0.299995 8.13654 0.299995C8.12645 0.299995 8.11637 0.299995 8.1063 0.299995C8.09623 0.299995 8.08616 0.299995 8.0761 0.299995C8.06604 0.299995 8.05598 0.299995 8.04593 0.299995C8.03587 0.299995 8.02583 0.299995 8.01579 0.299995C8.00575 0.299995 7.99571 0.299995 7.98568 0.299995C7.97565 0.299995 7.96563 0.299995 7.95561 0.299995C7.94559 0.299995 7.93558 0.299995 7.92557 0.299995C7.91556 0.299995 7.90556 0.299995 7.89557 0.299995C7.88557 0.299995 7.87558 0.299995 7.86559 0.299995C7.85561 0.299995 7.84563 0.299995 7.83565 0.299995C7.82568 0.299995 7.81571 0.299995 7.80575 0.299995C7.79579 0.299995 7.78583 0.299995 7.77588 0.299995C7.76593 0.299995 7.75598 0.299995 7.74604 0.299995C7.7361 0.299995 7.72617 0.299995 7.71624 0.299995C7.70631 0.299995 7.69639 0.299995 7.68647 0.299995C7.67655 0.299995 7.66664 0.299995 7.65674 0.299995C7.64683 0.299995 7.63693 0.299995 7.62704 0.299995C7.61715 0.299995 7.60726 0.299995 7.59737 0.299995C7.58749 0.299995 7.57762 0.299995 7.56775 0.299995C7.55788 0.299995 7.54801 0.299995 7.53815 0.299995C7.52829 0.299995 7.51844 0.299995 7.50859 0.299995C7.49875 0.299995 7.4889 0.299995 7.47907 0.299995C7.46923 0.299995 7.45941 0.299995 7.44958 0.299995C7.43976 0.299995 7.42994 0.299995 7.42013 0.299995C7.41032 0.299995 7.40051 0.299995 7.39071 0.299995C7.38091 0.299995 7.37112 0.299995 7.36133 0.299995C7.35155 0.299995 7.34176 0.299995 7.33199 0.299995C7.32221 0.299995 7.31244 0.299995 7.30268 0.299995C7.29292 0.299995 7.28316 0.299995 7.27341 0.299995C7.26366 0.299995 7.25391 0.299995 7.24417 0.299995C7.23444 0.299995 7.2247 0.299995 7.21498 0.299995C7.20525 0.299995 7.19553 0.299995 7.18581 0.299995C7.1761 0.299995 7.16639 0.299995 7.15669 0.299995C7.14699 0.299995 7.13729 0.299995 7.1276 0.299995C7.11791 0.299995 7.10823 0.299995 7.09855 0.299995C7.08888 0.299995 7.07921 0.299995 7.06954 0.299995C7.05988 0.299995 7.05022 0.299995 7.04057 0.299995C7.03091 0.299995 7.02127 0.299995 7.01163 0.299995C7.00199 0.299995 6.99236 0.299995 6.98273 0.299995C6.9731 0.299995 6.96348 0.299995 6.95387 0.299995C6.94425 0.299995 6.93465 0.299995 6.92505 0.299995C6.91544 0.299995 6.90585 0.299995 6.89626 0.299995C6.88667 0.299995 6.87709 0.299995 6.86751 0.299995C6.85794 0.299995 6.84837 0.299995 6.83881 0.299995C6.82924 0.299995 6.81969 0.299995 6.81014 0.299995C6.80059 0.299995 6.79104 0.299995 6.78151 0.299995C6.77197 0.299995 6.76244 0.299995 6.75292 0.299995C6.74339 0.299995 6.73387 0.299995 6.72436 0.299995C6.71485 0.299995 6.70535 0.299995 6.69585 0.299995C6.68635 0.299995 6.67686 0.299995 6.66738 0.299995C6.65789 0.299995 6.64842 0.299995 6.63894 0.299995C6.62947 0.299995 6.62001 0.299995 6.61055 0.299995C6.60109 0.299995 6.59164 0.299995 6.5822 0.299995C6.57275 0.299995 6.56331 0.299995 6.55388 0.299995C6.54445 0.299995 6.53503 0.299995 6.52561 0.299995C6.51619 0.299995 6.50678 0.299995 6.49738 0.299995C6.48797 0.299995 6.47857 0.299995 6.46918 0.299995C6.45979 0.299995 6.45041 0.299995 6.44103 0.299995C6.43165 0.299995 6.42228 0.299995 6.41292 0.299995C6.40356 0.299995 6.3942 0.299995 6.38485 0.299995C6.3755 0.299995 6.36616 0.299995 6.35682 0.299995C6.34748 0.299995 6.33815 0.299995 6.32883 0.299995C6.31951 0.299995 6.31019 0.299995 6.30089 0.299995C6.29158 0.299995 6.28227 0.299995 6.27298 0.299995C6.26368 0.299995 6.2544 0.299995 6.24512 0.299995C6.23584 0.299995 6.22656 0.299995 6.21729 0.299995C6.20803 0.299995 6.19877 0.299995 6.18951 0.299995C6.18026 0.299995 6.17102 0.299995 6.16178 0.299995C6.15254 0.299995 6.14331 0.299995 6.13408 0.299995C6.12486 0.299995 6.11564 0.299995 6.10643 0.299995C6.09722 0.299995 6.08801 0.299995 6.07882 0.299995C6.06962 0.299995 6.06043 0.299995 6.05125 0.299995C6.04207 0.299995 6.03289 0.299995 6.02372 0.299995C6.01456 0.299995 6.00539 0.299995 5.99624 0.299995C5.98709 0.299995 5.97794 0.299995 5.9688 0.299995C5.95966 0.299995 5.95053 0.299995 5.94141 0.299995C5.93228 0.299995 5.92316 0.299995 5.91405 0.299995C5.90494 0.299995 5.89584 0.299995 5.88674 0.299995C5.87765 0.299995 5.86856 0.299995 5.85948 0.299995C5.8504 0.299995 5.84132 0.299995 5.83226 0.299995C5.82319 0.299995 5.81413 0.299995 5.80508 0.299995C5.79603 0.299995 5.78698 0.299995 5.77795 0.299995C5.76891 0.299995 5.75988 0.299995 5.75086 0.299995C5.74184 0.299995 5.73282 0.299995 5.72381 0.299995C5.71481 0.299995 5.70581 0.299995 5.69681 0.299995C5.68782 0.299995 5.67883 0.299995 5.66986 0.299995C5.66088 0.299995 5.65191 0.299995 5.64295 0.299995C5.63398 0.299995 5.62503 0.299995 5.61608 0.299995C5.60713 0.299995 5.59819 0.299995 5.58926 0.299995C5.58033 0.299995 5.5714 0.299995 5.56249 0.299995C5.55357 0.299995 5.54466 0.299995 5.53576 0.299995C5.52685 0.299995 5.51796 0.299995 5.50907 0.299995C5.50018 0.299995 5.4913 0.299995 5.48243 0.299995C5.47356 0.299995 5.4647 0.299995 5.45584 0.299995C5.44698 0.299995 5.43813 0.299995 5.42929 0.299995C5.42045 0.299995 5.41162 0.299995 5.40279 0.299995C5.39397 0.299995 5.38515 0.299995 5.37634 0.299995C5.36753 0.299995 5.35873 0.299995 5.34993 0.299995C5.34114 0.299995 5.33235 0.299995 5.32357 0.299995C5.31479 0.299995 5.30602 0.299995 5.29726 0.299995C5.28849 0.299995 5.27974 0.299995 5.27099 0.299995C5.26224 0.299995 5.2535 0.299995 5.24477 0.299995C5.23603 0.299995 5.22731 0.299995 5.21859 0.299995C5.20988 0.299995 5.20117 0.299995 5.19247 0.299995C5.18377 0.299995 5.17507 0.299995 5.16639 0.299995C5.1577 0.299995 5.14903 0.299995 5.14036 0.299995C5.13169 0.299995 5.12303 0.299995 5.11438 0.299995C5.10572 0.299995 5.09708 0.299995 5.08844 0.299995C5.0798 0.299995 5.07117 0.299995 5.06255 0.299995C5.05393 0.299995 5.04532 0.299995 5.03671 0.299995C5.02811 0.299995 5.01951 0.299995 5.01092 0.299995C5.00233 0.299995 4.99375 0.299995 4.98518 0.299995C4.97661 0.299995 4.96804 0.299995 4.95949 0.299995C4.95093 0.299995 4.94238 0.299995 4.93384 0.299995C4.9253 0.299995 4.91677 0.299995 4.90825 0.299995C4.89972 0.299995 4.89121 0.299995 4.8827 0.299995C4.87419 0.299995 4.86569 0.299995 4.8572 0.299995C4.84871 0.299995 4.84023 0.299995 4.83175 0.299995C4.82328 0.299995 4.81481 0.299995 4.80635 0.299995C4.7979 0.299995 4.78945 0.299995 4.781 0.299995C4.77256 0.299995 4.76413 0.299995 4.75571 0.299995C4.74728 0.299995 4.73886 0.299995 4.73046 0.299995C4.72205 0.299995 4.71365 0.299995 4.70526 0.299995C4.69686 0.299995 4.68848 0.299995 4.68011 0.299995C4.67173 0.299995 4.66337 0.299995 4.65501 0.299995C4.64665 0.299995 4.6383 0.299995 4.62996 0.299995C4.62162 0.299995 4.61329 0.299995 4.60496 0.299995C4.59664 0.299995 4.58832 0.299995 4.58002 0.299995C4.57171 0.299995 4.56341 0.299995 4.55512 0.299995C4.54683 0.299995 4.53855 0.299995 4.53027 0.299995C4.522 0.299995 4.51374 0.299995 4.50548 0.299995C4.49722 0.299995 4.48898 0.299995 4.48074 0.299995C4.4725 0.299995 4.46427 0.299995 4.45605 0.299995C4.44783 0.299995 4.43961 0.299995 4.43141 0.299995C4.4232 0.299995 4.41501 0.299995 4.40682 0.299995C4.39863 0.299995 4.39046 0.299995 4.38229 0.299995C4.37412 0.299995 4.36596 0.299995 4.3578 0.299995C4.34965 0.299995 4.34151 0.299995 4.33337 0.299995C4.32524 0.299995 4.31711 0.299995 4.30899 0.299995C4.30088 0.299995 4.29277 0.299995 4.28467 0.299995C4.27657 0.299995 4.26848 0.299995 4.26039 0.299995C4.25231 0.299995 4.24424 0.299995 4.23617 0.299995C4.22811 0.299995 4.22005 0.299995 4.21201 0.299995C4.20396 0.299995 4.19592 0.299995 4.18789 0.299995C4.17986 0.299995 4.17184 0.299995 4.16383 0.299995C4.15582 0.299995 4.14782 0.299995 4.13982 0.299995C4.13183 0.299995 4.12385 0.299995 4.11587 0.299995C4.10789 0.299995 4.09993 0.299995 4.09197 0.299995C4.08401 0.299995 4.07606 0.299995 4.06812 0.299995C4.06018 0.299995 4.05225 0.299995 4.04433 0.299995C4.03641 0.299995 4.0285 0.299995 4.02059 0.299995C4.01269 0.299995 4.00479 0.299995 3.99691 0.299995C3.98902 0.299995 3.98115 0.299995 3.97328 0.299995C3.96541 0.299995 3.95755 0.299995 3.9497 0.299995C3.94185 0.299995 3.93401 0.299995 3.92618 0.299995C3.91835 0.299995 3.91053 0.299995 3.90272 0.299995C3.8949 0.299995 3.8871 0.299995 3.87931 0.299995C3.87151 0.299995 3.86373 0.299995 3.85595 0.299995C3.84818 0.299995 3.84041 0.299995 3.83265 0.299995C3.82489 0.299995 3.81715 0.299995 3.80941 0.299995C3.80167 0.299995 3.79394 0.299995 3.78622 0.299995C3.7785 0.299995 3.77079 0.299995 3.76309 0.299995C3.75538 0.299995 3.74769 0.299995 3.74001 0.299995C3.73232 0.299995 3.72465 0.299995 3.71699 0.299995C3.70932 0.299995 3.70167 0.299995 3.69402 0.299995C3.68638 0.299995 3.67874 0.299995 3.67111 0.299995C3.66349 0.299995 3.65587 0.299995 3.64826 0.299995C3.64065 0.299995 3.63305 0.299995 3.62546 0.299995C3.61788 0.299995 3.6103 0.299995 3.60273 0.299995C3.59516 0.299995 3.58759 0.299995 3.58004 0.299995C3.57249 0.299995 3.56495 0.299995 3.55742 0.299995C3.54989 0.299995 3.54236 0.299995 3.53485 0.299995C3.52734 0.299995 3.51983 0.299995 3.51234 0.299995C3.50485 0.299995 3.49736 0.299995 3.48989 0.299995C3.48241 0.299995 3.47495 0.299995 3.46749 0.299995C3.46004 0.299995 3.45259 0.299995 3.44515 0.299995C3.43772 0.299995 3.43029 0.299995 3.42288 0.299995C3.41546 0.299995 3.40805 0.299995 3.40065 0.299995C3.39326 0.299995 3.38587 0.299995 3.37849 0.299995C3.37111 0.299995 3.36374 0.299995 3.35639 0.299995C3.34903 0.299995 3.34168 0.299995 3.33434 0.299995C3.327 0.299995 3.31967 0.299995 3.31235 0.299995C3.30503 0.299995 3.29772 0.299995 3.29042 0.299995C3.28312 0.299995 3.27583 0.299995 3.26855 0.299995C3.26127 0.299995 3.254 0.299995 3.24674 0.299995C3.23948 0.299995 3.23223 0.299995 3.22499 0.299995C3.21775 0.299995 3.21052 0.299995 3.2033 0.299995C3.19608 0.299995 3.18886 0.299995 3.18166 0.299995C3.17446 0.299995 3.16727 0.299995 3.16009 0.299995C3.15291 0.299995 3.14574 0.299995 3.13858 0.299995C3.13142 0.299995 3.12426 0.299995 3.11712 0.299995C3.10998 0.299995 3.10285 0.299995 3.09573 0.299995C3.08861 0.299995 3.0815 0.299995 3.0744 0.299995C3.0673 0.299995 3.0602 0.299995 3.05312 0.299995C3.04604 0.299995 3.03897 0.299995 3.03191 0.299995C3.02485 0.299995 3.0178 0.299995 3.01076 0.299995C3.00372 0.299995 2.99669 0.299995 2.98967 0.299995C2.98265 0.299995 2.97564 0.299995 2.96864 0.299995C2.96164 0.299995 2.95465 0.299995 2.94767 0.299995C2.94069 0.299995 2.93372 0.299995 2.92676 0.299995C2.9198 0.299995 2.91286 0.299995 2.90592 0.299995C2.89898 0.299995 2.89205 0.299995 2.88513 0.299995C2.87822 0.299995 2.87131 0.299995 2.86441 0.299995C2.85751 0.299995 2.85063 0.299995 2.84375 0.299995C2.83687 0.299995 2.83001 0.299995 2.82315 0.299995C2.8163 0.299995 2.80945 0.299995 2.80261 0.299995C2.79578 0.299995 2.78895 0.299995 2.78214 0.299995C2.77533 0.299995 2.76852 0.299995 2.76173 0.299995C2.75493 0.299995 2.74815 0.299995 2.74138 0.299995C2.73461 0.299995 2.72784 0.299995 2.72109 0.299995C2.71434 0.299995 2.7076 0.299995 2.70087 0.299995C2.69414 0.299995 2.68742 0.299995 2.68071 0.299995C2.674 0.299995 2.6673 0.299995 2.66061 0.299995C2.65392 0.299995 2.64724 0.299995 2.64057 0.299995C2.63391 0.299995 2.62725 0.299995 2.6206 0.299995C2.61396 0.299995 2.60732 0.299995 2.6007 0.299995C2.59407 0.299995 2.58746 0.299995 2.58085 0.299995C2.57425 0.299995 2.56766 0.299995 2.56107 0.299995C2.55449 0.299995 2.54792 0.299995 2.54136 0.299995C2.5348 0.299995 2.52825 0.299995 2.52171 0.299995C2.51517 0.299995 2.50864 0.299995 2.50212 0.299995C2.4956 0.299995 2.48909 0.299995 2.4826 0.299995C2.4761 0.299995 2.46961 0.299995 2.46314 0.299995C2.45666 0.299995 2.4502 0.299995 2.44374 0.299995C2.43729 0.299995 2.43085 0.299995 2.42442 0.299995C2.41798 0.299995 2.41156 0.299995 2.40515 0.299995C2.39874 0.299995 2.39234 0.299995 2.38595 0.299995C2.37956 0.299995 2.37319 0.299995 2.36682 0.299995C2.36045 0.299995 2.3541 0.299995 2.34775 0.299995C2.34141 0.299995 2.33507 0.299995 2.32875 0.299995C2.32243 0.299995 2.31612 0.299995 2.30981 0.299995C2.30351 0.299995 2.29722 0.299995 2.29094 0.299995C2.28467 0.299995 2.2784 0.299995 2.27214 0.299995C2.26588 0.299995 2.25964 0.299995 2.2534 0.299995C2.24717 0.299995 2.24094 0.299995 2.23473 0.299995C2.22852 0.299995 2.22232 0.299995 2.21613 0.299995C2.20993 0.299995 2.20376 0.299995 2.19759 0.299995C2.19142 0.299995 2.18526 0.299995 2.17912 0.299995C2.17297 0.299995 2.16683 0.299995 2.16071 0.299995C2.15459 0.299995 2.14847 0.299995 2.14237 0.299995C2.13627 0.299995 2.13018 0.299995 2.1241 0.299995C2.11802 0.299995 2.11196 0.299995 2.1059 0.299995C2.09984 0.299995 2.0938 0.299995 2.08776 0.299995C2.08173 0.299995 2.07571 0.299995 2.0697 0.299995C2.06368 0.299995 2.05768 0.299995 2.0517 0.299995C2.04571 0.299995 2.03973 0.299995 2.03376 0.299995C2.0278 0.299995 2.02184 0.299995 2.0159 0.299995C2.00996 0.299995 2.00402 0.299995 1.9981 0.299995C1.99218 0.299995 1.98627 0.299995 1.98038 0.299995C1.97448 0.299995 1.96859 0.299995 1.96272 0.299995C1.95684 0.299995 1.95098 0.299995 1.94513 0.299995C1.93927 0.299995 1.93343 0.299995 1.9276 0.299995C1.92178 0.299995 1.91596 0.299995 1.91015 0.299995C1.90435 0.299995 1.89855 0.299995 1.89277 0.299995C1.88699 0.299995 1.88121 0.299995 1.87545 0.299995C1.86969 0.299995 1.86395 0.299995 1.85821 0.299995C1.85247 0.299995 1.84675 0.299995 1.84103 0.299995C1.83532 0.299995 1.82962 0.299995 1.82393 0.299995C1.81824 0.299995 1.81256 0.299995 1.80689 0.299995C1.80123 0.299995 1.79557 0.299995 1.78993 0.299995C1.78428 0.299995 1.77865 0.299995 1.77303 0.299995C1.76741 0.299995 1.7618 0.299995 1.75621 0.299995C1.75061 0.299995 1.74502 0.299995 1.73945 0.299995C1.73388 0.299995 1.72832 0.299995 1.72277 0.299995C1.71722 0.299995 1.71168 0.299995 1.70615 0.299995C1.70063 0.299995 1.69511 0.299995 1.68961 0.299995C1.68411 0.299995 1.67862 0.299995 1.67314 0.299995C1.66766 0.299995 1.66219 0.299995 1.65674 0.299995C1.65128 0.299995 1.64584 0.299995 1.64041 0.299995C1.63498 0.299995 1.62956 0.299995 1.62415 0.299995C1.61874 0.299995 1.61335 0.299995 1.60796 0.299995C1.60258 0.299995 1.59721 0.299995 1.59185 0.299995C1.58649 0.299995 1.58114 0.299995 1.57581 0.299995C1.57047 0.299995 1.56515 0.299995 1.55984 0.299995C1.55452 0.299995 1.54923 0.299995 1.54394 0.299995C1.53865 0.299995 1.53337 0.299995 1.52811 0.299995C1.52285 0.299995 1.5176 0.299995 1.51236 0.299995C1.50712 0.299995 1.50189 0.299995 1.49668 0.299995C1.49146 0.299995 1.48626 0.299995 1.48107 0.299995C1.47588 0.299995 1.4707 0.299995 1.46553 0.299995C1.46037 0.299995 1.45521 0.299995 1.45007 0.299995C1.44493 0.299995 1.4398 0.299995 1.43468 0.299995C1.42956 0.299995 1.42446 0.299995 1.41936 0.299995C1.41427 0.299995 1.40919 0.299995 1.40412 0.299995C1.39905 0.299995 1.394 0.299995 1.38895 0.299995C1.38391 0.299995 1.37888 0.299995 1.37386 0.299995C1.36884 0.299995 1.36383 0.299995 1.35884 0.299995C1.35384 0.299995 1.34886 0.299995 1.34389 0.299995C1.33892 0.299995 1.33396 0.299995 1.32902 0.299995C1.32407 0.299995 1.31914 0.299995 1.31422 0.299995C1.3093 0.299995 1.30439 0.299995 1.29949 0.299995C1.2946 0.299995 1.28971 0.299995 1.28484 0.299995C1.27997 0.299995 1.27511 0.299995 1.27027 0.299995C1.26542 0.299995 1.26059 0.299995 1.25577 0.299995C1.25095 0.299995 1.24614 0.299995 1.24134 0.299995C1.23655 0.299995 1.23176 0.299995 1.22699 0.299995C1.22222 0.299995 1.21746 0.299995 1.21272 0.299995C1.20797 0.299995 1.20324 0.299995 1.19852 0.299995C1.1938 0.299995 1.18909 0.299995 1.1844 0.299995C1.1797 0.299995 1.17502 0.299995 1.17035 0.299995C1.16568 0.299995 1.16102 0.299995 1.15638 0.299995C1.15173 0.299995 1.1471 0.299995 1.14248 0.299995C1.13786 0.299995 1.13326 0.299995 1.12866 0.299995C1.12407 0.299995 1.11949 0.299995 1.11492 0.299995C1.11035 0.299995 1.1058 0.299995 1.10125 0.299995C1.09671 0.299995 1.09218 0.299995 1.08766 0.299995C1.08315 0.299995 1.07864 0.299995 1.07415 0.299995C1.06966 0.299995 1.06518 0.299995 1.06072 0.299995C1.05625 0.299995 1.0518 0.299995 1.04736 0.299995C1.04292 0.299995 1.03849 0.299995 1.03408 0.299995C1.02966 0.299995 1.02526 0.299995 1.02087 0.299995C1.01648 0.299995 1.01211 0.299995 1.00774 0.299995C1.00338 0.299995 0.999032 0.299995 0.994696 0.299995C0.990359 0.299995 0.986035 0.299995 0.981725 0.299995C0.977414 0.299995 0.973116 0.299995 0.968831 0.299995C0.964547 0.299995 0.960275 0.299995 0.956016 0.299995C0.951758 0.299995 0.947512 0.299995 0.94328 0.299995C0.939047 0.299995 0.934828 0.299995 0.930621 0.299995C0.926415 0.299995 0.922222 0.299995 0.918042 0.299995C0.913861 0.299995 0.909694 0.299995 0.905541 0.299995C0.901387 0.299995 0.897246 0.299995 0.893118 0.299995C0.888991 0.299995 0.884876 0.299995 0.880775 0.299995C0.876674 0.299995 0.872586 0.299995 0.868511 0.299995C0.864436 0.299995 0.860374 0.299995 0.856326 0.299995C0.852278 0.299995 0.848243 0.299995 0.844221 0.299995C0.840199 0.299995 0.83619 0.299995 0.832195 0.299995C0.828199 0.299995 0.824217 0.299995 0.820249 0.299995C0.81628 0.299995 0.812324 0.299995 0.808382 0.299995C0.80444 0.299995 0.800511 0.299995 0.796596 0.299995C0.792681 0.299995 0.788779 0.299995 0.78489 0.299995C0.781001 0.299995 0.777126 0.299995 0.773264 0.299995C0.769402 0.299995 0.765554 0.299995 0.761719 0.299995C0.757884 0.299995 0.754062 0.299995 0.750254 0.299995C0.746446 0.299995 0.742651 0.299995 0.73887 0.299995C0.735089 0.299995 0.731321 0.299995 0.727567 0.299995C0.723812 0.299995 0.720072 0.299995 0.716344 0.299995C0.712617 0.299995 0.708904 0.299995 0.705203 0.299995C0.701503 0.299995 0.697817 0.299995 0.694144 0.299995C0.690471 0.299995 0.686811 0.299995 0.683165 0.299995C0.67952 0.299995 0.675887 0.299995 0.672269 0.299995C0.66865 0.299995 0.665045 0.299995 0.661454 0.299995C0.657863 0.299995 0.654285 0.299995 0.650721 0.299995C0.647157 0.299995 0.643607 0.299995 0.64007 0.299995C0.636533 0.299995 0.63301 0.299995 0.629501 0.299995C0.625992 0.299995 0.622496 0.299995 0.619015 0.299995C0.615533 0.299995 0.612065 0.299995 0.608611 0.299995C0.605157 0.299995 0.601716 0.299995 0.598289 0.299995C0.594863 0.299995 0.59145 0.299995 0.588051 0.299995C0.584652 0.299995 0.581267 0.299995 0.577895 0.299995C0.574524 0.299995 0.571166 0.299995 0.567822 0.299995C0.564479 0.299995 0.561149 0.299995 0.557833 0.299995C0.554517 0.299995 0.551215 0.299995 0.547927 0.299995C0.544639 0.299995 0.541365 0.299995 0.538104 0.299995C0.534844 0.299995 0.531598 0.299995 0.528365 0.299995C0.525133 0.299995 0.521915 0.299995 0.51871 0.299995C0.515506 0.299995 0.512315 0.299995 0.509139 0.299995C0.505963 0.299995 0.5028 0.299995 0.499652 0.299995C0.496503 0.299995 0.493369 0.299995 0.490249 0.299995C0.487129 0.299995 0.484022 0.299995 0.48093 0.299995C0.477838 0.299995 0.47476 0.299995 0.471696 0.299995C0.468632 0.299995 0.465582 0.299995 0.462547 0.299995C0.459511 0.299995 0.45649 0.299995 0.453482 0.299995C0.450475 0.299995 0.447482 0.299995 0.444502 0.299995C0.441523 0.299995 0.438559 0.299995 0.435608 0.299995C0.432657 0.299995 0.429721 0.299995 0.426799 0.299995C0.423876 0.299995 0.420968 0.299995 0.418075 0.299995C0.415181 0.299995 0.412301 0.299995 0.409436 0.299995C0.406571 0.299995 0.40372 0.299995 0.400883 0.299995C0.398047 0.299995 0.395224 0.299995 0.392416 0.299995C0.389608 0.299995 0.386815 0.299995 0.384035 0.299995C0.381256 0.299995 0.378491 0.299995 0.37574 0.299995C0.37299 0.299995 0.370254 0.299995 0.367532 0.299995C0.36481 0.299995 0.362103 0.299995 0.359409 0.299995C0.356716 0.299995 0.354038 0.299995 0.351374 0.299995C0.34871 0.299995 0.34606 0.299995 0.343425 0.299995C0.34079 0.299995 0.338169 0.299995 0.335563 0.299995C0.332956 0.299995 0.330365 0.299995 0.327787 0.299995C0.32521 0.299995 0.322647 0.299995 0.320099 0.299995C0.317551 0.299995 0.315017 0.299995 0.312498 0.299995C0.309979 0.299995 0.307475 0.299995 0.304985 0.299995C0.302495 0.299995 0.30002 0.299995 0.297559 0.299995C0.295099 0.299995 0.292652 0.299995 0.290221 0.299995C0.28779 0.299995 0.285373 0.299995 0.282971 0.299995C0.280569 0.299995 0.278181 0.299995 0.275808 0.299995C0.273436 0.299995 0.271078 0.299995 0.268734 0.299995C0.266391 0.299995 0.264062 0.299995 0.261748 0.299995C0.259435 0.299995 0.257135 0.299995 0.254851 0.299995C0.252567 0.299995 0.250297 0.299995 0.248042 0.299995C0.245787 0.299995 0.243547 0.299995 0.241322 0.299995C0.239097 0.299995 0.236886 0.299995 0.234691 0.299995C0.232495 0.299995 0.230314 0.299995 0.228148 0.299995C0.225982 0.299995 0.223831 0.299995 0.221695 0.299995C0.219559 0.299995 0.217438 0.299995 0.215331 0.299995C0.213225 0.299995 0.211134 0.299995 0.209057 0.299995C0.206981 0.299995 0.204919 0.299995 0.202872 0.299995C0.200826 0.299995 0.198794 0.299995 0.196777 0.299995C0.194761 0.299995 0.192759 0.299995 0.190772 0.299995C0.188785 0.299995 0.186814 0.299995 0.184857 0.299995C0.1829 0.299995 0.180959 0.299995 0.179032 0.299995C0.177106 0.299995 0.175194 0.299995 0.173298 0.299995C0.171401 0.299995 0.16952 0.299995 0.167653 0.299995C0.165787 0.299995 0.163936 0.299995 0.1621 0.299995C0.160264 0.299995 0.158443 0.299995 0.156637 0.299995C0.154831 0.299995 0.153041 0.299995 0.151265 0.299995C0.14949 0.299995 0.147729 0.299995 0.145984 0.299995C0.144239 0.299995 0.142509 0.299995 0.140795 0.299995C0.13908 0.299995 0.137381 0.299995 0.135696 0.299995C0.134012 0.299995 0.132343 0.299995 0.130689 0.299995C0.129036 0.299995 0.127397 0.299995 0.125774 0.299995C0.124151 0.299995 0.122543 0.299995 0.120951 0.299995C0.119358 0.299995 0.117781 0.299995 0.116219 0.299995C0.114658 0.299995 0.113111 0.299995 0.11158 0.299995C0.110049 0.299995 0.108533 0.299995 0.107033 0.299995C0.105532 0.299995 0.104047 0.299995 0.102578 0.299995C0.101108 0.299995 0.0996541 0.299995 0.0982154 0.299995C0.0967767 0.299995 0.0953534 0.299995 0.0939456 0.299995C0.0925378 0.299995 0.0911455 0.299995 0.0897687 0.299995C0.0883918 0.299995 0.0870305 0.299995 0.0856846 0.299995C0.0843388 0.299995 0.0830085 0.299995 0.0816937 0.299995C0.0803789 0.299995 0.0790797 0.299995 0.077796 0.299995C0.0765123 0.299995 0.0752442 0.299995 0.0739916 0.299995C0.0727391 0.299995 0.0715021 0.299995 0.0702808 0.299995C0.0690595 0.299995 0.0678537 0.299995 0.0666636 0.299995C0.0654735 0.299995 0.0642991 0.299995 0.0631403 0.299995C0.0619815 0.299995 0.0608383 0.299995 0.0597109 0.299995C0.0585834 0.299995 0.0574716 0.299995 0.0563755 0.299995C0.0552795 0.299995 0.0541991 0.299995 0.0531345 0.299995C0.0520698 0.299995 0.0510209 0.299995 0.0499878 0.299995C0.0489546 0.299995 0.0479373 0.299995 0.0469356 0.299995C0.045934 0.299995 0.0449482 0.299995 0.0439782 0.299995C0.0430081 0.299995 0.0420539 0.299995 0.0411155 0.299995C0.0401771 0.299995 0.0392546 0.299995 0.0383478 0.299995C0.0374411 0.299995 0.0365503 0.299995 0.0356753 0.299995C0.0348003 0.299995 0.0339412 0.299995 0.033098 0.299995C0.0322548 0.299995 0.0314274 0.299995 0.0306161 0.299995C0.0298047 0.299995 0.0290092 0.299995 0.0282297 0.299995C0.0274502 0.299995 0.0266866 0.299995 0.0259391 0.299995C0.0251915 0.299995 0.0244599 0.299995 0.0237442 0.299995C0.0230286 0.299995 0.022329 0.299995 0.0216454 0.299995C0.0209618 0.299995 0.0202942 0.299995 0.0196427 0.299995C0.0189912 0.299995 0.0183557 0.299995 0.0177363 0.299995C0.0171169 0.299995 0.0165135 0.299995 0.0159263 0.299995C0.015339 0.299995 0.0147679 0.299995 0.0142129 0.299995C0.0136578 0.299995 0.0131189 0.299995 0.0125961 0.299995C0.0120734 0.299995 0.0115667 0.299995 0.0110763 0.299995C0.0105858 0.299995 0.0101115 0.299995 0.0096534 0.299995C0.0091953 0.299995 0.00875339 0.299995 0.00832769 0.299995C0.00790199 0.299995 0.00749251 0.299995 0.00709927 0.299995C0.00670603 0.299995 0.00632903 0.299995 0.00596829 0.299995C0.00560755 0.299995 0.00526308 0.299995 0.00493489 0.299995C0.00460671 0.299995 0.00429481 0.299995 0.00399922 0.299995C0.00370364 0.299995 0.00342437 0.299995 0.00316143 0.299995C0.00289849 0.299995 0.00265189 0.299995 0.00242166 0.299995C0.00219142 0.299995 0.00197754 0.299995 0.00178005 0.299995C0.00158256 0.299995 0.00140145 0.299995 0.00123675 0.299995C0.00107205 0.299995 0.000923763 0.299995 0.000791907 0.299995C0.000660052 0.299995 0.00054463 0.299995 0.000445666 0.299995C0.000346702 0.299995 0.000264195 0.299995 0.000198171 0.299995C0.000132146 0.299995 8.26033e-05 0.299995 4.95668e-05 0.299995C1.65304e-05 0.299995 0 0.299995 0 1ZM9.75 1.7H13V0.299995H9.75V1.7Z" fill="#DEDEDE"/>
</svg>
