<svg width="14" height="110" viewBox="0 0 14 110" fill="none" xmlns="http://www.w3.org/2000/svg">
<path fill-rule="evenodd" clip-rule="evenodd" d="M0.296875 11.0061V0.00439453H1.69688V11.0061V11.9722C1.69688 15.8711 2.67089 17.8669 4.05042 18.9349C5.47258 20.0359 7.50451 20.3045 9.99694 20.3045H12.997C13.3836 20.3045 13.697 20.6179 13.697 21.0045C13.697 21.3911 13.3836 21.7045 12.997 21.7045H9.99694C7.48933 21.7045 5.02123 21.457 3.19337 20.0419C2.6108 19.5909 2.11014 19.0358 1.69688 18.3614V55.0053V55.9742C1.69688 59.8731 2.67089 61.8688 4.05042 62.9369C5.47258 64.0379 7.50451 64.3065 9.99694 64.3065H12.997C13.3836 64.3065 13.697 64.6199 13.697 65.0065C13.697 65.3931 13.3836 65.7065 12.997 65.7065H9.99694C7.48933 65.7065 5.02123 65.459 3.19337 64.0439C2.6108 63.5928 2.11014 63.0378 1.69688 62.3634V99.9734C1.69688 103.872 2.67089 105.868 4.05042 106.936C5.47258 108.037 7.50451 108.306 9.99694 108.306H12.997C13.3836 108.306 13.697 108.619 13.697 109.006C13.697 109.392 13.3836 109.706 12.997 109.706H9.99694C7.48933 109.706 5.02123 109.458 3.19337 108.043C1.32288 106.595 0.296875 104.075 0.296875 99.9734V55.9742V55.0053V11.9722V11.0061Z" fill="white" fill-opacity="0.16"/>
</svg>
