<svg width="24" height="24" viewBox="0 0 24 24" fill="none" xmlns="http://www.w3.org/2000/svg">
<g clip-path="url(#clip0_1413_86735)">
<path d="M22.5609 2.39407H16.5745L16.0512 0.876466C15.8914 0.23745 15.2524 -0.121978 14.6135 0.0377998L1.11473 3.11297C0.47576 3.31262 0.116332 3.95164 0.276062 4.59061L5.22826 23.1214C5.30815 23.4409 5.5078 23.6805 5.78739 23.8402C5.98709 23.9601 6.18674 24 6.38644 24C6.46633 24 6.58614 23.9601 6.70595 23.9601L7.80046 23.6806C8.008 23.856 8.27941 23.9601 8.58298 23.9601H22.5609C23.2398 23.9601 23.759 23.4409 23.759 22.762V3.59221C23.759 2.91327 23.2398 2.39407 22.5609 2.39407ZM6.50625 23.2013C6.38644 23.2412 6.26663 23.2013 6.18674 23.1614C6.06693 23.1214 6.02701 23.0415 5.98704 22.9217L1.03489 4.39096C0.994966 4.15134 1.11478 3.95164 1.31443 3.8718L14.8131 0.796672C14.853 0.796672 14.893 0.796672 14.9329 0.796672C15.0927 0.796672 15.2524 0.916482 15.3722 1.11618L15.8116 2.39416H8.6229H8.58298C7.90404 2.39416 7.38488 2.91332 7.38488 3.59226V22.762C7.38488 22.8325 7.39078 22.9011 7.40158 22.9677L6.50625 23.2013ZM22.9603 22.762C22.9603 23.0016 22.8006 23.1613 22.5609 23.1613H8.58302C8.46773 23.1613 8.37119 23.124 8.30177 23.0589L8.26352 23.0015C8.2236 22.9216 8.18363 22.8418 8.18363 22.7619V3.59221C8.18363 3.51732 8.19923 3.45023 8.22797 3.39342C8.29126 3.26837 8.41825 3.19286 8.58298 3.19286H16.8499H22.5609C22.8005 3.19286 22.9603 3.35259 22.9603 3.59221V22.762H22.9603Z" fill="white"/>
<path d="M14.5751 4.79089H21.3644V16.3327C21.3644 16.5723 21.5242 16.732 21.7638 16.732C22.0034 16.732 22.1631 16.5723 22.1631 16.3327V4.39154C22.1631 4.15192 22.0034 3.99219 21.7638 3.99219H14.5751C14.3355 3.99219 14.1758 4.15192 14.1758 4.39154C14.1758 4.63116 14.3355 4.79089 14.5751 4.79089Z" fill="white"/>
<path d="M17.3711 21.5635L9.78307 21.6034V10.0217C9.78307 9.78204 9.62334 9.62231 9.38372 9.62231C9.1441 9.62231 8.98438 9.78204 8.98438 10.0217V22.0028C8.98438 22.1226 9.0243 22.2024 9.10418 22.2823C9.18407 22.3622 9.26391 22.4021 9.38372 22.4021L17.3711 22.3622C17.6108 22.3622 17.7705 22.2024 17.7705 21.9628C17.7705 21.7232 17.6107 21.5635 17.3711 21.5635Z" fill="white"/>
<path d="M19.8478 15.9317C20.367 15.4125 20.6066 14.7336 20.5666 14.0147C20.5267 13.176 20.0475 12.4172 19.2487 11.938C18.8494 11.6584 18.4899 11.5386 18.0906 11.4986C18.2503 11.0593 18.2903 10.5402 18.1705 9.98104C17.9708 8.94267 17.172 8.10401 16.1337 7.90431C15.3349 7.70461 14.5362 7.90431 13.8972 8.42347C13.2582 8.94263 12.8987 9.70145 12.8987 10.5002C12.8987 10.8596 12.9387 11.2191 13.0585 11.4986C12.6591 11.4986 12.2997 11.6584 11.9003 11.898C11.1016 12.4171 10.6223 13.176 10.5824 13.9747C10.5425 14.6537 10.7821 15.3725 11.3013 15.8917C11.8204 16.4508 12.5393 16.7704 13.2981 16.7704C13.4978 16.7704 13.6575 16.7704 13.8572 16.6905L13.5777 17.5691C13.4978 17.7288 13.5378 17.9285 13.6176 18.0883C13.6975 18.248 13.8971 18.3678 14.0968 18.3678H17.0522C17.2519 18.3678 17.4116 18.248 17.5714 18.1282C17.6912 17.9684 17.6912 17.7687 17.6113 17.609L17.2519 16.7304C17.4516 16.7703 17.6512 16.8103 17.8509 16.8103C18.5698 16.8103 19.3286 16.4908 19.8478 15.9317ZM17.851 15.9716C17.5314 15.9716 17.1321 15.8518 16.8126 15.6521C16.6529 15.5722 16.4532 15.5722 16.2934 15.692L16.0538 15.8917L16.6928 17.5691H14.3765L14.9356 16.1713C14.9755 16.0115 14.9356 15.8118 14.7759 15.692L14.4963 15.5323L14.2567 15.692C13.9372 15.8917 13.6177 16.0115 13.3382 16.0115C12.779 16.0115 12.2599 15.7719 11.9004 15.3725C11.5809 14.9732 11.3813 14.4939 11.4212 14.0146C11.4611 13.4555 11.8206 12.9364 12.3797 12.5769C12.8589 12.2974 13.2583 12.2175 13.7376 12.3373L14.9357 12.6168L14.1369 11.6983C13.8973 11.4188 13.7775 11.0194 13.7775 10.5002C13.7775 9.94107 14.0171 9.42191 14.4564 9.06248C14.8957 8.70306 15.4549 8.58325 16.0139 8.70306C16.6929 8.86279 17.2919 9.42191 17.4117 10.1408C17.4916 10.5801 17.4916 11.2191 17.0922 11.6983L16.2935 12.6168L17.4916 12.3373C17.9309 12.2175 18.2903 12.2175 18.8494 12.5769C19.4485 12.9364 19.768 13.4556 19.8079 14.0146C19.8079 14.4939 19.6482 14.9731 19.2888 15.3325C18.8893 15.732 18.3701 15.9716 17.851 15.9716Z" fill="white"/>
<path d="M9.21994 7.90548C9.41964 8.02529 9.65926 7.9454 9.7391 7.74575L10.1204 6.98327C10.1392 6.98545 10.1584 6.98698 10.1784 6.98698H11.7759C11.7959 6.98698 11.8151 6.98545 11.834 6.98327L12.2152 7.74575C12.2951 7.90548 12.4149 7.98537 12.5747 7.98537C12.6545 7.98537 12.6945 7.98537 12.8143 7.90548C12.974 7.8256 13.0539 7.58598 12.974 7.38633L11.3765 4.19134C11.2567 3.9118 10.7775 3.9118 10.6577 4.19134L9.06016 7.38633C8.9404 7.58598 9.02029 7.8256 9.21994 7.90548ZM10.9772 5.26963L11.4364 6.18818H10.5179L10.9772 5.26963Z" fill="white"/>
<path d="M21.9612 18.449C21.7615 18.3292 21.5219 18.4091 21.442 18.6087L21.0579 19.3769C21.0278 19.3709 20.9961 19.3675 20.9627 19.3675H19.3652C19.3386 19.3675 19.3131 19.3698 19.2885 19.3736L18.886 18.5688C18.8061 18.409 18.5665 18.3291 18.3669 18.409C18.2071 18.4889 18.1272 18.7285 18.2071 18.9282L19.8046 22.1232C19.8134 22.1408 19.8229 22.157 19.8326 22.1727C19.8338 22.1747 19.8349 22.1767 19.8361 22.1787C19.8364 22.1791 19.8366 22.1795 19.8369 22.1799C19.854 22.2088 19.8754 22.2351 19.9006 22.258C19.9357 22.2926 19.9752 22.3183 20.019 22.3357C20.0546 22.3628 20.0939 22.3628 20.1641 22.3628C20.2056 22.3628 20.2362 22.3625 20.2617 22.3514C20.3734 22.3258 20.4609 22.2571 20.5236 22.1631L22.1211 18.9682C22.2408 18.7685 22.1609 18.5289 21.9612 18.449ZM20.174 21.1448L19.6848 20.1663H20.6632L20.174 21.1448Z" fill="white"/>
<path d="M5.58525 15.1751C5.14593 13.4977 4.66669 11.8204 4.22738 10.183C4.18746 9.98326 3.94784 9.86345 3.74814 9.90341C3.54844 9.94334 3.42863 10.183 3.4686 10.3827C3.90792 12.0201 4.34723 13.6974 4.7865 15.3748C5.26574 17.0921 5.74498 18.8094 6.1843 20.4867C6.26419 20.6464 6.42392 20.7662 6.58365 20.7662C6.62357 20.7662 6.66353 20.7662 6.70345 20.7662C6.90315 20.7263 7.02296 20.4867 6.98299 20.287C6.5038 18.5697 6.06449 16.8923 5.58525 15.1751Z" fill="white"/>
<path d="M3.63298 7.98526L3.80565 7.14659C3.82169 7.14659 3.83268 7.14659 3.83268 7.14659L5.3902 6.74724C5.4187 6.74153 5.44535 6.7314 5.47033 6.71827L5.98925 7.30637C6.14898 7.4661 6.3886 7.50607 6.54837 7.34629C6.70815 7.18651 6.74807 6.94694 6.5883 6.78716L4.23203 4.11134C4.15214 3.99153 3.99241 3.95161 3.83268 3.99153C3.71287 4.03145 3.59306 4.15126 3.55314 4.31104L2.83428 7.82548C2.79436 8.0651 2.95409 8.2648 3.15379 8.30472C3.19371 8.30472 3.19371 8.30472 3.23368 8.30472C3.39336 8.30472 3.59306 8.18491 3.63298 7.98526ZM4.8936 6.06455L3.98023 6.29874L4.19211 5.26956L4.8936 6.06455Z" fill="white"/>
</g>
<defs>
<clipPath id="clip0_1413_86735">
<rect width="24" height="24" fill="white" transform="translate(-0.00390625)"/>
</clipPath>
</defs>
</svg>
