<svg width="64" height="92" viewBox="0 0 64 92" fill="none" xmlns="http://www.w3.org/2000/svg">
<path d="M40.916 42.412L36.252 36.824C34.9613 37.1467 33.6413 37.308 32.292 37.308C29.4173 37.308 26.7773 36.6333 24.372 35.284C21.9667 33.9347 20.06 32.072 18.652 29.696C17.244 27.2907 16.54 24.5773 16.54 21.556C16.54 18.564 17.244 15.88 18.652 13.504C20.06 11.0987 21.9667 9.22133 24.372 7.872C26.7773 6.52267 29.4173 5.848 32.292 5.848C35.196 5.848 37.836 6.52267 40.212 7.872C42.6173 9.22133 44.5093 11.0987 45.888 13.504C47.296 15.88 48 18.564 48 21.556C48 24.284 47.4133 26.7773 46.24 29.036C45.096 31.2653 43.5267 33.084 41.532 34.492L48.572 42.412H40.916ZM22.876 21.556C22.876 23.6093 23.272 25.4133 24.064 26.968C24.856 28.5227 25.956 29.7253 27.364 30.576C28.8013 31.3973 30.444 31.808 32.292 31.808C34.14 31.808 35.768 31.3973 37.176 30.576C38.584 29.7253 39.684 28.5227 40.476 26.968C41.268 25.4133 41.664 23.6093 41.664 21.556C41.664 19.5027 41.268 17.7133 40.476 16.188C39.684 14.6333 38.584 13.4453 37.176 12.624C35.768 11.8027 34.14 11.392 32.292 11.392C30.444 11.392 28.8013 11.8027 27.364 12.624C25.956 13.4453 24.856 14.6333 24.064 16.188C23.272 17.7133 22.876 19.5027 22.876 21.556Z" fill="#C8DBFF"/>
<path d="M49 71.6129C49 66.9944 45.2111 63.239 40.54 63.2278C39.4543 63.2278 38.4024 63.4408 37.4411 63.8107C38.6965 62.3422 39.4656 60.4589 39.4543 58.3851C39.4543 53.7441 35.6767 50 30.9943 50C26.312 50 22.5344 53.7442 22.5344 58.3851C22.5344 60.4477 23.2922 62.3422 24.5476 63.8107C23.5862 63.4408 22.557 63.2278 21.4599 63.2166C16.7776 63.2166 13.0113 66.972 13 71.6017C13 76.2202 16.7776 79.9868 21.4599 79.9868C25.5316 79.9868 28.9359 77.1283 29.7389 73.3281C29.8407 77.2628 30.1121 79.7514 25.5089 84C28.3591 84 34.1046 84 36.4797 84C31.7747 79.6505 32.1027 77.1955 32.2497 73.3056C33.0188 77.1395 36.4232 79.998 40.5287 79.9868C45.2111 79.9868 49.0113 76.2427 49 71.6129Z" fill="#C8DBFF"/>
</svg>
