<svg width="64" height="92" viewBox="0 0 64 92" fill="none" xmlns="http://www.w3.org/2000/svg">
<path d="M36.964 12.932C36.6707 11.7 36.1573 10.776 35.424 10.16C34.72 9.544 33.6933 9.236 32.344 9.236C30.32 9.236 28.824 10.0573 27.856 11.7C26.9173 13.3133 26.4333 15.9533 26.404 19.62C27.108 18.4467 28.1347 17.5373 29.484 16.892C30.8333 16.2173 32.3 15.88 33.884 15.88C35.7907 15.88 37.4773 16.2907 38.944 17.112C40.4107 17.9333 41.5547 19.136 42.376 20.72C43.1973 22.2747 43.608 24.152 43.608 26.352C43.608 28.4347 43.1827 30.2973 42.332 31.94C41.5107 33.5533 40.2933 34.8147 38.68 35.724C37.0667 36.6333 35.1453 37.088 32.916 37.088C29.8653 37.088 27.46 36.4133 25.7 35.064C23.9693 33.7147 22.752 31.8373 22.048 29.432C21.3733 26.9973 21.036 24.0053 21.036 20.456C21.036 15.088 21.96 11.04 23.808 8.312C25.656 5.55467 28.5747 4.176 32.564 4.176C35.644 4.176 38.0347 5.012 39.736 6.684C41.4373 8.356 42.42 10.4387 42.684 12.932H36.964ZM32.476 20.94C30.9213 20.94 29.616 21.3947 28.56 22.304C27.504 23.2133 26.976 24.5333 26.976 26.264C26.976 27.9947 27.46 29.3587 28.428 30.356C29.4253 31.3533 30.8187 31.852 32.608 31.852C34.192 31.852 35.4387 31.368 36.348 30.4C37.2867 29.432 37.756 28.1267 37.756 26.484C37.756 24.7827 37.3013 23.4333 36.392 22.436C35.512 21.4387 34.2067 20.94 32.476 20.94Z" fill="#C8DBFF"/>
<path d="M49 71.6129C49 66.9944 45.2111 63.239 40.54 63.2278C39.4543 63.2278 38.4024 63.4408 37.4411 63.8107C38.6965 62.3422 39.4656 60.4589 39.4543 58.3851C39.4543 53.7441 35.6767 50 30.9943 50C26.312 50 22.5344 53.7442 22.5344 58.3851C22.5344 60.4477 23.2922 62.3422 24.5476 63.8107C23.5862 63.4408 22.557 63.2278 21.4599 63.2166C16.7776 63.2166 13.0113 66.972 13 71.6017C13 76.2202 16.7776 79.9868 21.4599 79.9868C25.5316 79.9868 28.9359 77.1283 29.7389 73.3281C29.8407 77.2628 30.1121 79.7514 25.5089 84C28.3591 84 34.1046 84 36.4797 84C31.7747 79.6505 32.1027 77.1955 32.2497 73.3056C33.0188 77.1395 36.4232 79.998 40.5287 79.9868C45.2111 79.9868 49.0113 76.2427 49 71.6129Z" fill="#C8DBFF"/>
</svg>
