<svg width="56" height="56" viewBox="0 0 56 56" fill="none" xmlns="http://www.w3.org/2000/svg">
<g clip-path="url(#clip0_1467_6660)">
<path d="M47.7991 8.20191C42.5105 2.91341 35.4791 0.000976562 28 0.000976562C20.5209 0.000976562 13.4895 2.91341 8.20094 8.20191C2.91233 13.4904 0 20.5219 0 28.001C0 35.48 2.91244 42.5114 8.20094 47.8C13.4894 53.0886 20.5209 56.001 28 56.001C35.4791 56.001 42.5105 53.0885 47.7991 47.8C53.0877 42.5115 56 35.48 56 28.001C56 20.5219 53.0876 13.4905 47.7991 8.20191ZM51.1688 40.3671L46.6046 37.732C48.0056 35.0643 48.8491 32.0606 48.9803 28.876H54.2339C54.1016 32.947 53.0475 36.8581 51.1688 40.3671ZM27.125 48.9814V54.235C23.054 54.1026 19.1429 53.0486 15.6338 51.1699L18.269 46.6057C20.9366 48.0065 23.9402 48.8502 27.125 48.9814ZM28.875 48.9814C32.0598 48.8502 35.0634 48.0065 37.731 46.6057L40.3662 51.1699C36.8571 53.0486 32.946 54.1026 28.875 54.235V48.9814ZM28 47.251C17.3855 47.251 8.75 38.6155 8.75 28.001C8.75 17.3865 17.3855 8.75098 28 8.75098C38.6145 8.75098 47.25 17.3865 47.25 28.001C47.25 38.6155 38.6145 47.251 28 47.251ZM1.76597 28.876H7.01958C7.15083 32.0608 7.99444 35.0644 9.39531 37.732L4.83109 40.3671C2.95247 36.8581 1.89842 32.947 1.76597 28.876ZM4.8312 15.6348L9.39542 18.27C7.99444 20.9375 7.15083 23.9412 7.01958 27.126H1.76597C1.89842 23.0549 2.95247 19.1439 4.8312 15.6348ZM28.875 7.02055V1.76695C32.946 1.8994 36.8571 2.95334 40.3662 4.83207L37.731 9.39629C35.0634 7.99541 32.0598 7.1518 28.875 7.02055ZM27.125 7.02055C23.9402 7.1518 20.9366 7.99541 18.269 9.39629L15.6338 4.83207C19.1429 2.95344 23.054 1.8994 27.125 1.76695V7.02055ZM48.9804 27.126C48.8492 23.9412 48.0056 20.9375 46.6047 18.27L51.1689 15.6348C53.0476 19.1439 54.1016 23.0549 54.2341 27.126H48.9804ZM50.2902 14.1214L45.7277 16.7555C44.0687 14.1494 41.8515 11.9323 39.2455 10.2733L41.8796 5.71079C43.5571 6.7598 45.1279 8.0058 46.5615 9.43938C47.9952 10.873 49.2412 12.4439 50.2902 14.1214ZM9.43841 9.43938C10.872 8.0058 12.4429 6.7597 14.1203 5.71079L16.7544 10.2733C14.1483 11.9323 11.9311 14.1495 10.2722 16.7555L5.7097 14.1214C6.75883 12.4439 8.00483 10.873 9.43841 9.43938ZM5.70981 41.8806L10.2723 39.2465C11.9313 41.8526 14.1485 44.0697 16.7545 45.7287L14.1204 50.2912C12.4429 49.2421 10.8721 47.9961 9.43852 46.5626C8.00483 45.129 6.75883 43.558 5.70981 41.8806ZM46.5616 46.5626C45.128 47.9961 43.5571 49.2423 41.8797 50.2912L39.2456 45.7287C41.8517 44.0697 44.0688 41.8524 45.7278 39.2465L50.2903 41.8806C49.2412 43.558 47.9952 45.129 46.5616 46.5626Z" fill="url(#paint0_linear_1467_6660)"/>
<path d="M39.6053 17.3522C39.7779 17.5402 40.0136 17.6354 40.25 17.6354C40.4615 17.6354 40.6735 17.5592 40.8415 17.405C41.1976 17.0782 41.2212 16.5246 40.8944 16.1687C40.5568 15.8011 40.1994 15.4437 39.8319 15.1064C39.476 14.7797 38.9224 14.8032 38.5956 15.1593C38.2688 15.5153 38.2926 16.0688 38.6486 16.3956C38.9794 16.6992 39.3013 17.0211 39.6053 17.3522Z" fill="url(#paint1_linear_1467_6660)"/>
<path d="M12.25 28.001C12.25 19.3164 19.3154 12.251 28 12.251C30.603 12.251 33.1819 12.899 35.458 14.125C35.8834 14.354 36.4141 14.1951 36.6432 13.7695C36.8724 13.3441 36.7132 12.8134 36.2878 12.5842C33.7576 11.2213 30.8918 10.501 28 10.501C18.3505 10.501 10.5 18.3515 10.5 28.001C10.5 32.0199 11.8963 35.9452 14.4317 39.054C14.6047 39.2661 14.8564 39.376 15.1104 39.376C15.3047 39.376 15.5004 39.3114 15.6628 39.179C16.0373 38.8736 16.0933 38.3224 15.788 37.9479C13.5064 35.1506 12.25 31.618 12.25 28.001Z" fill="url(#paint2_linear_1467_6660)"/>
<path d="M43.4153 19.7098C43.186 19.2843 42.6552 19.1254 42.2299 19.3547C41.8045 19.5839 41.6455 20.1146 41.8747 20.5401C43.1017 22.8167 43.7503 25.3967 43.7503 28.0009C43.7503 36.6855 36.6849 43.7509 28.0003 43.7509C24.3831 43.7509 20.8504 42.4944 18.0531 40.2127C17.6787 39.9073 17.1274 39.9633 16.8219 40.3378C16.5166 40.7123 16.5725 41.2635 16.9471 41.569C20.0558 44.1045 23.9812 45.5009 28.0003 45.5009C37.6498 45.5009 45.5003 37.6504 45.5003 28.0009C45.5003 25.1078 44.7793 22.2407 43.4153 19.7098Z" fill="url(#paint3_linear_1467_6660)"/>
<path d="M28 21.001C29.59 21.001 31.062 21.7591 31.4244 22.7654C31.4746 22.904 31.5 23.0463 31.5 23.1885C31.5 24.6359 32.6775 25.8135 34.125 25.8135C35.5725 25.8135 36.75 24.6359 36.75 23.1885C36.75 22.4388 36.62 21.6974 36.3632 20.9847C35.5022 18.5947 33.3622 16.8002 30.5701 16.0905C30.3221 14.8989 29.2639 14.001 28 14.001C26.7386 14.001 25.6822 14.8953 25.4314 16.0833C23.8049 16.5093 22.3374 17.3404 21.2469 18.4627C19.9592 19.7881 19.25 21.4664 19.25 23.1885C19.25 27.2895 23.1753 30.626 28 30.626C29.6521 30.626 31.5 31.5615 31.5 32.8135C31.5 34.0655 29.6521 35.001 28 35.001C26.3479 35.001 24.5 34.0655 24.5 32.8135C24.5 31.366 23.3225 30.1885 21.875 30.1885C20.4275 30.1885 19.25 31.366 19.25 32.8135C19.25 34.5356 19.9592 36.2138 21.2469 37.5392C22.3374 38.6616 23.8049 39.4927 25.4314 39.9187C25.6822 41.1066 26.7386 42.001 28 42.001C29.2614 42.001 30.3178 41.1066 30.5686 39.9187C32.1951 39.4927 33.6626 38.6615 34.7531 37.5392C36.0408 36.2138 36.75 34.5356 36.75 32.8135C36.75 28.7125 32.8247 25.376 28 25.376C26.3479 25.376 24.5 24.4405 24.5 23.1885C24.5 21.9365 26.3479 21.001 28 21.001ZM28 27.126C31.8598 27.126 35 29.6774 35 32.8135C35 35.4237 32.7234 37.7511 29.5866 38.3474C29.1738 38.4259 28.875 38.7868 28.875 39.207V39.376C28.875 39.8584 28.4825 40.251 28 40.251C27.5175 40.251 27.125 39.8584 27.125 39.376V39.207C27.125 38.7868 26.8263 38.4258 26.4134 38.3474C23.2766 37.7511 21 35.4237 21 32.8135C21 32.331 21.3925 31.9385 21.875 31.9385C22.3575 31.9385 22.75 32.331 22.75 32.8135C22.75 34.9847 25.1052 36.751 28 36.751C30.8948 36.751 33.25 34.9847 33.25 32.8135C33.25 30.6423 30.8948 28.876 28 28.876C24.1402 28.876 21 26.3246 21 23.1885C21 20.5782 23.2766 18.2509 26.4134 17.6545C26.8262 17.576 27.125 17.2152 27.125 16.795V16.626C27.125 16.1435 27.5175 15.751 28 15.751C28.4825 15.751 28.875 16.1435 28.875 16.626V16.8056C28.875 17.227 29.1753 17.5885 29.5895 17.6657C32.048 18.1242 34.0126 19.6232 34.7167 21.5777C34.9047 22.0995 35 22.6415 35 23.1885C35 23.6709 34.6075 24.0635 34.125 24.0635C33.6425 24.0635 33.25 23.6709 33.25 23.1885C33.25 22.8426 33.1894 22.5001 33.0705 22.1712C32.4511 20.4518 30.3661 19.251 28 19.251C25.1052 19.251 22.75 21.0173 22.75 23.1885C22.75 25.3597 25.1052 27.126 28 27.126Z" fill="url(#paint4_linear_1467_6660)"/>
</g>
<defs>
<linearGradient id="paint0_linear_1467_6660" x1="28" y1="0.000976562" x2="28" y2="56.001" gradientUnits="userSpaceOnUse">
<stop stop-color="#40FFD1"/>
<stop offset="1" stop-color="#00ADEF"/>
</linearGradient>
<linearGradient id="paint1_linear_1467_6660" x1="39.745" y1="14.876" x2="39.745" y2="17.6354" gradientUnits="userSpaceOnUse">
<stop stop-color="#40FFD1"/>
<stop offset="1" stop-color="#00ADEF"/>
</linearGradient>
<linearGradient id="paint2_linear_1467_6660" x1="23.624" y1="10.501" x2="23.624" y2="39.376" gradientUnits="userSpaceOnUse">
<stop stop-color="#40FFD1"/>
<stop offset="1" stop-color="#00ADEF"/>
</linearGradient>
<linearGradient id="paint3_linear_1467_6660" x1="31.0626" y1="19.2498" x2="31.0626" y2="45.5009" gradientUnits="userSpaceOnUse">
<stop stop-color="#40FFD1"/>
<stop offset="1" stop-color="#00ADEF"/>
</linearGradient>
<linearGradient id="paint4_linear_1467_6660" x1="28" y1="14.001" x2="28" y2="42.001" gradientUnits="userSpaceOnUse">
<stop stop-color="#40FFD1"/>
<stop offset="1" stop-color="#00ADEF"/>
</linearGradient>
<clipPath id="clip0_1467_6660">
<rect width="56" height="56" fill="white"/>
</clipPath>
</defs>
</svg>
