<svg width="20" height="24" viewBox="0 0 20 24" fill="none" xmlns="http://www.w3.org/2000/svg">
<g clip-path="url(#clip0_1632_2500)">
<path d="M14.3501 21.9141L17.9798 18.1641H14.3501V21.9141ZM16.2594 1.79688C16.2594 2.12695 15.9869 2.39258 15.6528 2.39258C15.3167 2.39258 15.0462 2.125 15.0462 1.79688V1.19336H1.21567V19.209H1.81432C2.15044 19.209 2.42092 19.4766 2.42092 19.8047C2.42092 20.1348 2.14845 20.4004 1.81432 20.4004H1.09037C0.790055 20.4004 0.517581 20.2812 0.320683 20.0859L0.322672 20.084C0.123786 19.8887 0.00246549 19.6211 0.00246549 19.3281V1.07031C0.000476627 0.775391 0.121797 0.507813 0.320683 0.314453C0.517581 0.119141 0.790055 0 1.09037 0H15.1695C15.4679 0 15.7403 0.121094 15.9372 0.314453L15.9392 0.316406C16.1361 0.509766 16.2594 0.777344 16.2594 1.07031V1.79688ZM20.0005 17.6855C20.0005 17.959 19.8135 18.1895 19.5589 18.2598L14.2129 23.7813C14.1015 23.9141 13.9325 23.998 13.7435 23.998C13.7316 23.998 13.7196 23.998 13.7057 23.9961C13.6938 23.9961 13.6819 23.998 13.6699 23.998H4.83142C4.53111 23.998 4.25863 23.8789 4.06173 23.6836L4.06372 23.6816L4.06173 23.6797C3.86484 23.4863 3.74153 23.2188 3.74153 22.9258V4.66406C3.74153 4.36914 3.86484 4.10156 4.06173 3.9082L4.06372 3.91016C4.26261 3.7168 4.53508 3.5957 4.83142 3.5957H18.9106C19.2089 3.5957 19.4814 3.7168 19.6783 3.91016L19.6803 3.91211C19.8772 4.10547 20.0005 4.37305 20.0005 4.66602V17.6855ZM18.7853 16.9727V4.79297H4.95672V22.8086H13.1369V17.5684C13.1369 17.2383 13.4094 16.9727 13.7435 16.9727H18.7853Z" fill="#E1E9FA"/>
</g>
<defs>
<clipPath id="clip0_1632_2500">
<rect width="20" height="24" fill="white"/>
</clipPath>
</defs>
</svg>
