<svg width="12" height="12" viewBox="0 0 12 12" fill="none" xmlns="http://www.w3.org/2000/svg">
<path d="M0.5 11.5C0.0660619 11.0661 0.0660617 10.3625 0.5 9.92857L9.92857 0.5C10.3625 0.0660625 11.0661 0.0660621 11.5 0.5C11.9339 0.933938 11.9339 1.63749 11.5 2.07143L2.07143 11.5C1.63749 11.9339 0.933938 11.9339 0.5 11.5Z" fill="#E1E9FA"/>
<path d="M11.5 11.5C11.0661 11.9339 10.3625 11.9339 9.92857 11.5L0.5 2.07143C0.0660621 1.63749 0.0660619 0.933938 0.5 0.5C0.933938 0.0660621 1.63749 0.0660623 2.07143 0.5L11.5 9.92857C11.9339 10.3625 11.9339 11.0661 11.5 11.5Z" fill="#E1E9FA"/>
</svg>
