<svg width="24" height="24" viewBox="0 0 24 24" fill="none" xmlns="http://www.w3.org/2000/svg">
<path d="M9.5 14C9.77539 14 10 14.2241 10 14.5C10 14.7764 10.2236 15 10.5 15C10.7764 15 11 14.7764 11 14.5C11 13.6729 10.3271 13 9.5 13C8.67285 13 8 13.6729 8 14.5V16.5C8 17.3271 8.67285 18 9.5 18C10.3271 18 11 17.3271 11 16.5C11 16.2236 10.7764 16 10.5 16C10.2236 16 10 16.2236 10 16.5C10 16.7759 9.77539 17 9.5 17C9.22461 17 9 16.7759 9 16.5V14.5C9 14.2241 9.22461 14 9.5 14Z" fill="#AFBCD2"/>
<path d="M14.5 13C14.2236 13 14 13.2236 14 13.5V15.8486L13.5 16.5986L13 15.8486V13.5C13 13.2236 12.7764 13 12.5 13C12.2236 13 12 13.2236 12 13.5V16C12 16.0986 12.0293 16.1953 12.084 16.2773L13.084 17.7773C13.1768 17.9165 13.333 18 13.5 18C13.667 18 13.8232 17.9165 13.916 17.7773L14.916 16.2773C14.9707 16.1953 15 16.0986 15 16V13.5C15 13.2236 14.7764 13 14.5 13Z" fill="#AFBCD2"/>
<path d="M18.5 13C18.2236 13 18 13.2236 18 13.5V15.8486L17.5 16.5986L17 15.8486V13.5C17 13.2236 16.7764 13 16.5 13C16.2236 13 16 13.2236 16 13.5V16C16 16.0986 16.0293 16.1953 16.084 16.2773L17.084 17.7773C17.1768 17.9165 17.333 18 17.5 18C17.667 18 17.8232 17.9165 17.916 17.7773L18.916 16.2773C18.9707 16.1953 19 16.0986 19 16V13.5C19 13.2236 18.7764 13 18.5 13Z" fill="#AFBCD2"/>
<path d="M22 3H2C0.897461 3 0 3.89697 0 5V19C0 20.103 0.897461 21 2 21H22C23.1025 21 24 20.103 24 19V5C24 3.89697 23.1025 3 22 3ZM1 7H23V9H1V7ZM2 4H22C22.5518 4 23 4.44873 23 5V6H1V5C1 4.44873 1.44824 4 2 4ZM22 20H2C1.44824 20 1 19.5513 1 19V10H23V19C23 19.5513 22.5518 20 22 20Z" fill="#AFBCD2"/>
</svg>
