<svg width="7" height="12" viewBox="0 0 7 12" fill="none" xmlns="http://www.w3.org/2000/svg">
<path d="M5.66768 6.69903C6.17202 6.69903 6.60263 6.33484 6.68633 5.8375L6.70002 5.75615C6.80679 5.12182 6.31783 4.54369 5.67458 4.54369C5.10027 4.54369 4.63471 4.07812 4.63471 3.50382V3.14563C4.63471 2.55584 4.95114 1.98058 5.96759 1.98058H6.01162C6.55749 1.98058 7 1.53807 7 0.992199C7 0.504966 6.64479 0.0902824 6.15942 0.0476597C5.85957 0.0213279 5.51099 0 5.16849 0C3.29866 0 2.07764 1.03251 2.07764 2.90097V3.50487C2.07764 4.07859 1.61254 4.54369 1.03882 4.54369C0.465095 4.54369 0 5.00878 0 5.58251V5.66021C0 6.23393 0.465095 6.69903 1.03882 6.69903C1.61254 6.69903 2.07764 7.16412 2.07764 7.73785V10.6269C2.07764 11.363 2.62005 12 3.35617 12C4.09229 12 4.63471 11.363 4.63471 10.6269V7.732C4.63471 7.16151 5.09719 6.69903 5.66768 6.69903Z" fill="white"/>
</svg>
