<svg width="11" height="19" viewBox="0 0 11 19" fill="none" xmlns="http://www.w3.org/2000/svg">
<path d="M11 0.865122C11 0.732557 10.9473 0.605422 10.8536 0.511685C10.7598 0.417947 10.6326 0.365286 10.5 0.365286H8C6.74112 0.302597 5.5086 0.740554 4.57172 1.58347C3.63485 2.42638 3.06978 3.60572 3 4.86381V7.56292H0.5C0.367392 7.56292 0.240215 7.61558 0.146447 7.70932C0.0526785 7.80306 0 7.93019 0 8.06276V10.6619C0 10.7945 0.0526785 10.9216 0.146447 11.0153C0.240215 11.1091 0.367392 11.1617 0.5 11.1617H3V17.8595C3 17.9921 3.05268 18.1192 3.14645 18.213C3.24021 18.3067 3.36739 18.3594 3.5 18.3594H6.5C6.63261 18.3594 6.75979 18.3067 6.85355 18.213C6.94732 18.1192 7 17.9921 7 17.8595V11.1617H9.62C9.73119 11.1633 9.83974 11.1278 9.92848 11.0608C10.0172 10.9939 10.0811 10.8992 10.11 10.7919L10.83 8.19271C10.8499 8.11886 10.8526 8.04143 10.8378 7.96638C10.8231 7.89133 10.7913 7.82067 10.7449 7.75983C10.6985 7.69899 10.6388 7.6496 10.5704 7.61546C10.5019 7.58133 10.4265 7.56335 10.35 7.56292H7V4.86381C7.02487 4.61637 7.14111 4.38708 7.32602 4.22071C7.51093 4.05435 7.75123 3.96286 8 3.9641H10.5C10.6326 3.9641 10.7598 3.91144 10.8536 3.8177C10.9473 3.72397 11 3.59683 11 3.46427V0.865122Z" fill="#6D84FE"/>
</svg>
