<svg width="19" height="19" viewBox="0 0 19 19" fill="none" xmlns="http://www.w3.org/2000/svg">
<path d="M6.95082 3.91636C6.53125 3.91636 6.19112 4.25649 6.19112 4.67606C6.19112 5.09562 6.53125 5.43575 6.95082 5.43575C7.37038 5.43575 7.71051 5.09562 7.71051 4.67606C7.71051 4.25649 7.37038 3.91636 6.95082 3.91636ZM4.80142 3.91636C5.11429 3.03117 5.95849 2.39697 6.95082 2.39697C7.94314 2.39697 8.78735 3.03117 9.10022 3.91636H14.5478C14.9673 3.91636 15.3075 4.25649 15.3075 4.67606C15.3075 5.09562 14.9673 5.43575 14.5478 5.43575H9.10022C8.78735 6.32094 7.94314 6.95514 6.95082 6.95514C5.95849 6.95514 5.11429 6.32094 4.80142 5.43575H3.91204C3.49247 5.43575 3.15234 5.09562 3.15234 4.67606C3.15234 4.25649 3.49247 3.91636 3.91204 3.91636H4.80142ZM11.509 8.47453C11.0894 8.47453 10.7493 8.81466 10.7493 9.23422C10.7493 9.65379 11.0894 9.99392 11.509 9.99392C11.9286 9.99392 12.2687 9.65379 12.2687 9.23422C12.2687 8.81466 11.9286 8.47453 11.509 8.47453ZM9.35958 8.47453C9.67245 7.58934 10.5167 6.95514 11.509 6.95514C12.5013 6.95514 13.3455 7.58934 13.6584 8.47453H14.5478C14.9673 8.47453 15.3075 8.81466 15.3075 9.23422C15.3075 9.65379 14.9673 9.99392 14.5478 9.99392H13.6584C13.3455 10.8791 12.5013 11.5133 11.509 11.5133C10.5167 11.5133 9.67245 10.8791 9.35958 9.99392H3.91204C3.49247 9.99392 3.15234 9.65379 3.15234 9.23422C3.15234 8.81466 3.49247 8.47453 3.91204 8.47453H9.35958ZM6.95082 13.0327C6.53125 13.0327 6.19112 13.3728 6.19112 13.7924C6.19112 14.212 6.53125 14.5521 6.95082 14.5521C7.37038 14.5521 7.71051 14.212 7.71051 13.7924C7.71051 13.3728 7.37038 13.0327 6.95082 13.0327ZM4.80142 13.0327C5.11429 12.1475 5.95849 11.5133 6.95082 11.5133C7.94314 11.5133 8.78735 12.1475 9.10022 13.0327H14.5478C14.9673 13.0327 15.3075 13.3728 15.3075 13.7924C15.3075 14.212 14.9673 14.5521 14.5478 14.5521H9.10022C8.78735 15.4373 7.94314 16.0715 6.95082 16.0715C5.95849 16.0715 5.11429 15.4373 4.80142 14.5521H3.91204C3.49247 14.5521 3.15234 14.212 3.15234 13.7924C3.15234 13.3728 3.49247 13.0327 3.91204 13.0327H4.80142Z" fill="white"/>
</svg>
