<svg width="1001" height="420" viewBox="0 0 1001 420" fill="none" xmlns="http://www.w3.org/2000/svg">
<path d="M270.146 53V4.4H278.486V24.2H304.646V4.4H312.986V53H304.646V31.4H278.486V53H270.146ZM334.036 53.66C329.916 53.66 326.656 52.64 324.256 50.6C321.896 48.56 320.716 45.88 320.716 42.56C320.716 39.08 321.916 36.38 324.316 34.46C326.716 32.54 330.156 31.58 334.636 31.58H346.036V30.08C346.036 25.28 343.316 22.88 337.876 22.88C333.276 22.88 330.516 24.54 329.596 27.86H321.436C322.116 24.14 323.876 21.28 326.716 19.28C329.596 17.28 333.336 16.28 337.936 16.28C343.096 16.28 347.036 17.48 349.756 19.88C352.476 22.24 353.836 25.68 353.836 30.2V44.78H357.736V53H349.276V47.3H346.756C345.516 49.3 343.836 50.86 341.716 51.98C339.596 53.1 337.036 53.66 334.036 53.66ZM335.236 47.3C337.276 47.3 339.116 46.9 340.756 46.1C342.396 45.3 343.676 44.24 344.596 42.92C345.556 41.56 346.036 40.06 346.036 38.42V37.28H335.056C330.656 37.28 328.456 38.92 328.456 42.2C328.456 43.8 329.056 45.06 330.256 45.98C331.456 46.86 333.116 47.3 335.236 47.3ZM365.335 53V25.22H361.195V17H369.715V22.7H372.235C373.515 20.66 375.215 19.1 377.335 18.02C379.495 16.9 382.095 16.34 385.135 16.34C389.935 16.34 393.675 17.7 396.355 20.42C399.075 23.1 400.435 26.7 400.435 31.22V53H392.275V32.66C392.275 29.7 391.475 27.44 389.875 25.88C388.315 24.32 385.995 23.54 382.915 23.54C379.835 23.54 377.495 24.32 375.895 25.88C374.295 27.44 373.495 29.7 373.495 32.66V53H365.335ZM424.189 53.72C420.549 53.72 417.449 52.96 414.889 51.44C412.329 49.88 410.389 47.7 409.069 44.9C407.749 42.1 407.089 38.8 407.089 35C407.089 31.2 407.729 27.9 409.009 25.1C410.329 22.26 412.209 20.08 414.649 18.56C417.129 17.04 420.069 16.28 423.469 16.28C426.269 16.28 428.669 16.82 430.669 17.9C432.669 18.94 434.209 20.44 435.289 22.4H435.529V2.6H443.689V44.78H447.769V53H439.309V47.3H436.789C435.549 49.38 433.869 50.98 431.749 52.1C429.669 53.18 427.149 53.72 424.189 53.72ZM425.569 46.7C428.609 46.7 431.029 45.84 432.829 44.12C434.629 42.4 435.529 40.08 435.529 37.16V32.84C435.529 29.92 434.629 27.6 432.829 25.88C431.029 24.16 428.609 23.3 425.569 23.3C422.249 23.3 419.689 24.34 417.889 26.42C416.129 28.5 415.249 31.36 415.249 35C415.249 38.64 416.129 41.5 417.889 43.58C419.689 45.66 422.249 46.7 425.569 46.7ZM460.331 51.14C458.851 51.14 457.591 50.62 456.551 49.58C455.551 48.54 455.051 47.28 455.051 45.8C455.051 44.32 455.551 43.06 456.551 42.02C457.591 40.98 458.851 40.46 460.331 40.46C461.811 40.46 463.071 40.98 464.111 42.02C465.151 43.06 465.671 44.32 465.671 45.8C465.671 47.28 465.151 48.54 464.111 49.58C463.071 50.62 461.811 51.14 460.331 51.14ZM460.331 29.54C458.851 29.54 457.591 29.02 456.551 27.98C455.551 26.94 455.051 25.68 455.051 24.2C455.051 22.72 455.551 21.46 456.551 20.42C457.591 19.38 458.851 18.86 460.331 18.86C461.811 18.86 463.071 19.38 464.111 20.42C465.151 21.46 465.671 22.72 465.671 24.2C465.671 25.68 465.151 26.94 464.111 27.98C463.071 29.02 461.811 29.54 460.331 29.54ZM508.649 53.72C502.729 53.72 498.229 51.6 495.149 47.36C492.109 43.08 490.589 36.86 490.589 28.7C490.589 20.54 492.109 14.34 495.149 10.1C498.229 5.82 502.729 3.68 508.649 3.68C514.569 3.68 519.049 5.82 522.089 10.1C525.169 14.34 526.709 20.54 526.709 28.7C526.709 36.86 525.169 43.08 522.089 47.36C519.049 51.6 514.569 53.72 508.649 53.72ZM508.649 46.76C512.049 46.76 514.569 45.28 516.209 42.32C517.849 39.32 518.669 34.78 518.669 28.7C518.669 22.58 517.849 18.04 516.209 15.08C514.569 12.12 512.049 10.64 508.649 10.64C505.289 10.64 502.769 12.12 501.089 15.08C499.449 18 498.629 22.54 498.629 28.7C498.629 34.86 499.449 39.42 501.089 42.38C502.769 45.3 505.289 46.76 508.649 46.76ZM535.543 53V46.4H548.143V13.46L534.703 22.64H534.463V14.48L549.343 4.4H556.303V46.4H567.043V53H535.543ZM573.837 53V47.36L593.877 27.92C596.317 25.6 597.957 23.74 598.797 22.34C599.677 20.9 600.117 19.4 600.117 17.84C600.117 15.56 599.357 13.78 597.837 12.5C596.317 11.18 594.217 10.52 591.537 10.52C585.657 10.52 582.377 13.5 581.697 19.46H573.837C574.157 14.5 575.877 10.64 578.997 7.88C582.157 5.08 586.357 3.68 591.597 3.68C594.997 3.68 597.937 4.26 600.417 5.42C602.897 6.58 604.817 8.2 606.177 10.28C607.537 12.36 608.217 14.82 608.217 17.66C608.217 20.02 607.557 22.32 606.237 24.56C604.917 26.8 602.817 29.3 599.937 32.06L585.417 45.74L585.477 45.98H608.937V53H573.837ZM632.591 53.72C627.151 53.72 622.871 52.52 619.751 50.12C616.671 47.72 614.931 44.32 614.531 39.92H622.631C622.871 42.16 623.831 43.88 625.511 45.08C627.191 46.28 629.511 46.88 632.471 46.88C635.631 46.88 638.111 46.16 639.911 44.72C641.711 43.28 642.611 41.3 642.611 38.78C642.611 36.38 641.751 34.48 640.031 33.08C638.311 31.68 636.031 30.98 633.191 30.98H625.571V24.5H633.491C635.891 24.5 637.811 23.88 639.251 22.64C640.731 21.36 641.471 19.66 641.471 17.54C641.471 15.38 640.671 13.66 639.071 12.38C637.511 11.06 635.391 10.4 632.711 10.4C630.031 10.4 627.871 11 626.231 12.2C624.631 13.4 623.611 15.18 623.171 17.54H615.371C615.571 14.74 616.431 12.3 617.951 10.22C619.471 8.1 621.511 6.48 624.071 5.36C626.671 4.24 629.671 3.68 633.071 3.68C636.351 3.68 639.211 4.22 641.651 5.3C644.131 6.34 646.031 7.82 647.351 9.74C648.711 11.66 649.391 13.9 649.391 16.46C649.391 18.82 648.711 20.92 647.351 22.76C645.991 24.6 644.051 26.04 641.531 27.08V27.38C644.451 28.22 646.711 29.66 648.311 31.7C649.911 33.74 650.711 36.22 650.711 39.14C650.711 42.1 649.951 44.68 648.431 46.88C646.951 49.04 644.851 50.72 642.131 51.92C639.451 53.12 636.271 53.72 632.591 53.72ZM679.405 53V41.84H654.445V36.26L679.825 4.4H687.385V35.36H694.165V41.84H687.385V53H679.405ZM663.265 35.36H679.705V15.02H679.465L663.265 35.36ZM715.24 53.72C709.96 53.72 705.74 52.5 702.58 50.06C699.46 47.62 697.72 44.24 697.36 39.92H705.46C705.66 42.12 706.64 43.84 708.4 45.08C710.2 46.28 712.54 46.88 715.42 46.88C718.74 46.88 721.26 46.02 722.98 44.3C724.7 42.58 725.56 40.24 725.56 37.28C725.56 34.2 724.64 31.84 722.8 30.2C721 28.52 718.56 27.68 715.48 27.68C713.52 27.68 711.72 28.02 710.08 28.7C708.44 29.38 707.14 30.34 706.18 31.58H699.1L702.52 4.4H730.78V11.42H709.12L707.56 23.9H707.86C710.22 22.02 713.34 21.08 717.22 21.08C722.18 21.08 726.14 22.48 729.1 25.28C732.06 28.08 733.54 31.96 733.54 36.92C733.54 42.04 731.94 46.12 728.74 49.16C725.58 52.2 721.08 53.72 715.24 53.72Z" fill="white"/>
<path d="M352.591 388.583C349.147 388.583 346.147 387.875 343.591 386.458C341.036 385.014 339.049 382.986 337.633 380.375C336.244 377.736 335.549 374.667 335.549 371.167C335.549 367.611 336.244 364.542 337.633 361.958C339.049 359.347 341.036 357.333 343.591 355.917C346.147 354.472 349.147 353.75 352.591 353.75C355.258 353.75 357.633 354.208 359.716 355.125C361.799 356.014 363.508 357.306 364.841 359C366.174 360.667 367.049 362.694 367.466 365.083H361.508C361.119 363.083 360.133 361.542 358.549 360.458C356.994 359.375 355.008 358.833 352.591 358.833C349.091 358.833 346.327 359.931 344.299 362.125C342.299 364.319 341.299 367.333 341.299 371.167C341.299 375 342.299 378.014 344.299 380.208C346.327 382.403 349.091 383.5 352.591 383.5C355.008 383.5 356.994 382.958 358.549 381.875C360.133 380.764 361.119 379.222 361.508 377.25H367.466C367.049 379.611 366.174 381.639 364.841 383.333C363.508 385.028 361.799 386.333 359.716 387.25C357.633 388.139 355.258 388.583 352.591 388.583ZM371.614 388V353H377.281V388H371.614ZM383.87 388V363H389.536V388H383.87ZM386.703 360C385.814 360 385.05 359.694 384.411 359.083C383.773 358.444 383.453 357.667 383.453 356.75C383.453 355.861 383.759 355.097 384.37 354.458C385.009 353.819 385.786 353.5 386.703 353.5C387.592 353.5 388.356 353.819 388.995 354.458C389.634 355.069 389.953 355.833 389.953 356.75C389.953 357.639 389.634 358.403 388.995 359.042C388.384 359.681 387.62 360 386.703 360ZM407.334 388.5C404.778 388.5 402.542 387.972 400.626 386.917C398.709 385.833 397.209 384.319 396.126 382.375C395.07 380.431 394.542 378.139 394.542 375.5C394.542 372.861 395.07 370.569 396.126 368.625C397.181 366.681 398.667 365.181 400.584 364.125C402.501 363.042 404.751 362.5 407.334 362.5C410.501 362.5 413.126 363.292 415.209 364.875C417.292 366.458 418.64 368.681 419.251 371.542H413.542C413.126 370.181 412.39 369.153 411.334 368.458C410.306 367.764 408.973 367.417 407.334 367.417C405.14 367.417 403.403 368.125 402.126 369.542C400.848 370.958 400.209 372.944 400.209 375.5C400.209 378.056 400.848 380.042 402.126 381.458C403.403 382.875 405.14 383.583 407.334 383.583C410.778 383.583 412.89 382.069 413.667 379.042H419.376C418.82 382.069 417.501 384.403 415.417 386.042C413.334 387.681 410.64 388.5 407.334 388.5ZM423.017 388V353H428.684V373.25H428.85L439.892 363H446.725L435.642 373L447.642 388H440.892L431.725 376.458L428.684 378.958V388H423.017ZM478.606 388H472.856V359.25H461.314V354.25H490.148V359.25H478.606V388ZM501.766 388.5C499.127 388.5 496.822 387.972 494.85 386.917C492.905 385.833 491.391 384.319 490.308 382.375C489.225 380.431 488.683 378.139 488.683 375.5C488.683 372.861 489.211 370.569 490.266 368.625C491.35 366.681 492.877 365.181 494.85 364.125C496.822 363.042 499.141 362.5 501.808 362.5C504.502 362.5 506.822 363.028 508.766 364.083C510.711 365.139 512.211 366.639 513.266 368.583C514.322 370.528 514.85 372.833 514.85 375.5C514.85 378.139 514.322 380.444 513.266 382.417C512.211 384.361 510.697 385.861 508.725 386.917C506.78 387.972 504.461 388.5 501.766 388.5ZM501.766 383.583C504.127 383.583 505.947 382.861 507.225 381.417C508.53 379.972 509.183 378 509.183 375.5C509.183 372.944 508.53 370.958 507.225 369.542C505.947 368.125 504.127 367.417 501.766 367.417C499.433 367.417 497.613 368.139 496.308 369.583C495.002 371 494.35 372.972 494.35 375.5C494.35 378 495.002 379.972 496.308 381.417C497.613 382.861 499.433 383.583 501.766 383.583ZM542.924 388L529.174 354.25H535.507L546.34 381.667H546.549L557.34 354.25H563.507L549.757 388H542.924ZM574.974 388.5C572.335 388.5 570.03 387.972 568.057 386.917C566.113 385.833 564.613 384.306 563.557 382.333C562.502 380.361 561.974 378.056 561.974 375.417C561.974 372.778 562.488 370.5 563.516 368.583C564.571 366.639 566.057 365.139 567.974 364.083C569.891 363.028 572.155 362.5 574.766 362.5C577.266 362.5 579.418 363 581.224 364C583.03 364.972 584.418 366.375 585.391 368.208C586.391 370.014 586.891 372.167 586.891 374.667V376.75H567.391C567.613 379.028 568.377 380.792 569.682 382.042C570.988 383.264 572.738 383.875 574.932 383.875C576.543 383.875 577.863 383.569 578.891 382.958C579.918 382.347 580.627 381.431 581.016 380.208H586.766C586.155 382.819 584.807 384.861 582.724 386.333C580.668 387.778 578.085 388.5 574.974 388.5ZM567.557 372.792H581.474C581.252 370.958 580.557 369.556 579.391 368.583C578.224 367.583 576.682 367.083 574.766 367.083C572.849 367.083 571.266 367.583 570.016 368.583C568.766 369.556 567.946 370.958 567.557 372.792ZM593.503 388V368.708H590.628V363H596.544V367.792H598.294C598.961 366.153 600.016 364.903 601.461 364.042C602.933 363.181 604.614 362.75 606.503 362.75H608.586V367.625H606.253C603.891 367.625 602.1 368.306 600.878 369.667C599.683 371.028 599.086 372.847 599.086 375.125V388H593.503ZM612.874 388V363H618.54V388H612.874ZM615.707 360C614.818 360 614.054 359.694 613.415 359.083C612.776 358.444 612.457 357.667 612.457 356.75C612.457 355.861 612.763 355.097 613.374 354.458C614.013 353.819 614.79 353.5 615.707 353.5C616.596 353.5 617.36 353.819 617.999 354.458C618.638 355.069 618.957 355.833 618.957 356.75C618.957 357.639 618.638 358.403 617.999 359.042C617.388 359.681 616.624 360 615.707 360ZM627.38 388V367.417H622.588V363H627.463V357.792C627.463 356.181 627.893 354.986 628.755 354.208C629.643 353.403 630.866 353 632.421 353H639.463V357.417H633.005V363H638.963V367.417H633.046V388H627.38ZM642.917 398V393.458H648.709L651.001 387.958L640.001 363H645.917L653.792 381.333H654.001L661.584 363H667.251L656.584 388L654.292 393.417C653.681 394.861 653.015 395.986 652.292 396.792C651.598 397.597 650.445 398 648.834 398H642.917Z" fill="white" fill-opacity="0.5"/>
<path fill-rule="evenodd" clip-rule="evenodd" d="M420.43 136H581.142C587.981 136 593.572 141.596 593.572 148.43V271.311C593.572 278.145 587.981 283.741 581.142 283.741H420.43C413.586 283.741 408 278.145 408 271.311V148.43C407.995 141.591 413.591 136 420.43 136Z" fill="#08BB50"/>
<path fill-rule="evenodd" clip-rule="evenodd" d="M476.746 195.345L491.862 209.754L525.308 175.896C527.828 173.342 529.404 171.292 532.503 174.486L542.574 184.799C545.878 188.069 545.711 189.987 542.593 193.029L497.615 237.329C491.036 243.774 492.185 244.168 485.517 237.552L459.802 211.971C458.412 210.471 458.559 208.947 460.082 207.443L471.767 195.326C473.538 193.461 474.947 193.627 476.746 195.345Z" fill="white"/>
</svg>
