<svg width="100" height="100" viewBox="0 0 100 100" fill="none" xmlns="http://www.w3.org/2000/svg">
<path d="M85.3555 14.6611C75.9115 5.21738 63.3555 0.0166016 50 0.0166016C36.6445 0.0166016 24.0885 5.21738 14.6445 14.6611C5.20059 24.1049 0 36.6611 0 50.0166C0 63.3721 5.20078 75.9281 14.6445 85.3721C24.0883 94.816 36.6445 100.017 50 100.017C63.3555 100.017 75.9115 94.8158 85.3555 85.3721C94.7994 75.9283 100 63.3721 100 50.0166C100 36.6611 94.7992 24.1051 85.3555 14.6611ZM91.3729 72.099L83.2225 67.3934C85.7242 62.6297 87.2305 57.266 87.4648 51.5791H96.8463C96.61 58.8488 94.7277 65.8328 91.3729 72.099ZM48.4375 87.4816V96.8631C41.1678 96.6266 34.1838 94.7445 27.9176 91.3896L32.6232 83.2393C37.3867 85.7408 42.7504 87.2473 48.4375 87.4816ZM51.5625 87.4816C57.2496 87.2473 62.6133 85.7408 67.3768 83.2393L72.0824 91.3896C65.8162 94.7445 58.8322 96.6266 51.5625 96.8631V87.4816ZM50 84.3916C31.0455 84.3916 15.625 68.9711 15.625 50.0166C15.625 31.0621 31.0455 15.6416 50 15.6416C68.9545 15.6416 84.375 31.0621 84.375 50.0166C84.375 68.9711 68.9545 84.3916 50 84.3916ZM3.15352 51.5791H12.535C12.7693 57.2662 14.2758 62.6299 16.7773 67.3934L8.62695 72.099C5.27226 65.8328 3.39004 58.8488 3.15352 51.5791ZM8.62715 27.9342L16.7775 32.6398C14.2758 37.4033 12.7693 42.767 12.535 48.4541H3.15352C3.39004 41.1844 5.27227 34.2004 8.62715 27.9342ZM51.5625 12.5516V3.17012C58.8322 3.40664 65.8162 5.28867 72.0824 8.64355L67.3768 16.7939C62.6133 14.2924 57.2496 12.7859 51.5625 12.5516ZM48.4375 12.5516C42.7504 12.7859 37.3867 14.2924 32.6232 16.7939L27.9176 8.64355C34.1838 5.28887 41.1678 3.40664 48.4375 3.17012V12.5516ZM87.465 48.4541C87.2307 42.767 85.7242 37.4033 83.2227 32.6398L91.373 27.9342C94.7279 34.2004 96.61 41.1844 96.8465 48.4541H87.465ZM89.8039 25.2316L81.6566 29.9354C78.6941 25.2816 74.7348 21.3225 70.0813 18.36L74.785 10.2127C77.7805 12.0859 80.5855 14.3109 83.1455 16.8709C85.7057 19.4309 87.9307 22.2361 89.8039 25.2316ZM16.8543 16.8709C19.4143 14.3109 22.2195 12.0857 25.2148 10.2127L29.9186 18.36C25.2648 21.3225 21.3057 25.2818 18.3432 29.9354L10.1959 25.2316C12.0693 22.2361 14.2943 19.4309 16.8543 16.8709ZM10.1961 74.8016L18.3434 70.0979C21.3059 74.7516 25.2652 78.7107 29.9188 81.6732L25.215 89.8205C22.2195 87.9473 19.4145 85.7223 16.8545 83.1623C14.2943 80.6023 12.0693 77.7971 10.1961 74.8016ZM83.1457 83.1623C80.5857 85.7223 77.7805 87.9475 74.7852 89.8205L70.0814 81.6732C74.7352 78.7107 78.6945 74.7514 81.6568 70.0979L89.8041 74.8016C87.9307 77.7971 85.7057 80.6023 83.1457 83.1623Z" fill="url(#paint0_linear_1543_15060)"/>
<path d="M70.7222 31.0008C71.0304 31.3365 71.4513 31.5067 71.8735 31.5067C72.2511 31.5067 72.6298 31.3705 72.9298 31.0951C73.5655 30.5115 73.6077 29.5231 73.0241 28.8875C72.4214 28.2311 71.7831 27.5928 71.1269 26.9905C70.4913 26.4071 69.5028 26.4492 68.9192 27.085C68.3356 27.7207 68.378 28.709 69.0138 29.2926C69.6046 29.8348 70.1794 30.4096 70.7222 31.0008Z" fill="url(#paint1_linear_1543_15060)"/>
<path d="M21.875 50.0166C21.875 34.5084 34.4918 21.8916 50 21.8916C54.6482 21.8916 59.2533 23.0488 63.3178 25.2381C64.0775 25.6473 65.0252 25.3633 65.4344 24.6033C65.8435 23.8436 65.5594 22.8959 64.7996 22.4867C60.2814 20.0529 55.1639 18.7666 50 18.7666C32.7687 18.7666 18.75 32.7854 18.75 50.0166C18.75 57.1932 21.2434 64.2027 25.7709 69.7541C26.0799 70.1328 26.5293 70.3291 26.9828 70.3291C27.3299 70.3291 27.6793 70.2139 27.9693 69.9773C28.6381 69.432 28.7381 68.4477 28.1928 67.7789C24.1186 62.7838 21.875 56.4756 21.875 50.0166Z" fill="url(#paint2_linear_1543_15060)"/>
<path d="M77.5253 35.2122C77.1158 34.4524 76.1683 34.1686 75.4085 34.578C74.649 34.9874 74.365 35.935 74.7743 36.6948C76.9654 40.7602 78.1236 45.3672 78.1236 50.0176C78.1236 65.5258 65.5068 78.1426 49.9986 78.1426C43.5394 78.1426 37.231 75.8989 32.2357 71.8245C31.5671 71.2792 30.5829 71.379 30.0372 72.0479C29.4919 72.7167 29.5917 73.7008 30.2607 74.2463C35.812 78.7741 42.8216 81.2676 49.9986 81.2676C67.2298 81.2676 81.2486 67.2489 81.2486 50.0176C81.2486 44.8514 79.9611 39.7317 77.5253 35.2122Z" fill="url(#paint3_linear_1543_15060)"/>
<path d="M72.7941 48.7529C65.6879 43.5848 56.4318 34.3287 51.2637 27.2225C50.9697 26.8182 50.5 26.5791 50 26.5791C49.5 26.5791 49.0305 26.8184 48.7363 27.2225C43.5682 34.3287 34.3121 43.5848 27.2059 48.7529C26.8016 49.0469 26.5625 49.5166 26.5625 50.0166C26.5625 50.5166 26.8018 50.9861 27.2059 51.2803C34.3121 56.4484 43.5682 65.7045 48.7363 72.8107C49.0303 73.215 49.5 73.4541 50 73.4541C50.5 73.4541 50.9695 73.2148 51.2637 72.8107C56.4318 65.7045 65.6879 56.4484 72.7941 51.2803C73.1984 50.9863 73.4375 50.5166 73.4375 50.0166C73.4375 49.5166 73.1982 49.0471 72.7941 48.7529ZM50 69.2916C44.9133 62.7283 37.2883 55.1033 30.725 50.0166C37.2883 44.9299 44.9133 37.3049 50 30.7416C55.0867 37.3049 62.7117 44.9299 69.275 50.0166C62.7117 55.1033 55.0867 62.7283 50 69.2916Z" fill="url(#paint4_linear_1543_15060)"/>
<defs>
<linearGradient id="paint0_linear_1543_15060" x1="50" y1="0.0166016" x2="50" y2="100.017" gradientUnits="userSpaceOnUse">
<stop stop-color="#FD2A35"/>
<stop offset="1" stop-color="#FD2A83"/>
</linearGradient>
<linearGradient id="paint1_linear_1543_15060" x1="70.9717" y1="26.5791" x2="70.9717" y2="31.5067" gradientUnits="userSpaceOnUse">
<stop stop-color="#FD2A35"/>
<stop offset="1" stop-color="#FD2A83"/>
</linearGradient>
<linearGradient id="paint2_linear_1543_15060" x1="42.1857" y1="18.7666" x2="42.1857" y2="70.3291" gradientUnits="userSpaceOnUse">
<stop stop-color="#FD2A35"/>
<stop offset="1" stop-color="#FD2A83"/>
</linearGradient>
<linearGradient id="paint3_linear_1543_15060" x1="55.4671" y1="34.3906" x2="55.4671" y2="81.2676" gradientUnits="userSpaceOnUse">
<stop stop-color="#FD2A35"/>
<stop offset="1" stop-color="#FD2A83"/>
</linearGradient>
<linearGradient id="paint4_linear_1543_15060" x1="50" y1="26.5791" x2="50" y2="73.4541" gradientUnits="userSpaceOnUse">
<stop stop-color="#FD2A35"/>
<stop offset="1" stop-color="#FD2A83"/>
</linearGradient>
</defs>
</svg>
