<svg width="41" height="41" viewBox="0 0 41 41" fill="none" xmlns="http://www.w3.org/2000/svg">
<g clip-path="url(#clip0_1443_95021)">
<path d="M32.6269 8.16189C32.9551 8.49186 32.9551 9.02676 32.6269 9.35683L30.3172 11.6792C30.1531 11.8442 29.938 11.9267 29.723 11.9267C29.508 11.9267 29.293 11.8442 29.1288 11.6792C28.8007 11.3493 28.8007 10.8144 29.1288 10.4843L31.4385 8.16189C31.7667 7.83201 32.2987 7.83201 32.6269 8.16189ZM25.4431 13.4716C26.2114 13.0255 27.1128 12.8819 27.9802 13.0672C28.973 13.2794 29.8333 13.9077 30.3405 14.7909V14.7908C30.8193 15.6247 30.9465 16.596 30.6986 17.5261C30.4508 18.456 29.8576 19.2334 29.0282 19.7148C28.4652 20.0417 27.8495 20.1971 27.2417 20.1971C26.0018 20.1971 24.7944 19.5506 24.1312 18.3956C23.1429 16.6743 23.7315 14.4655 25.4431 13.4716ZM25.5866 17.5508C26.1116 18.465 27.2787 18.7794 28.1879 18.2516C28.6285 17.9958 28.9436 17.5828 29.0753 17.0887C29.207 16.5947 29.1394 16.0787 28.8851 15.6359C28.6155 15.1667 28.1585 14.8328 27.6309 14.7201C27.4997 14.692 27.3669 14.6782 27.2349 14.6782C26.9032 14.6782 26.5755 14.7655 26.2835 14.9349C25.3743 15.4629 25.0616 16.6364 25.5866 17.5508ZM40.2242 1.36808V40.0437C40.2242 40.5103 39.848 40.8886 39.3839 40.8886H0.918418C0.454296 40.8886 0.078125 40.5103 0.078125 40.0437V1.36808C0.078125 0.90142 0.454296 0.523193 0.918418 0.523193H39.3839C39.848 0.523193 40.2242 0.90142 40.2242 1.36808ZM1.75871 7.08147C4.25476 6.71206 6.23346 4.72255 6.60076 2.21296H1.75871V7.08147ZM6.60076 39.1988C6.23346 36.6892 4.25476 34.6998 1.75871 34.3303V39.1988H6.60076ZM38.5436 34.3303C36.0476 34.6998 34.069 36.6892 33.7016 39.1988H38.5436V34.3303ZM38.5436 8.78541C35.1199 8.39582 32.3945 5.6553 32.0069 2.21296H8.29545C7.90798 5.6553 5.18235 8.39573 1.75871 8.78541V32.6264C5.18235 33.016 7.90798 35.7566 8.29545 39.1989H32.0069C32.3944 35.7566 35.1199 33.0161 38.5436 32.6264V8.78541ZM38.5436 2.21296H33.7016C34.0691 4.72255 36.0476 6.71206 38.5436 7.08147V2.21296ZM23.7362 20.7058C23.7362 22.6934 22.128 24.3103 20.1513 24.3103C19.1369 24.3103 18.1656 23.8753 17.4865 23.1169C16.8931 22.4542 16.5663 21.5979 16.5663 20.7057C16.5663 18.7182 18.1745 17.1012 20.1513 17.1012C22.128 17.1014 23.7362 18.7183 23.7362 20.7058ZM22.0556 20.7058C22.0556 19.6501 21.2014 18.7911 20.1513 18.7911C19.1012 18.7911 18.2469 19.65 18.2469 20.7058C18.2469 21.1798 18.4203 21.6345 18.7354 21.9863C19.0964 22.3895 19.6125 22.6207 20.1513 22.6207C21.2013 22.6207 22.0556 21.7616 22.0556 20.7058ZM27.9803 28.3443C27.7331 28.3971 27.4831 28.4232 27.2343 28.4232C26.6099 28.4232 25.9928 28.259 25.4432 27.94C23.7315 26.9462 23.1428 24.7374 24.1312 23.0161C25.1196 21.2949 27.3163 20.7032 29.0282 21.6967C29.8576 22.1782 30.4507 22.9555 30.6986 23.8855C30.9465 24.8154 30.8193 25.7868 30.3405 26.6206C29.8331 27.504 28.9729 28.1323 27.9803 28.3443ZM29.0753 24.3228C28.9437 23.8288 28.6285 23.4158 28.1879 23.16C27.8888 22.9863 27.5618 22.9038 27.2389 22.9038C26.5803 22.9038 25.9389 23.2472 25.5865 23.8608C25.0615 24.7751 25.3742 25.9486 26.2835 26.4764C26.6918 26.7134 27.1701 26.7897 27.631 26.6912C28.1585 26.5786 28.6156 26.2448 28.8852 25.7755C28.8852 25.7755 28.8852 25.7755 28.8852 25.7754C29.1394 25.3327 29.2069 24.8168 29.0753 24.3228ZM9.98528 29.7323L7.67559 32.0548C7.34741 32.3848 7.3475 32.9197 7.67559 33.2497C7.83964 33.4146 8.05475 33.4971 8.26977 33.4971C8.48479 33.4971 8.69991 33.4146 8.86395 33.2496L11.1736 30.9271C11.5018 30.5971 11.5017 30.0622 11.1736 29.7322C10.8456 29.4025 10.3135 29.4024 9.98528 29.7323ZM9.98528 11.6792C10.1494 11.8442 10.3644 11.9267 10.5795 11.9267C10.7945 11.9267 11.0096 11.8442 11.1736 11.6792C11.5018 11.3493 11.5018 10.8144 11.1736 10.4843L8.86405 8.16189C8.53586 7.8321 8.00396 7.83201 7.67568 8.16189C7.3475 8.49186 7.3475 9.02676 7.67568 9.35683L9.98528 11.6792ZM16.5296 25.7512C16.2817 26.6813 15.6884 27.4587 14.8591 27.94C14.3068 28.2606 13.6938 28.4244 13.0725 28.4244C12.7611 28.4244 12.4478 28.3832 12.1389 28.3001C11.2139 28.0508 10.4408 27.4543 9.96203 26.6205C9.48325 25.7867 9.35599 24.8154 9.60388 23.8854C9.85167 22.9554 10.4449 22.178 11.2742 21.6967C12.0428 21.2505 12.9439 21.1071 13.8112 21.2924C14.8039 21.5046 15.6642 22.1328 16.1714 23.0159C16.6503 23.8498 16.7774 24.8213 16.5296 25.7512ZM14.7161 23.8611C14.4467 23.392 13.9895 23.0581 13.4618 22.9454C13.3305 22.9172 13.1978 22.9034 13.0657 22.9034C12.7343 22.9034 12.4064 22.9907 12.1146 23.1602C11.674 23.416 11.3589 23.8289 11.2272 24.3229C11.0956 24.8169 11.1631 25.3329 11.4175 25.7758C11.6719 26.2188 12.0826 26.5357 12.5738 26.668C13.0653 26.8005 13.5784 26.7325 14.0188 26.4767C14.4594 26.2209 14.7746 25.808 14.9062 25.314C15.0379 24.8199 14.9704 24.304 14.7161 23.8611ZM17.4866 14.8918C16.8931 14.2291 16.5664 13.3728 16.5664 12.4806C16.5664 10.493 18.1746 8.87609 20.1514 8.87609C22.1281 8.87609 23.7363 10.4931 23.7363 12.4806C23.7363 14.4682 22.1281 16.0851 20.1514 16.0851C19.1369 16.0851 18.1656 15.6502 17.4866 14.8918ZM18.2469 12.4806C18.2469 12.9545 18.4203 13.4093 18.7354 13.7611C19.0964 14.1642 19.6125 14.3954 20.1513 14.3954C21.2013 14.3954 22.0556 13.5365 22.0556 12.4807C22.0556 11.4248 21.2014 10.566 20.1513 10.566C19.1012 10.5659 18.2469 11.4247 18.2469 12.4806ZM30.3172 29.7323C29.9889 29.4023 29.4569 29.4024 29.1288 29.7322C28.8006 30.0622 28.8006 30.5971 29.1287 30.9271L31.4384 33.2496C31.6026 33.4146 31.8176 33.4971 32.0326 33.4971C32.2476 33.4971 32.4627 33.4146 32.6267 33.2497C32.955 32.9197 32.955 32.3848 32.6268 32.0548L30.3172 29.7323ZM23.7362 28.9309C23.7362 30.9186 22.128 32.5355 20.1513 32.5355C19.1369 32.5355 18.1656 32.1005 17.4865 31.342C16.8931 30.6794 16.5663 29.823 16.5663 28.9308C16.5663 26.9433 18.1745 25.3264 20.1513 25.3264C22.128 25.3265 23.7362 26.9435 23.7362 28.9309ZM22.0556 28.9309C22.0556 27.8751 21.2014 27.0162 20.1513 27.0162C19.1012 27.0162 18.2469 27.8751 18.2469 28.9309C18.2469 29.4049 18.4203 29.8596 18.7354 30.2115C19.0964 30.6146 19.6125 30.8458 20.1513 30.8458C21.2013 30.8458 22.0556 29.9867 22.0556 28.9309ZM12.1389 13.1115C13.0638 12.8624 14.0299 12.9901 14.8591 13.4716C16.5709 14.4654 17.1597 16.6742 16.1715 18.3955C15.6643 19.2787 14.804 19.907 13.8112 20.1191C13.564 20.1719 13.3139 20.1981 13.065 20.1981C12.4408 20.1981 11.8237 20.0337 11.2742 19.7147C10.445 19.2334 9.85176 18.4561 9.60388 17.5261C9.35599 16.5961 9.48325 15.6247 9.96203 14.7909C10.4409 13.9571 11.214 13.3606 12.1389 13.1115ZM11.2272 17.0887C11.3589 17.5827 11.674 17.9956 12.1145 18.2514C12.5228 18.4884 13.0012 18.5648 13.4617 18.4663C13.9894 18.3535 14.4465 18.0198 14.716 17.5507C15.241 16.6363 14.9282 15.4629 14.0188 14.9349C13.7254 14.7647 13.3998 14.6776 13.0698 14.6776C12.9044 14.6776 12.7379 14.6995 12.5738 14.7437C12.0824 14.8761 11.6717 15.1929 11.4174 15.6358C11.1632 16.0787 11.0956 16.5947 11.2272 17.0887Z" fill="#FD2A35"/>
</g>
<defs>
<clipPath id="clip0_1443_95021">
<rect width="40.146" height="40.3654" fill="white" transform="translate(0.078125 0.522461)"/>
</clipPath>
</defs>
</svg>
