<svg width="15" height="16" viewBox="0 0 15 16" fill="none" xmlns="http://www.w3.org/2000/svg">
<path d="M14.0633 8.15546C14.0633 7.57991 14.0187 7.15991 13.922 6.72437H7.63477V9.32211H11.3252C11.2508 9.96769 10.849 10.9399 9.95617 11.5932L9.94366 11.6802L11.9316 13.29L12.0693 13.3044C13.3341 12.0832 14.0633 10.2866 14.0633 8.15546" fill="#4285F4"/>
<path d="M7.63448 14.9999C9.44248 14.9999 10.9603 14.3776 12.069 13.3043L9.95588 11.5931C9.39042 12.0054 8.63148 12.2932 7.63448 12.2932C5.86366 12.2932 4.36071 11.0721 3.82494 9.38428L3.74641 9.39125L1.67938 11.0635L1.65234 11.142C2.75352 13.4287 5.01542 14.9999 7.63448 14.9999Z" fill="#34A853"/>
<path d="M3.82437 9.38448C3.68301 8.94893 3.60119 8.48223 3.60119 8.00003C3.60119 7.51778 3.68301 7.05113 3.81693 6.61558L3.81319 6.52282L1.72025 4.82373L1.65177 4.85778C1.19792 5.80668 0.9375 6.87226 0.9375 8.00003C0.9375 9.12781 1.19792 10.1933 1.65177 11.1422L3.82437 9.38448" fill="#FBBC05"/>
<path d="M7.63451 3.70665C8.89194 3.70665 9.74014 4.27442 10.2238 4.7489L12.1137 2.82C10.953 1.69223 9.44253 1 7.63451 1C5.01544 1 2.75352 2.5711 1.65234 4.85775L3.81752 6.61555C4.36072 4.92777 5.86369 3.70665 7.63451 3.70665" fill="#EB4335"/>
</svg>
