<svg width="16" height="16" viewBox="0 0 16 16" fill="none" xmlns="http://www.w3.org/2000/svg">
<circle cx="8" cy="8" r="8" fill="#E1E9FA"/>
<path d="M8.0143 4.644C7.5983 4.644 7.2623 4.532 7.0063 4.308C6.7583 4.076 6.6343 3.788 6.6343 3.444C6.6343 3.092 6.7583 2.8 7.0063 2.568C7.2623 2.336 7.5983 2.22 8.0143 2.22C8.4223 2.22 8.7503 2.336 8.9983 2.568C9.2543 2.8 9.3823 3.092 9.3823 3.444C9.3823 3.788 9.2543 4.076 8.9983 4.308C8.7503 4.532 8.4223 4.644 8.0143 4.644ZM9.1783 5.268V12H6.8263V5.268H9.1783Z" fill="#222222"/>
</svg>
