<svg width="16" height="17" viewBox="0 0 16 17" fill="none" xmlns="http://www.w3.org/2000/svg">
<path d="M8 0.359375C10.1736 0.359375 10.4448 0.367375 11.2976 0.407375C12.1496 0.447375 12.7296 0.580975 13.24 0.779375C13.768 0.982575 14.2128 1.25778 14.6576 1.70177C15.0644 2.10169 15.3792 2.58545 15.58 3.11937C15.7776 3.62897 15.912 4.20977 15.952 5.06177C15.9896 5.91458 16 6.18578 16 8.35938C16 10.533 15.992 10.8042 15.952 11.657C15.912 12.509 15.7776 13.089 15.58 13.5994C15.3797 14.1336 15.0649 14.6175 14.6576 15.017C14.2576 15.4236 13.7738 15.7384 13.24 15.9394C12.7304 16.137 12.1496 16.2714 11.2976 16.3114C10.4448 16.349 10.1736 16.3594 8 16.3594C5.8264 16.3594 5.5552 16.3514 4.7024 16.3114C3.8504 16.2714 3.2704 16.137 2.76 15.9394C2.22586 15.739 1.74202 15.4241 1.3424 15.017C0.935525 14.6171 0.620745 14.1334 0.42 13.5994C0.2216 13.0898 0.088 12.509 0.048 11.657C0.0104 10.8042 0 10.533 0 8.35938C0 6.18578 0.00799995 5.91458 0.048 5.06177C0.088 4.20897 0.2216 3.62977 0.42 3.11937C0.620189 2.58512 0.935043 2.10123 1.3424 1.70177C1.74214 1.29476 2.22594 0.979958 2.76 0.779375C3.2704 0.580975 3.8496 0.447375 4.7024 0.407375C5.5552 0.369775 5.8264 0.359375 8 0.359375ZM8 4.35938C6.93913 4.35938 5.92172 4.7808 5.17157 5.53095C4.42143 6.28109 4 7.29851 4 8.35938C4 9.42024 4.42143 10.4377 5.17157 11.1878C5.92172 11.9379 6.93913 12.3594 8 12.3594C9.06087 12.3594 10.0783 11.9379 10.8284 11.1878C11.5786 10.4377 12 9.42024 12 8.35938C12 7.29851 11.5786 6.28109 10.8284 5.53095C10.0783 4.7808 9.06087 4.35938 8 4.35938ZM13.2 4.15937C13.2 3.89416 13.0946 3.6398 12.9071 3.45227C12.7196 3.26473 12.4652 3.15937 12.2 3.15937C11.9348 3.15937 11.6804 3.26473 11.4929 3.45227C11.3054 3.6398 11.2 3.89416 11.2 4.15937C11.2 4.42459 11.3054 4.67895 11.4929 4.86648C11.6804 5.05402 11.9348 5.15938 12.2 5.15938C12.4652 5.15938 12.7196 5.05402 12.9071 4.86648C13.0946 4.67895 13.2 4.42459 13.2 4.15937ZM8 5.95937C8.63652 5.95937 9.24697 6.21223 9.69706 6.66232C10.1471 7.11241 10.4 7.72286 10.4 8.35938C10.4 8.99589 10.1471 9.60634 9.69706 10.0564C9.24697 10.5065 8.63652 10.7594 8 10.7594C7.36348 10.7594 6.75303 10.5065 6.30294 10.0564C5.85286 9.60634 5.6 8.99589 5.6 8.35938C5.6 7.72286 5.85286 7.11241 6.30294 6.66232C6.75303 6.21223 7.36348 5.95937 8 5.95937Z" fill="#FFB774"/>
</svg>
