<svg width="14" height="250" viewBox="0 0 14 250" fill="none" xmlns="http://www.w3.org/2000/svg">
<path fill-rule="evenodd" clip-rule="evenodd" d="M0 25.1456V0H1.40001V25.1456V27.3526C1.40001 36.4838 2.40611 41.4822 3.93444 44.1865C4.68414 45.513 5.55038 46.2702 6.48224 46.7083C7.4282 47.153 8.49883 47.2961 9.70006 47.2961H12.7001C13.0867 47.2961 13.4001 47.6095 13.4001 47.9961C13.4001 48.3827 13.0867 48.6961 12.7001 48.6961H9.70006C8.40128 48.6961 7.0969 48.5442 5.88659 47.9752C4.66219 47.3996 3.59092 46.4241 2.71561 44.8753C2.21279 43.9856 1.77205 42.9017 1.40001 41.5849V125.708V127.921C1.40001 137.052 2.40611 142.05 3.93444 144.755C4.68414 146.081 5.55038 146.838 6.48224 147.276C7.4282 147.721 8.49883 147.864 9.70006 147.864H12.7001C13.0867 147.864 13.4001 148.178 13.4001 148.564C13.4001 148.951 13.0867 149.264 12.7001 149.264H9.70006C8.40128 149.264 7.0969 149.112 5.88659 148.543C4.66219 147.968 3.59092 146.992 2.71561 145.443C2.21279 144.554 1.77205 143.47 1.40001 142.153V228.483C1.40001 237.614 2.40611 242.612 3.93444 245.316C4.68414 246.643 5.55038 247.4 6.48224 247.838C7.4282 248.283 8.49883 248.426 9.70006 248.426H12.7001C13.0867 248.426 13.4001 248.739 13.4001 249.126C13.4001 249.513 13.0867 249.826 12.7001 249.826H9.70006C8.40128 249.826 7.0969 249.674 5.88659 249.105C4.66219 248.53 3.59092 247.554 2.71561 246.005C0.993912 242.959 0 237.636 0 228.483V127.921V125.708V27.3526V25.1456Z" fill="white" fill-opacity="0.16"/>
</svg>
