<svg width="41" height="41" viewBox="0 0 41 41" fill="none" xmlns="http://www.w3.org/2000/svg">
<g clip-path="url(#clip0_1443_94987)">
<path d="M18.3086 13.6863H15.5842C15.2129 13.6863 14.9121 13.9889 14.9121 14.3621C14.9121 14.7353 15.213 15.0378 15.5842 15.0378H18.3086C18.5589 15.0378 18.7624 15.2426 18.7624 15.494V17.1098C18.7624 17.4831 19.0632 17.7856 19.4344 17.7856C19.8057 17.7856 20.1064 17.483 20.1064 17.1098V15.494C20.1064 14.4973 19.2999 13.6863 18.3086 13.6863Z" fill="#FD2A35"/>
<path d="M24.6141 13.6863H22.3263C21.9551 13.6863 21.6543 13.9889 21.6543 14.3621C21.6543 14.7353 21.9551 15.0378 22.3263 15.0378H24.6141C24.9854 15.0378 25.2862 14.7352 25.2862 14.3621C25.2862 13.9889 24.9854 13.6863 24.6141 13.6863Z" fill="#FD2A35"/>
<path d="M21.2412 19.8232H18.9533C18.5821 19.8232 18.2812 20.1258 18.2812 20.499C18.2812 20.8723 18.5821 21.1748 18.9533 21.1748H21.2412C21.6125 21.1748 21.9133 20.8722 21.9133 20.499C21.9133 20.1258 21.6125 19.8232 21.2412 19.8232Z" fill="#FD2A35"/>
<path d="M32.6356 39.3473H31.9745V31.8858C31.9745 28.852 30.4835 26.0204 27.9863 24.3114C27.4288 23.9299 26.8373 23.6152 26.2184 23.3688C27.8917 21.8419 28.9449 19.742 29.1644 17.4744C30.3303 16.9364 31.1108 15.7453 31.1108 14.4291C31.1108 13.1307 30.3493 11.9514 29.2078 11.404V9.49257C29.2078 4.44225 25.1213 0.333496 20.0984 0.333496C15.0756 0.333496 10.989 4.44225 10.989 9.49265V11.4042C9.84763 11.9516 9.08635 13.1309 9.08635 14.4292C9.08635 15.7453 9.86676 16.9362 11.0326 17.4744C11.252 19.742 12.3052 21.8418 13.9786 23.3688C13.3597 23.6152 12.7682 23.9299 12.2107 24.3114C9.71402 26.02 8.22336 28.8516 8.22336 31.8858V39.3473H7.58416C7.21289 39.3473 6.91211 39.6499 6.91211 40.0231C6.91211 40.3964 7.21289 40.6989 7.58416 40.6989H32.6356C33.0069 40.6989 33.3077 40.3963 33.3077 40.0231C33.3077 39.65 33.0069 39.3473 32.6356 39.3473ZM29.2078 13.0453C29.5559 13.41 29.7667 13.9026 29.7667 14.4291C29.7667 14.9562 29.5559 15.4487 29.2078 15.8133V13.0453ZM10.989 15.8131C10.6411 15.4485 10.4305 14.9561 10.4305 14.4292C10.4305 13.9028 10.6412 13.4103 10.989 13.0456V15.8131ZM12.3334 9.49265C12.3333 5.18759 15.8167 1.68503 20.0985 1.68503C24.3803 1.68503 27.8637 5.18759 27.8637 9.49265V9.76386C25.2124 8.70994 24.7976 6.82538 24.7809 6.74347C24.7355 6.49671 24.5577 6.29551 24.3194 6.22109C24.0806 6.14658 23.8213 6.21107 23.6447 6.38862C20.6879 9.36162 16.3849 10.5749 12.3334 9.60247V9.49265ZM19.4265 27.2883L16.7273 26.2383C16.5205 26.1577 16.2877 26.1851 16.1048 26.3111C15.9221 26.437 15.8127 26.6456 15.8127 26.8685V30.8306C15.8127 31.0534 15.922 31.262 16.1048 31.388C16.2184 31.4662 16.3511 31.5064 16.4849 31.5064C16.5666 31.5064 16.6489 31.4913 16.7273 31.4609L19.4265 30.4107V39.3473H14.2561V32.3004C14.2561 31.9272 13.9552 31.6246 13.584 31.6246C13.2128 31.6246 12.9119 31.9272 12.9119 32.3004V39.3473H9.56771V31.8858H9.56755C9.56755 29.2993 10.8384 26.8853 12.967 25.4286C13.6783 24.9419 14.4545 24.5831 15.2763 24.3574C16.532 25.1468 17.9502 25.612 19.4265 25.7203V27.2883H19.4265ZM19.4264 28.7376V28.9615L17.1568 29.8445V27.8546L19.4264 28.7376ZM15.8782 23.1414C15.8426 23.1182 15.6305 22.9725 15.5878 22.9419C13.5469 21.4752 12.3332 19.1112 12.3332 16.5861V10.9873C16.4154 11.8633 20.6926 10.7631 23.8526 8.03595C24.3571 9.00298 25.4716 10.4043 27.8636 11.2015V16.586C27.8636 19.1182 26.6432 21.4883 24.5919 22.954C24.5548 22.9805 24.3577 23.1159 24.3217 23.1393C23.0642 23.9603 21.6069 24.3936 20.0984 24.3936C18.5897 24.3936 17.1321 23.9602 15.8782 23.1414ZM20.7706 28.7376L23.0403 27.8546V29.8445L20.7706 28.9615V28.7376ZM30.6303 39.3473H27.2852V32.3004C27.2852 31.9272 26.9843 31.6247 26.6132 31.6247C26.2419 31.6247 25.941 31.9273 25.941 32.3004V39.3473H20.7706V30.4107L23.4698 31.4609C23.5483 31.4914 23.6304 31.5064 23.7122 31.5064C23.846 31.5064 23.9788 31.4662 24.0923 31.388C24.275 31.262 24.3844 31.0535 24.3844 30.8306V26.8685C24.3844 26.6456 24.2751 26.4371 24.0923 26.3111C23.9093 26.1851 23.6765 26.1577 23.4698 26.2383L20.7706 27.2883V25.7204C22.247 25.6121 23.6651 25.1468 24.9207 24.3574C25.7423 24.5832 26.5187 24.9419 27.23 25.4287C29.3592 26.8857 30.6303 29.2997 30.6303 31.8859V39.3473Z" fill="#FD2A35"/>
<path d="M35.6854 39.3486H34.6368C34.2656 39.3486 33.9648 39.6512 33.9648 40.0244C33.9648 40.3976 34.2657 40.7002 34.6368 40.7002H35.6854C36.0567 40.7002 36.3575 40.3976 36.3575 40.0244C36.3574 39.6512 36.0566 39.3486 35.6854 39.3486Z" fill="#FD2A35"/>
<path d="M5.55862 39.3484H4.50997C4.13873 39.3484 3.83789 39.651 3.83789 40.0241C3.83789 40.3973 4.13873 40.6999 4.50997 40.6999H5.55862C5.92986 40.6999 6.23069 40.3973 6.23069 40.0241C6.23069 39.651 5.92986 39.3484 5.55862 39.3484Z" fill="#FD2A35"/>
<path d="M23.5607 16.9349C23.9319 16.9349 24.2328 16.6323 24.2328 16.2591C24.2328 15.8858 23.9319 15.5833 23.5607 15.5833C23.1896 15.5833 22.8887 15.8858 22.8887 16.2591C22.8887 16.6323 23.1896 16.9349 23.5607 16.9349Z" fill="#FD2A35"/>
<path d="M16.635 16.9349C17.0061 16.9349 17.307 16.6323 17.307 16.2591C17.307 15.8858 17.0061 15.5833 16.635 15.5833C16.2638 15.5833 15.9629 15.8858 15.9629 16.2591C15.9629 16.6323 16.2638 16.9349 16.635 16.9349Z" fill="#FD2A35"/>
</g>
<defs>
<clipPath id="clip0_1443_94987">
<rect width="40.146" height="40.3654" fill="white" transform="translate(0.0273438 0.333984)"/>
</clipPath>
</defs>
</svg>
