<svg width="24" height="24" viewBox="0 0 24 24" fill="none" xmlns="http://www.w3.org/2000/svg">
<g clip-path="url(#clip0_1413_86765)">
<path d="M10.9291 7.94629H9.30025C9.0783 7.94629 8.89844 8.1262 8.89844 8.3481C8.89844 8.57001 9.07834 8.74987 9.30025 8.74987H10.9291C11.0787 8.74987 11.2004 8.8716 11.2004 9.02113V9.98184C11.2004 10.2037 11.3802 10.3836 11.6022 10.3836C11.8241 10.3836 12.004 10.2037 12.004 9.98184V9.02113C12.004 8.42849 11.5217 7.94629 10.9291 7.94629Z" fill="white" fill-opacity="0.55"/>
<path d="M14.6993 7.94629H13.3315C13.1095 7.94629 12.9297 8.1262 12.9297 8.3481C12.9297 8.57001 13.1095 8.74987 13.3315 8.74987H14.6993C14.9212 8.74987 15.1011 8.56996 15.1011 8.3481C15.1011 8.12624 14.9212 7.94629 14.6993 7.94629Z" fill="white" fill-opacity="0.55"/>
<path d="M12.6837 11.5938H11.3159C11.0939 11.5938 10.9141 11.7737 10.9141 11.9956C10.9141 12.2175 11.0939 12.3973 11.3159 12.3973H12.6837C12.9057 12.3973 13.0855 12.2174 13.0855 11.9956C13.0855 11.7737 12.9057 11.5938 12.6837 11.5938Z" fill="white" fill-opacity="0.55"/>
<path d="M19.4951 23.2015H19.0999V18.7652C19.0999 16.9614 18.2086 15.2778 16.7157 14.2616C16.3824 14.0348 16.0288 13.8477 15.6588 13.7012C16.6592 12.7933 17.2888 11.5448 17.42 10.1966C18.117 9.87667 18.5836 9.16849 18.5836 8.38595C18.5836 7.61392 18.1284 6.91277 17.446 6.58731V5.45083C17.446 2.44806 15.003 0.00512695 12.0002 0.00512695C8.99744 0.00512695 6.55445 2.44806 6.55445 5.45088V6.58741C5.87209 6.91291 5.41698 7.61406 5.41698 8.386C5.41698 9.16849 5.88353 9.87658 6.58047 10.1965C6.71167 11.5448 7.3413 12.7933 8.34166 13.7012C7.97167 13.8477 7.61805 14.0348 7.28477 14.2616C5.79222 15.2775 4.90108 16.9611 4.90108 18.7652V23.2015H4.51895C4.297 23.2015 4.11719 23.3815 4.11719 23.6034C4.11719 23.8253 4.297 24.0051 4.51895 24.0051H19.4951C19.7171 24.0051 19.897 23.8252 19.897 23.6034C19.897 23.3815 19.7171 23.2015 19.4951 23.2015ZM17.446 7.56316C17.654 7.78 17.78 8.07292 17.78 8.38595C17.78 8.69931 17.654 8.99214 17.446 9.20894V7.56316ZM6.55445 9.2088C6.34642 8.99205 6.22056 8.69927 6.22056 8.386C6.22056 8.07302 6.34652 7.78019 6.55445 7.56335V9.2088ZM7.35812 5.45088C7.35808 2.89122 9.4405 0.808705 12.0002 0.808705C14.56 0.808705 16.6424 2.89122 16.6424 5.45088V5.61213C15.0574 4.9855 14.8094 3.865 14.7994 3.8163C14.7723 3.66958 14.666 3.54996 14.5236 3.50571C14.3808 3.46141 14.2258 3.49975 14.1202 3.60531C12.3526 5.37297 9.78016 6.09433 7.35812 5.51617V5.45088ZM11.5985 16.0316L9.98486 15.4073C9.86125 15.3594 9.72208 15.3757 9.61277 15.4506C9.5035 15.5255 9.43811 15.6495 9.43811 15.782V18.1377C9.43811 18.2703 9.50345 18.3942 9.61277 18.4692C9.68064 18.5157 9.76 18.5395 9.83997 18.5395C9.88881 18.5395 9.93798 18.5306 9.98486 18.5125L11.5985 17.8881V23.2015H8.50755V19.0117C8.50755 18.7898 8.32769 18.6099 8.10578 18.6099C7.88383 18.6099 7.70397 18.7898 7.70397 19.0117V23.2015H5.70475V18.7652H5.70466C5.70466 17.2273 6.46441 15.792 7.73692 14.9259C8.16213 14.6365 8.62614 14.4232 9.11744 14.289C9.86814 14.7583 10.7159 15.0349 11.5985 15.0993V16.0316H11.5985ZM11.5984 16.8933V17.0265L10.2416 17.5515V16.3683L11.5984 16.8933ZM9.47725 13.566C9.45597 13.5522 9.32922 13.4656 9.30367 13.4474C8.08356 12.5753 7.35803 11.1698 7.35803 9.66841V6.33953C9.79839 6.86041 12.3554 6.20627 14.2445 4.58477C14.5461 5.15974 15.2124 5.99294 16.6424 6.46689V9.66836C16.6424 11.1739 15.9128 12.5831 14.6865 13.4546C14.6643 13.4703 14.5465 13.5508 14.5249 13.5648C13.7732 14.0529 12.902 14.3105 12.0002 14.3105C11.0983 14.3105 10.2269 14.0528 9.47725 13.566ZM12.402 16.8933L13.7589 16.3683V17.5515L12.402 17.0265V16.8933ZM18.2963 23.2015H16.2966V19.0117C16.2966 18.7898 16.1167 18.6099 15.8948 18.6099C15.6729 18.6099 15.493 18.7898 15.493 19.0117V23.2015H12.402V17.8881L14.0157 18.5125C14.0626 18.5306 14.1117 18.5395 14.1606 18.5395C14.2405 18.5395 14.32 18.5156 14.3878 18.4692C14.497 18.3943 14.5624 18.2703 14.5624 18.1377V15.782C14.5624 15.6495 14.4971 15.5255 14.3878 15.4506C14.2784 15.3757 14.1392 15.3594 14.0157 15.4073L12.402 16.0316V15.0994C13.2846 15.035 14.1324 14.7584 14.883 14.289C15.3742 14.4233 15.8383 14.6365 16.2636 14.926C17.5365 15.7923 18.2963 17.2275 18.2963 18.7652V23.2015Z" fill="white" fill-opacity="0.55"/>
<path d="M21.3177 23.2017H20.6908C20.4689 23.2017 20.2891 23.3816 20.2891 23.6034C20.2891 23.8253 20.4689 24.0052 20.6908 24.0052H21.3177C21.5397 24.0052 21.7195 23.8253 21.7195 23.6034C21.7195 23.3816 21.5396 23.2017 21.3177 23.2017Z" fill="white" fill-opacity="0.55"/>
<path d="M3.31002 23.2017H2.68306C2.46111 23.2017 2.28125 23.3816 2.28125 23.6034C2.28125 23.8253 2.46111 24.0052 2.68306 24.0052H3.31002C3.53197 24.0052 3.71183 23.8253 3.71183 23.6034C3.71183 23.3816 3.53197 23.2017 3.31002 23.2017Z" fill="white" fill-opacity="0.55"/>
<path d="M14.0698 9.87687C14.2917 9.87687 14.4716 9.69697 14.4716 9.47505C14.4716 9.25314 14.2917 9.07324 14.0698 9.07324C13.8479 9.07324 13.668 9.25314 13.668 9.47505C13.668 9.69697 13.8479 9.87687 14.0698 9.87687Z" fill="white" fill-opacity="0.55"/>
<path d="M9.92916 9.87687C10.1511 9.87687 10.331 9.69697 10.331 9.47505C10.331 9.25314 10.1511 9.07324 9.92916 9.07324C9.70724 9.07324 9.52734 9.25314 9.52734 9.47505C9.52734 9.69697 9.70724 9.87687 9.92916 9.87687Z" fill="white" fill-opacity="0.55"/>
</g>
<defs>
<clipPath id="clip0_1413_86765">
<rect width="24" height="24" fill="white" transform="translate(0 0.00512695)"/>
</clipPath>
</defs>
</svg>
