<svg width="78" height="90" viewBox="0 0 78 90" fill="none" xmlns="http://www.w3.org/2000/svg">
<path d="M38.9999 16.7C43.4734 16.7 47.0999 13.0735 47.0999 8.6C47.0999 4.12649 43.4734 0.5 38.9999 0.5C34.5264 0.5 30.8999 4.12649 30.8999 8.6C30.8999 13.0735 34.5264 16.7 38.9999 16.7Z" fill="white"/>
<path d="M51.9999 59.6992V66.2992C63.9999 68.0992 70.2999 71.9992 71.5999 74.0992C69.7999 76.9992 58.6999 82.9992 38.9999 82.9992C19.2999 82.9992 8.1999 76.9992 6.3999 74.1992C7.7999 72.0992 14.0999 68.1992 26.0999 66.3992V59.7992C11.0999 61.8992 0.899902 67.5992 0.899902 74.1992C0.899902 82.6992 17.9999 89.5992 39.1999 89.5992C60.3999 89.5992 77.3999 82.6992 77.3999 74.1992C77.2999 67.4992 66.9999 61.8992 51.9999 59.6992Z" fill="white"/>
<path d="M44.9002 19.3008H33.1002C28.5002 19.3008 24.7002 23.0008 24.7002 27.7008V44.7008C24.7002 48.7008 27.5002 52.1008 31.5002 52.9008V71.4008C31.5002 74.8008 34.3002 77.6008 37.7002 77.6008H40.4002C43.8002 77.6008 46.6002 74.8008 46.6002 71.4008V52.8008C50.5002 52.0008 53.3002 48.6008 53.4002 44.6008V27.6008C53.2002 23.0008 49.5002 19.3008 44.9002 19.3008Z" fill="white"/>
</svg>
