<svg width="41" height="41" viewBox="0 0 41 41" fill="none" xmlns="http://www.w3.org/2000/svg">
<g clip-path="url(#clip0_1443_95013)">
<path d="M39.1341 3.1932C38.5463 2.78158 37.7937 2.37423 37.2659 2.10491C36.5462 1.73784 34.5431 0.785154 33.924 0.785154C32.5664 0.785154 31.3391 0.91508 30.1523 1.04067C27.7667 1.29327 25.3 1.55438 21.5003 0.797216C17.1525 -0.0692993 12.7808 0.975628 9.87903 2.00479C9.40536 2.17279 8.87452 2.03743 8.4591 1.6426C7.87722 1.08963 7.11884 0.785154 6.3236 0.785154H3.18719C1.45777 0.785154 0.0507812 2.19983 0.0507812 3.9387V17.1836C0.0507812 18.9225 1.45777 20.3371 3.18719 20.3371H6.3236C8.05302 20.3371 9.46001 18.9225 9.46001 17.1836C9.46001 16.2764 10.0926 15.4811 10.9316 15.3337C12.4228 15.0718 13.8119 15.5292 14.8261 15.8632L14.9106 15.891C15.8276 16.1924 17.005 16.2505 18.1253 16.2039C15.6584 18.222 13.834 21.4118 12.685 25.7265C11.5454 30.0061 11.3262 34.4257 11.343 37.3796C11.3508 38.7635 12.4759 39.8893 13.851 39.8893H25.1839C26.5341 39.8893 27.6331 38.824 27.6859 37.4641C27.9432 30.8399 29.6154 24.4677 32.6563 18.5247C35.1028 13.7434 37.7927 10.5195 39.1784 9.0234C39.8352 8.31416 40.1968 7.39033 40.1968 6.42196V4.56941C40.1968 4.12633 39.879 3.7148 39.1341 3.1932ZM38.9423 6.42196C38.9423 7.07025 38.7001 7.68874 38.2603 8.1635C36.8305 9.70732 34.0562 13.0312 31.5408 17.9474C28.4155 24.0554 26.6968 30.6051 26.4324 37.4147C26.406 38.0948 25.8576 38.6276 25.1839 38.6276H13.851C13.1637 38.6276 12.6014 38.0645 12.5975 37.3722C12.5812 34.4956 12.7934 30.1967 13.8969 26.0526C15.2857 20.8378 17.6801 17.4099 21.0138 15.8641C21.2984 15.7322 21.4427 15.409 21.3514 15.1075C21.3178 14.9966 21.1803 14.6663 20.7392 14.6663C20.6888 14.6663 20.6345 14.6706 20.5758 14.68C19.5044 14.8527 16.8454 15.1997 15.3005 14.6919L15.2167 14.6643C14.141 14.3101 12.5155 13.7745 10.7156 14.0911C9.26108 14.3467 8.20545 15.6473 8.20545 17.1836C8.20545 18.2269 7.36128 19.0757 6.3236 19.0757H3.18719C2.14951 19.0757 1.30535 18.2269 1.30535 17.1836V3.9387C1.30535 2.89543 2.14951 2.04657 3.18719 2.04657H6.3236C6.79704 2.04657 7.24939 2.22869 7.59738 2.55934C8.34996 3.27456 9.38427 3.51794 10.2964 3.19438C13.0503 2.21757 17.1871 1.22358 21.2564 2.03451C25.2423 2.82881 27.8052 2.55752 30.2837 2.29515C31.4858 2.1679 32.6214 2.04768 33.9055 2.04657C34.137 2.08252 35.1948 2.47474 36.5504 3.15512C38.1784 3.97213 38.797 4.48876 38.9423 4.6674V6.42196Z" fill="#FD2A35"/>
<path d="M28.904 4.96272C28.9219 4.96272 28.94 4.96193 28.9582 4.96036C29.4049 4.92196 29.8309 4.87836 30.2248 4.83697C30.5694 4.80087 30.8194 4.49064 30.7834 4.14414C30.7474 3.79772 30.4393 3.54568 30.0944 3.58241C29.7066 3.62317 29.2875 3.66598 28.8511 3.70359C28.506 3.73323 28.2501 4.03873 28.2797 4.38578C28.3077 4.71454 28.5818 4.96272 28.904 4.96272Z" fill="#FD2A35"/>
<path d="M8.74229 5.80649C8.98199 5.8415 9.22632 5.85924 9.46845 5.85924C10.0356 5.85924 10.595 5.76282 11.131 5.57274C12.8212 4.97325 15.4054 4.25873 18.1189 4.25873C19.0456 4.25873 19.9371 4.3427 20.7685 4.50841C22.7068 4.89472 24.5212 5.08252 26.3152 5.08252C26.6616 5.08252 26.9425 4.80012 26.9425 4.45181C26.9425 4.1035 26.6616 3.8211 26.3152 3.8211C24.604 3.8211 22.8695 3.64119 21.0124 3.27112C20.1008 3.08948 19.1273 2.99731 18.1188 2.99731C15.2279 2.99731 12.4962 3.75093 10.7136 4.38314C10.1398 4.5867 9.52302 4.64591 8.92256 4.55816C8.57959 4.50802 8.2614 4.74698 8.21169 5.09174C8.16182 5.43642 8.3994 5.75643 8.74229 5.80649Z" fill="#FD2A35"/>
<path d="M37.3928 5.05279C36.4036 4.43619 34.6206 3.5968 33.8547 3.34215C33.7883 3.32016 33.7189 3.30928 33.6488 3.31038C33.3213 3.31503 32.9892 3.32772 32.6336 3.34925C32.2878 3.37014 32.0243 3.66894 32.0451 4.01662C32.0659 4.36429 32.3634 4.62927 32.7089 4.60838C33.0056 4.5904 33.2845 4.57897 33.5578 4.57353C34.2135 4.80942 35.5554 5.44154 36.4348 5.94777V6.42245C36.4348 6.43113 36.432 6.43799 36.4258 6.44469C35.2152 7.75175 32.8302 10.5635 30.4583 14.7088C27.5428 19.8043 25.5695 25.2693 24.5932 30.9521C24.5343 31.2953 24.7632 31.6216 25.1046 31.6809C25.1407 31.6872 25.1766 31.6902 25.2121 31.6902C25.5117 31.6902 25.7768 31.4737 25.8295 31.1667C26.7806 25.6302 28.7038 20.3046 31.5457 15.3378C33.8554 11.3011 36.1699 8.57191 37.3438 7.30434C37.5667 7.06381 37.6894 6.75058 37.6894 6.42238V5.58889C37.6895 5.37059 37.5773 5.16782 37.3928 5.05279Z" fill="#FD2A35"/>
<path d="M24.9172 32.9546C24.5726 32.9137 24.2612 33.161 24.2207 33.5069C24.1198 34.3649 24.0411 35.2359 23.9858 36.1037H15.1147C15.1659 33.5601 15.4285 30.0491 16.3194 26.704C17.5061 22.2476 19.4386 19.3709 22.0631 18.154C23.3905 17.5385 24.1265 16.0498 23.8131 14.6141C23.4998 13.1785 22.2113 12.1364 20.7495 12.1364C20.4964 12.1364 20.3122 12.1661 20.1769 12.1878C18.9289 12.389 18.007 12.4312 17.4533 12.4312C16.546 12.4312 16.1493 12.3159 16.079 12.2928L15.996 12.2655C15.0352 11.949 13.5832 11.4709 11.8384 11.4709C11.3112 11.4709 10.7877 11.5159 10.2823 11.6048C7.82894 12.0358 5.99649 14.0674 5.72872 16.5516H3.81316V4.56746L6.30425 4.56415C6.65067 4.56368 6.93114 4.28096 6.93067 3.93258C6.9302 3.5845 6.64949 3.30273 6.30339 3.30273C6.30308 3.30273 6.30276 3.30273 6.30253 3.30273L3.18501 3.30691C2.83891 3.30739 2.55859 3.58963 2.55859 3.93762V17.1825C2.55859 17.5308 2.83946 17.8132 3.18588 17.8132H6.32229C6.6687 17.8132 6.94957 17.5308 6.94957 17.1825C6.94957 15.0319 8.44203 13.2088 10.4983 12.8475C10.9326 12.7712 11.3835 12.7325 11.8384 12.7325C13.3829 12.7325 14.7204 13.173 15.6059 13.4646L15.689 13.492C15.9173 13.567 16.45 13.6929 17.4533 13.6929C18.0525 13.6929 19.0459 13.6479 20.376 13.4335C20.4893 13.4153 20.5962 13.398 20.7495 13.398C21.6266 13.398 22.3997 14.0233 22.5877 14.8847C22.7757 15.7461 22.3342 16.6394 21.5378 17.0087C18.5586 18.39 16.3952 21.5422 15.1074 26.3779C14.1056 30.1399 13.8714 34.0837 13.8512 36.7298C13.85 36.8978 13.9155 37.0595 14.0333 37.1788C14.1511 37.2982 14.3113 37.3653 14.4785 37.3653H24.5778C24.9117 37.3653 25.1871 37.1023 25.2043 36.7671C25.2575 35.7301 25.3458 34.683 25.4665 33.6551C25.5072 33.309 25.2613 32.9954 24.9172 32.9546Z" fill="#FD2A35"/>
</g>
<defs>
<clipPath id="clip0_1443_95013">
<rect width="40.146" height="40.3654" fill="white" transform="translate(0.0527344)"/>
</clipPath>
</defs>
</svg>
