<svg width="40" height="41" viewBox="0 0 40 41" fill="none" xmlns="http://www.w3.org/2000/svg">
<path d="M37.7386 4.65278H27.7248L26.8495 2.10034C26.5823 1.02559 25.5134 0.421067 24.4446 0.689796L1.86452 5.8619C0.795681 6.19769 0.194446 7.27244 0.461635 8.34712L8.74544 39.5139C8.87908 40.0512 9.21304 40.4543 9.68072 40.7229C10.0148 40.9244 10.3487 40.9915 10.6828 40.9915C10.8164 40.9915 11.0168 40.9244 11.2172 40.9244L13.0481 40.4544C13.3953 40.7495 13.8492 40.9244 14.357 40.9244H37.7386C38.8743 40.9244 39.7428 40.0512 39.7428 38.9093V6.66792C39.7428 5.52603 38.8743 4.65278 37.7386 4.65278ZM10.8832 39.6482C10.6828 39.7154 10.4824 39.6482 10.3487 39.5811C10.1483 39.5139 10.0815 39.3796 10.0147 39.1781L1.73096 8.01133C1.66418 7.60831 1.8646 7.27244 2.19856 7.13816L24.7785 1.96614C24.8453 1.96614 24.9122 1.96614 24.9789 1.96614C25.2461 1.96614 25.5134 2.16764 25.7138 2.50351L26.4487 4.65294H14.4238H14.357C13.2214 4.65294 12.3529 5.52611 12.3529 6.668V38.9094C12.3529 39.0279 12.3628 39.1434 12.3809 39.2555L10.8832 39.6482ZM38.4067 38.9093C38.4067 39.3124 38.1395 39.581 37.7387 39.581H14.3571C14.1643 39.581 14.0028 39.5183 13.8867 39.4088L13.8227 39.3123C13.7559 39.1779 13.689 39.0436 13.689 38.9093V6.66792C13.689 6.54196 13.7151 6.42913 13.7632 6.33357C13.8691 6.12326 14.0815 5.99626 14.357 5.99626H28.1856H37.7386C38.1395 5.99626 38.4067 6.26491 38.4067 6.66792V38.9093H38.4067Z" fill="#FD2A35"/>
<path d="M24.3809 8.68268H35.7377V28.0947C35.7377 28.4977 36.0049 28.7663 36.4058 28.7663C36.8066 28.7663 37.0738 28.4977 37.0738 28.0947V8.01102C37.0738 7.608 36.8066 7.33936 36.4058 7.33936H24.3809C23.9801 7.33936 23.7129 7.608 23.7129 8.01102C23.7129 8.41403 23.9801 8.68268 24.3809 8.68268Z" fill="#FD2A35"/>
<path d="M29.0562 36.8938L16.3634 36.9609V17.4817C16.3634 17.0787 16.0962 16.8101 15.6954 16.8101C15.2945 16.8101 15.0273 17.0787 15.0273 17.4817V37.6326C15.0273 37.8341 15.0941 37.9685 15.2278 38.1028C15.3614 38.2371 15.4949 38.3043 15.6954 38.3043L29.0563 38.2371C29.4571 38.2371 29.7243 37.9685 29.7243 37.5655C29.7243 37.1624 29.457 36.8938 29.0562 36.8938Z" fill="#FD2A35"/>
<path d="M33.1973 27.4208C34.0657 26.5476 34.4666 25.4057 34.3997 24.1966C34.333 22.7861 33.5313 21.5098 32.1952 20.7038C31.5272 20.2336 30.9259 20.0321 30.2579 19.9649C30.5251 19.226 30.5919 18.3529 30.3915 17.4125C30.0575 15.6661 28.7213 14.2555 26.9844 13.9196C25.6483 13.5838 24.3122 13.9196 23.2434 14.7928C22.1745 15.666 21.5732 16.9422 21.5732 18.2856C21.5732 18.8902 21.64 19.4947 21.8404 19.9649C21.1724 19.9649 20.5711 20.2336 19.9031 20.6366C18.567 21.5097 17.7653 22.786 17.6986 24.1294C17.6318 25.2713 18.0326 26.4803 18.901 27.3536C19.7695 28.294 20.972 28.8313 22.2412 28.8313C22.5753 28.8313 22.8425 28.8313 23.1765 28.697L22.7089 30.1747C22.5753 30.4434 22.6421 30.7793 22.7757 31.0479C22.9093 31.3166 23.2433 31.5181 23.5774 31.5181H28.5209C28.855 31.5181 29.1222 31.3166 29.3894 31.1151C29.5898 30.8464 29.5898 30.5105 29.4561 30.2419L28.8549 28.7641C29.189 28.8313 29.5229 28.8985 29.857 28.8985C31.0595 28.8986 32.3288 28.3612 33.1973 27.4208ZM29.857 27.4879C29.3226 27.4879 28.6546 27.2864 28.1201 26.9506C27.8529 26.8162 27.5189 26.8162 27.2517 27.0177L26.8509 27.3536L27.9198 30.1747H24.0451L24.9804 27.8237C25.0472 27.5551 24.9804 27.2192 24.7132 27.0177L24.2456 26.7491L23.8448 27.0177C23.3103 27.3536 22.7759 27.5551 22.3083 27.5551C21.373 27.5551 20.5046 27.1521 19.9033 26.4803C19.3689 25.8087 19.0349 25.0026 19.1017 24.1965C19.1685 23.2562 19.7697 22.383 20.705 21.7785C21.5066 21.3083 22.1747 21.1739 22.9764 21.3755L24.9805 21.8456L23.6444 20.3007C23.2435 19.8305 23.0431 19.1588 23.0431 18.2856C23.0431 17.3452 23.444 16.4721 24.1788 15.8676C24.9137 15.263 25.849 15.0615 26.7842 15.263C27.9199 15.5317 28.9219 16.4721 29.1223 17.6811C29.256 18.42 29.256 19.4947 28.5879 20.3007L27.2518 21.8456L29.2559 21.3755C29.9908 21.1739 30.592 21.1739 31.5273 21.7785C32.5293 22.383 33.0638 23.2562 33.1306 24.1965C33.1306 25.0026 32.8634 25.8086 32.2621 26.4131C31.594 27.0849 30.7255 27.4879 29.857 27.4879Z" fill="#FD2A35"/>
<path d="M15.4219 13.9221C15.7559 14.1237 16.1567 13.9893 16.2902 13.6535L16.928 12.3711C16.9595 12.3748 16.9916 12.3773 17.025 12.3773H19.697C19.7305 12.3773 19.7626 12.3748 19.7941 12.3711L20.4318 13.6535C20.5655 13.9221 20.7658 14.0565 21.033 14.0565C21.1666 14.0565 21.2334 14.0565 21.4338 13.9221C21.701 13.7878 21.8346 13.3848 21.701 13.049L19.029 7.67537C18.8286 7.20522 18.027 7.20522 17.8266 7.67537L15.1546 13.049C14.9543 13.3848 15.088 13.7878 15.4219 13.9221ZM18.361 9.48893L19.1292 11.0338H17.5928L18.361 9.48893Z" fill="#FD2A35"/>
<path d="M36.7338 31.6548C36.3998 31.4533 35.999 31.5877 35.8655 31.9235L35.223 33.2155C35.1727 33.2054 35.1197 33.1997 35.0638 33.1997H32.3919C32.3472 33.1997 32.3046 33.2035 32.2634 33.21L31.5903 31.8563C31.4567 31.5876 31.0559 31.4533 30.7219 31.5876C30.4548 31.722 30.3211 32.125 30.4548 32.4608L33.1267 37.8344C33.1415 37.864 33.1573 37.8913 33.1736 37.9176C33.1755 37.9211 33.1774 37.9245 33.1794 37.9279C33.1798 37.9285 33.1803 37.9292 33.1807 37.9299C33.2093 37.9784 33.2451 38.0226 33.2873 38.0612C33.3461 38.1193 33.4121 38.1627 33.4853 38.1919C33.5448 38.2374 33.6106 38.2375 33.728 38.2375C33.7974 38.2375 33.8486 38.237 33.8913 38.2182C34.0781 38.1752 34.2245 38.0596 34.3293 37.9016L37.0013 32.528C37.2015 32.1922 37.0679 31.7892 36.7338 31.6548ZM33.7446 36.1888L32.9263 34.5432H34.5629L33.7446 36.1888Z" fill="#FD2A35"/>
<path d="M9.34416 26.1505C8.60936 23.3294 7.80778 20.5082 7.07297 17.7543C7.0062 17.4184 6.60541 17.2169 6.27139 17.2841C5.93738 17.3513 5.73698 17.7543 5.80383 18.0902C6.53864 20.8441 7.27345 23.6653 8.00817 26.4864C8.80975 29.3747 9.61133 32.263 10.3461 35.0841C10.4798 35.3527 10.7469 35.5542 11.0141 35.5542C11.0809 35.5542 11.1477 35.5542 11.2145 35.5542C11.5485 35.4871 11.7489 35.0841 11.682 34.7482C10.8805 31.8599 10.1457 29.0387 9.34416 26.1505Z" fill="#FD2A35"/>
<path d="M6.07277 14.0576L6.36158 12.6471C6.3884 12.6471 6.40679 12.6471 6.40679 12.6471L9.01192 11.9754C9.05959 11.9658 9.10416 11.9488 9.14594 11.9267L10.0139 12.9158C10.2811 13.1845 10.6818 13.2517 10.9491 12.9829C11.2163 12.7142 11.2831 12.3113 11.0159 12.0426L7.07474 7.54211C6.94112 7.34061 6.67395 7.27346 6.40679 7.34061C6.20639 7.40775 6.006 7.60925 5.93923 7.87798L4.73686 13.7889C4.67009 14.1919 4.93725 14.5278 5.27127 14.5949C5.33804 14.5949 5.33804 14.5949 5.4049 14.5949C5.67198 14.5949 6.006 14.3934 6.07277 14.0576ZM8.18129 10.8272L6.65358 11.2211L7.00797 9.49011L8.18129 10.8272Z" fill="#FD2A35"/>
</svg>
