<svg width="44" height="52" viewBox="0 0 44 52" fill="none" xmlns="http://www.w3.org/2000/svg">
<path fill-rule="evenodd" clip-rule="evenodd" d="M18.6177 8.36193V5.50473L16.3086 5.48698V1.68831C16.3086 0.755127 17.0655 0 18.0009 0H26.0216C26.957 0 27.7139 0.755127 27.7139 1.68831V5.48698L25.387 5.50473V8.36205C28.0978 8.77969 30.6452 9.69101 32.934 11.001L35.4004 7.49833C36.0336 6.714 37.1781 6.59061 37.9604 7.22138L40.7904 9.49739C41.5726 10.1285 41.6969 11.2665 41.0678 12.0513L38.5651 15.6059C41.9505 19.4659 44.002 24.5199 44.002 30.0519C44.002 42.1735 34.1522 51.9999 22.002 51.9999C9.85167 51.9999 0.00195312 42.1735 0.00195312 30.0519C0.00195312 24.5887 2.0027 19.5917 5.31308 15.7505L5.30432 15.7575L2.69489 12.0513C2.06581 11.2665 2.19007 10.1285 2.97232 9.49739L5.80231 7.22138C6.58462 6.59061 7.72911 6.714 8.36233 7.49833L10.8985 11.1002C13.2315 9.73681 15.8388 8.78996 18.6177 8.36193Z" fill="url(#paint0_linear_1545_21451)"/>
<defs>
<linearGradient id="paint0_linear_1545_21451" x1="44.002" y1="52" x2="-1.02141" y2="51.0983" gradientUnits="userSpaceOnUse">
<stop stop-color="#FF6F77"/>
<stop offset="1" stop-color="#FEAC99"/>
</linearGradient>
</defs>
</svg>
