<svg width="24" height="24" viewBox="0 0 24 24" fill="none" xmlns="http://www.w3.org/2000/svg">
<path d="M1.43427 18.0563H10.4943V19.9685H9.03593C8.87758 19.9685 8.74907 20.0981 8.74907 20.2553V22.0723C8.74907 22.23 8.87758 22.3591 9.03593 22.3591H14.9641C15.1213 22.3591 15.2509 22.23 15.2509 22.0723V20.2553C15.2509 20.0981 15.1213 19.9685 14.9641 19.9685H13.5063V18.0563H22.5657C23.3569 18.0563 24 17.4126 24 16.622V3.09223C24 2.30166 23.3569 1.65796 22.5657 1.65796H1.43427C0.643702 1.65796 0 2.30166 0 3.09223V16.622C0 17.4126 0.643702 18.0563 1.43427 18.0563ZM9.32278 21.7854V21.4509H14.6772V21.7854H9.32278ZM14.6772 20.8772H9.32278V20.5428H10.7812H13.2194H14.6784L14.6772 20.8772ZM12.9326 19.9691H11.068V18.0569H12.9326V19.9691ZM22.5657 17.4826H13.2194H10.7812H1.43427C0.959816 17.4826 0.57371 17.0965 0.57371 16.622V15.618H23.4263V16.622C23.4263 17.0971 23.0396 17.4826 22.5657 17.4826ZM1.43427 2.23167H22.5657C23.0396 2.23167 23.4263 2.61778 23.4263 3.09223V15.0443H0.57371V3.09223C0.57371 2.6172 0.959816 2.23167 1.43427 2.23167Z" fill="white" fill-opacity="0.55"/>
<path d="M4.40043 14.423C4.4796 14.423 4.55878 14.3892 4.61557 14.3261L8.42615 10.0164L10.4095 12.0645C10.4112 12.0668 10.4129 12.0668 10.4146 12.0679C10.4164 12.0702 10.4169 12.0725 10.4181 12.0737C10.4359 12.0903 10.4571 12.1006 10.4772 12.1104C10.4881 12.1173 10.4972 12.1253 10.5087 12.1305C10.5431 12.1437 10.5793 12.1517 10.616 12.1517C10.6527 12.1517 10.6894 12.1437 10.7244 12.1299C10.7359 12.1253 10.7451 12.1161 10.7566 12.1092C10.7766 12.0972 10.7979 12.088 10.8157 12.0714C10.8174 12.0702 10.8174 12.0679 10.8191 12.0656C10.8208 12.0645 10.8225 12.0645 10.8243 12.0622L13.8305 8.8959L16.1735 10.1116C16.1781 10.1139 16.1844 10.1133 16.1879 10.115C16.2246 10.1322 16.2653 10.1437 16.3055 10.1437C16.3514 10.1437 16.3961 10.1294 16.4374 10.107C16.4495 10.1001 16.4598 10.0892 16.4736 10.08C16.4902 10.0674 16.5097 10.0582 16.5241 10.0416L20.4448 5.3802C20.5475 5.25915 20.5297 5.07786 20.4087 4.97574C20.2876 4.87419 20.1086 4.88968 20.0053 5.01074L16.2338 9.496L13.9022 8.28662C13.8965 8.28375 13.8907 8.28432 13.8884 8.28203C13.8695 8.27342 13.8512 8.26941 13.8288 8.26539C13.8133 8.26195 13.7955 8.25736 13.7794 8.25679C13.7617 8.25621 13.7433 8.26023 13.7238 8.2631C13.7066 8.26596 13.6876 8.26826 13.6693 8.27514C13.6544 8.28088 13.6389 8.29063 13.6263 8.29924C13.6085 8.30957 13.5901 8.31989 13.5758 8.33424C13.5706 8.33825 13.5649 8.3394 13.5632 8.34399L10.6137 11.4501L8.62294 9.39445C8.62007 9.39158 8.61605 9.39044 8.61318 9.38814C8.61031 9.38527 8.60917 9.38183 8.6063 9.37954C8.59482 9.36921 8.58048 9.36519 8.56786 9.35716C8.55122 9.34626 8.53573 9.33479 8.51737 9.3279C8.50016 9.32159 8.48295 9.31987 8.46517 9.317C8.44681 9.31413 8.4296 9.30954 8.41066 9.30954C8.39173 9.31012 8.37337 9.31528 8.35501 9.3193C8.3378 9.32331 8.32116 9.32503 8.30453 9.33249C8.28674 9.33995 8.27183 9.35257 8.25519 9.36347C8.24257 9.37208 8.22822 9.37667 8.21675 9.38757C8.21388 9.39044 8.21273 9.39445 8.21044 9.39732C8.20757 9.40019 8.20413 9.40134 8.20183 9.40421L4.18586 13.9463C4.0803 14.0645 4.0912 14.2446 4.20996 14.3513C4.26561 14.3989 4.33273 14.423 4.40043 14.423Z" fill="white" fill-opacity="0.55"/>
</svg>
