<svg width="40" height="40" viewBox="0 0 40 40" fill="none" xmlns="http://www.w3.org/2000/svg">
<path d="M3.33398 11.6666C3.33398 12.5866 4.08065 13.3333 5.00065 13.3333C5.92065 13.3333 6.66732 12.5866 6.66732 11.6666V8.33325C6.66732 7.41492 7.41565 6.66659 8.33398 6.66659H11.6673C12.5873 6.66659 13.334 5.91992 13.334 4.99992C13.334 4.07992 12.5873 3.33325 11.6673 3.33325H8.33398C5.57732 3.33325 3.33398 5.57659 3.33398 8.33325V11.6666Z" fill="white"/>
<path d="M33.334 11.6666C33.334 12.5866 34.079 13.3333 35.0007 13.3333C35.9223 13.3333 36.6673 12.5866 36.6673 11.6666V8.33325C36.6673 5.57659 34.424 3.33325 31.6673 3.33325H28.334C27.4123 3.33325 26.6673 4.07992 26.6673 4.99992C26.6673 5.91992 27.4123 6.66659 28.334 6.66659H31.6673C32.5873 6.66659 33.334 7.41492 33.334 8.33325V11.6666Z" fill="white"/>
<path d="M31.6673 36.6666H28.334C27.4123 36.6666 26.6673 35.9216 26.6673 34.9999C26.6673 34.0783 27.4123 33.3333 28.334 33.3333H31.6673C32.5873 33.3333 33.334 32.5866 33.334 31.6666V28.3333C33.334 27.4116 34.079 26.6666 35.0007 26.6666C35.9223 26.6666 36.6673 27.4116 36.6673 28.3333V31.6666C36.6673 34.4233 34.424 36.6666 31.6673 36.6666Z" fill="white"/>
<path d="M8.33398 36.6666H11.6673C12.5873 36.6666 13.334 35.9216 13.334 34.9999C13.334 34.0783 12.5873 33.3333 11.6673 33.3333H8.33398C7.41565 33.3333 6.66732 32.5866 6.66732 31.6666V28.3333C6.66732 27.4116 5.92065 26.6666 5.00065 26.6666C4.08065 26.6666 3.33398 27.4116 3.33398 28.3333V31.6666C3.33398 34.4233 5.57732 36.6666 8.33398 36.6666Z" fill="white"/>
</svg>
