<svg width="24" height="24" viewBox="0 0 24 24" fill="none" xmlns="http://www.w3.org/2000/svg">
<g clip-path="url(#clip0_1632_2164)">
<path d="M21.3376 2.63535C18.0051 -0.697135 12.582 -0.697135 9.24921 2.63535C6.13696 5.74813 5.93227 10.6828 8.63303 14.0361L0.401925 22.2672C0.0418062 22.6271 0.0418062 23.2111 0.401925 23.571C0.581853 23.7512 0.817893 23.8413 1.05393 23.8413C1.28997 23.8413 1.52601 23.7512 1.70594 23.5713L9.93678 15.3401C11.4948 16.5952 13.3939 17.2235 15.2933 17.2235C17.4822 17.2235 19.6711 16.3905 21.3373 14.724C24.6703 11.391 24.6703 5.96836 21.3376 2.63535ZM20.0338 13.42C17.42 16.0335 13.1671 16.0335 10.5532 13.42C7.9394 10.8061 7.9394 6.55319 10.5532 3.93936C13.1668 1.32554 17.42 1.32554 20.0338 3.93936C22.6476 6.55319 22.6476 10.8064 20.0338 13.42Z" fill="#AFBCD2"/>
</g>
<defs>
<clipPath id="clip0_1632_2164">
<rect width="24" height="24" fill="white"/>
</clipPath>
</defs>
</svg>
