<svg width="56" height="56" viewBox="0 0 56 56" fill="none" xmlns="http://www.w3.org/2000/svg">
<g clip-path="url(#clip0_1467_6637)">
<path d="M47.7991 8.20094C42.5105 2.91244 35.4791 0 28 0C20.5209 0 13.4895 2.91244 8.20094 8.20094C2.91233 13.4894 0 20.5209 0 28C0 35.4791 2.91244 42.5105 8.20094 47.7991C13.4894 53.0877 20.5209 56 28 56C35.4791 56 42.5105 53.0876 47.7991 47.7991C53.0877 42.5106 56 35.4791 56 28C56 20.5209 53.0876 13.4895 47.7991 8.20094ZM51.1688 40.3662L46.6046 37.731C48.0056 35.0633 48.8491 32.0597 48.9803 28.875H54.2339C54.1016 32.946 53.0475 36.8571 51.1688 40.3662ZM27.125 48.9804V54.234C23.054 54.1016 19.1429 53.0476 15.6338 51.1689L18.269 46.6047C20.9366 48.0056 23.9402 48.8492 27.125 48.9804ZM28.875 48.9804C32.0598 48.8492 35.0634 48.0056 37.731 46.6047L40.3662 51.1689C36.8571 53.0476 32.946 54.1016 28.875 54.234V48.9804ZM28 47.25C17.3855 47.25 8.75 38.6145 8.75 28C8.75 17.3855 17.3855 8.75 28 8.75C38.6145 8.75 47.25 17.3855 47.25 28C47.25 38.6145 38.6145 47.25 28 47.25ZM1.76597 28.875H7.01958C7.15083 32.0598 7.99444 35.0634 9.39531 37.731L4.83109 40.3662C2.95247 36.8571 1.89842 32.946 1.76597 28.875ZM4.8312 15.6338L9.39542 18.269C7.99444 20.9366 7.15083 23.9402 7.01958 27.125H1.76597C1.89842 23.054 2.95247 19.1429 4.8312 15.6338ZM28.875 7.01958V1.76597C32.946 1.89842 36.8571 2.95236 40.3662 4.83109L37.731 9.39531C35.0634 7.99444 32.0598 7.15083 28.875 7.01958ZM27.125 7.01958C23.9402 7.15083 20.9366 7.99444 18.269 9.39531L15.6338 4.83109C19.1429 2.95247 23.054 1.89842 27.125 1.76597V7.01958ZM48.9804 27.125C48.8492 23.9402 48.0056 20.9366 46.6047 18.269L51.1689 15.6338C53.0476 19.1429 54.1016 23.054 54.234 27.125H48.9804ZM50.2902 14.1204L45.7277 16.7545C44.0687 14.1484 41.8515 11.9313 39.2455 10.2723L41.8796 5.70981C43.5571 6.75883 45.1279 8.00483 46.5615 9.43841C47.9952 10.872 49.2412 12.4429 50.2902 14.1204ZM9.43841 9.43841C10.872 8.00483 12.4429 6.75872 14.1203 5.70981L16.7544 10.2723C14.1483 11.9313 11.9312 14.1485 10.2722 16.7545L5.7097 14.1204C6.75883 12.4429 8.00483 10.872 9.43841 9.43841ZM5.70981 41.8796L10.2723 39.2455C11.9313 41.8516 14.1485 44.0687 16.7545 45.7277L14.1204 50.2902C12.4429 49.2412 10.8721 47.9952 9.43852 46.5616C8.00483 45.128 6.75883 43.5571 5.70981 41.8796ZM46.5616 46.5616C45.128 47.9952 43.5571 49.2413 41.8797 50.2902L39.2456 45.7277C41.8517 44.0687 44.0689 41.8515 45.7278 39.2455L50.2903 41.8796C49.2412 43.5571 47.9952 45.128 46.5616 46.5616Z" fill="url(#paint0_linear_1467_6637)"/>
<path d="M39.6053 17.3512C39.7779 17.5392 40.0136 17.6344 40.25 17.6344C40.4615 17.6344 40.6735 17.5582 40.8415 17.404C41.1976 17.0772 41.2212 16.5236 40.8944 16.1677C40.5568 15.8001 40.1994 15.4427 39.8319 15.1054C39.476 14.7787 38.9224 14.8023 38.5956 15.1583C38.2688 15.5143 38.2926 16.0677 38.6486 16.3946C38.9794 16.6982 39.3013 17.0201 39.6053 17.3512Z" fill="url(#paint1_linear_1467_6637)"/>
<path d="M12.25 28C12.25 19.3154 19.3154 12.25 28 12.25C30.603 12.25 33.1819 12.898 35.4579 14.124C35.8834 14.3532 36.4141 14.1941 36.6432 13.7686C36.8724 13.3431 36.7132 12.8124 36.2878 12.5833C33.7576 11.2203 30.8918 10.5 28 10.5C18.3505 10.5 10.5 18.3505 10.5 28C10.5 32.0189 11.8963 35.9442 14.4317 39.053C14.6047 39.2651 14.8564 39.375 15.1104 39.375C15.3047 39.375 15.5004 39.3105 15.6628 39.178C16.0373 38.8726 16.0933 38.3214 15.788 37.9469C13.5064 35.1496 12.25 31.617 12.25 28Z" fill="url(#paint2_linear_1467_6637)"/>
<path d="M43.4153 19.7101C43.1859 19.2846 42.6553 19.1257 42.2299 19.3549C41.8045 19.5842 41.6455 20.1149 41.8747 20.5403C43.1017 22.817 43.7503 25.3969 43.7503 28.0011C43.7503 36.6857 36.6849 43.7511 28.0003 43.7511C24.3831 43.7511 20.8504 42.4946 18.0531 40.213C17.6787 39.9076 17.1275 39.9635 16.8219 40.3381C16.5166 40.7126 16.5725 41.2637 16.9471 41.5692C20.0558 44.1047 23.9812 45.5011 28.0003 45.5011C37.6498 45.5011 45.5003 37.6506 45.5003 28.0011C45.5003 25.108 44.7793 22.241 43.4153 19.7101Z" fill="url(#paint3_linear_1467_6637)"/>
<path d="M40.7647 27.2923C36.7852 24.3982 31.6018 19.2148 28.7077 15.2353C28.543 15.0089 28.28 14.875 28 14.875C27.72 14.875 27.4571 15.009 27.2923 15.2353C24.3982 19.2148 19.2148 24.3982 15.2353 27.2923C15.0089 27.457 14.875 27.72 14.875 28C14.875 28.28 15.009 28.5429 15.2353 28.7077C19.2148 31.6018 24.3982 36.7852 27.2923 40.7647C27.457 40.9911 27.72 41.125 28 41.125C28.28 41.125 28.5429 40.991 28.7077 40.7647C31.6018 36.7852 36.7852 31.6018 40.7647 28.7077C40.9911 28.543 41.125 28.28 41.125 28C41.125 27.72 40.991 27.4571 40.7647 27.2923ZM28 38.794C25.1514 35.1186 20.8814 30.8486 17.206 28C20.8814 25.1514 25.1514 20.8814 28 17.206C30.8486 20.8814 35.1186 25.1514 38.794 28C35.1186 30.8486 30.8486 35.1186 28 38.794Z" fill="url(#paint4_linear_1467_6637)"/>
</g>
<defs>
<linearGradient id="paint0_linear_1467_6637" x1="28" y1="0" x2="28" y2="56" gradientUnits="userSpaceOnUse">
<stop stop-color="#FD2A35"/>
<stop offset="1" stop-color="#FD2A83"/>
</linearGradient>
<linearGradient id="paint1_linear_1467_6637" x1="39.745" y1="14.875" x2="39.745" y2="17.6344" gradientUnits="userSpaceOnUse">
<stop stop-color="#FD2A35"/>
<stop offset="1" stop-color="#FD2A83"/>
</linearGradient>
<linearGradient id="paint2_linear_1467_6637" x1="23.624" y1="10.5" x2="23.624" y2="39.375" gradientUnits="userSpaceOnUse">
<stop stop-color="#FD2A35"/>
<stop offset="1" stop-color="#FD2A83"/>
</linearGradient>
<linearGradient id="paint3_linear_1467_6637" x1="31.0626" y1="19.25" x2="31.0626" y2="45.5011" gradientUnits="userSpaceOnUse">
<stop stop-color="#FD2A35"/>
<stop offset="1" stop-color="#FD2A83"/>
</linearGradient>
<linearGradient id="paint4_linear_1467_6637" x1="28" y1="14.875" x2="28" y2="41.125" gradientUnits="userSpaceOnUse">
<stop stop-color="#FD2A35"/>
<stop offset="1" stop-color="#FD2A83"/>
</linearGradient>
<clipPath id="clip0_1467_6637">
<rect width="56" height="56" fill="white"/>
</clipPath>
</defs>
</svg>
