<svg width="24" height="24" viewBox="0 0 24 24" fill="none" xmlns="http://www.w3.org/2000/svg">
<g clip-path="url(#clip0_1413_86793)">
<path d="M23.3647 1.90443C23.0133 1.6597 22.5634 1.41749 22.2478 1.25737C21.8176 1.03912 20.6201 0.47268 20.25 0.47268C19.4384 0.47268 18.7047 0.54993 17.9952 0.624602C16.569 0.774789 15.0944 0.930039 12.8229 0.479852C10.2237 -0.0353515 7.6102 0.58593 5.8755 1.19784C5.59233 1.29773 5.27498 1.21724 5.02664 0.982492C4.67878 0.653711 4.22541 0.47268 3.75 0.47268H1.875C0.841125 0.47268 0 1.3138 0 2.34768V10.2227C0 11.2566 0.841125 12.0977 1.875 12.0977H3.75C4.78387 12.0977 5.625 11.2566 5.625 10.2227C5.625 9.68329 6.00319 9.21046 6.50475 9.1228C7.39622 8.96709 8.22666 9.23901 8.83294 9.43762L8.88347 9.45416C9.43163 9.63337 10.1355 9.66791 10.8053 9.64016C9.33051 10.8401 8.23987 12.7366 7.55297 15.3021C6.87169 17.8466 6.74063 20.4743 6.75066 22.2306C6.75534 23.0534 7.42795 23.7228 8.25 23.7228H15.025C15.8322 23.7228 16.4892 23.0894 16.5208 22.2809C16.6746 18.3423 17.6743 14.5536 19.4922 11.0201C20.9547 8.17724 22.5628 6.26043 23.3912 5.37088C23.7838 4.9492 24 4.39991 24 3.82415V2.72268C24 2.45924 23.81 2.21455 23.3647 1.90443ZM23.25 3.82415C23.25 4.2096 23.1053 4.57734 22.8423 4.85962C21.9876 5.77752 20.329 7.75382 18.8253 10.6768C16.9569 14.3084 15.9294 18.2027 15.7714 22.2515C15.7556 22.6559 15.4277 22.9726 15.025 22.9726H8.25C7.83914 22.9726 7.50295 22.6378 7.50066 22.2262C7.49091 20.5159 7.61775 17.9599 8.27747 15.4959C9.10767 12.3953 10.5391 10.3572 12.532 9.43818C12.7022 9.35971 12.7885 9.16757 12.7339 8.98832C12.7138 8.92237 12.6316 8.72596 12.3679 8.72596C12.3378 8.72596 12.3053 8.72854 12.2702 8.73412C11.6297 8.83682 10.0401 9.04312 9.11653 8.7412L9.06642 8.72479C8.42339 8.51418 7.45162 8.19576 6.37561 8.38396C5.50608 8.53598 4.875 9.30923 4.875 10.2227C4.875 10.843 4.37034 11.3477 3.75 11.3477H1.875C1.25466 11.3477 0.75 10.843 0.75 10.2227V2.34768C0.75 1.72738 1.25466 1.22268 1.875 1.22268H3.75C4.03303 1.22268 4.30345 1.33096 4.51148 1.52755C4.96139 1.9528 5.57972 2.09751 6.12502 1.90513C7.77136 1.32435 10.2444 0.733352 12.6771 1.21551C15.0599 1.68777 16.5921 1.52648 18.0738 1.37048C18.7924 1.29482 19.4713 1.22334 20.2389 1.22268C20.3773 1.24405 21.0097 1.47726 21.8201 1.88179C22.7933 2.36755 23.1632 2.67473 23.25 2.78095V3.82415Z" fill="white" fill-opacity="0.55"/>
<path d="M17.2497 2.95708C17.2604 2.95708 17.2712 2.95661 17.282 2.95567C17.5491 2.93285 17.8038 2.90692 18.0393 2.88231C18.2453 2.86085 18.3948 2.67639 18.3733 2.47038C18.3518 2.26441 18.1676 2.11455 17.9614 2.13639C17.7295 2.16063 17.479 2.18608 17.2181 2.20844C17.0117 2.22606 16.8587 2.4077 16.8764 2.61405C16.8932 2.80952 17.057 2.95708 17.2497 2.95708Z" fill="white" fill-opacity="0.55"/>
<path d="M5.19616 3.45858C5.33945 3.47939 5.48552 3.48994 5.63027 3.48994C5.96931 3.48994 6.30372 3.43261 6.62416 3.3196C7.63459 2.96316 9.1795 2.53833 10.8017 2.53833C11.3556 2.53833 11.8886 2.58825 12.3857 2.68678C13.5444 2.91647 14.629 3.02813 15.7015 3.02813C15.9086 3.02813 16.0765 2.86022 16.0765 2.65313C16.0765 2.44603 15.9086 2.27813 15.7015 2.27813C14.6785 2.27813 13.6416 2.17116 12.5314 1.95113C11.9865 1.84313 11.4045 1.78833 10.8016 1.78833C9.07338 1.78833 7.4403 2.23641 6.37464 2.6123C6.03161 2.73333 5.66289 2.76853 5.30392 2.71636C5.09889 2.68655 4.90867 2.82863 4.87895 3.03361C4.84914 3.23855 4.99117 3.42881 5.19616 3.45858Z" fill="white" fill-opacity="0.55"/>
<path d="M22.3214 3.00991C21.73 2.6433 20.6641 2.14422 20.2062 1.99281C20.1666 1.97973 20.125 1.97327 20.0832 1.97392C19.8874 1.97669 19.6888 1.98423 19.4763 1.99703C19.2695 2.00945 19.112 2.18711 19.1245 2.39383C19.1369 2.60055 19.3147 2.75809 19.5213 2.74567C19.6987 2.73498 19.8654 2.72819 20.0288 2.72495C20.4207 2.8652 21.223 3.24105 21.7487 3.54203V3.82427C21.7487 3.82942 21.747 3.8335 21.7433 3.83748C21.0196 4.61463 19.5938 6.28638 18.1758 8.75106C16.4329 11.7807 15.2532 15.03 14.6696 18.4088C14.6343 18.6129 14.7712 18.8069 14.9753 18.8422C14.9969 18.8459 15.0183 18.8477 15.0395 18.8477C15.2186 18.8477 15.3771 18.7189 15.4086 18.5365C15.9772 15.2446 17.127 12.0782 18.8259 9.12503C20.2067 6.72498 21.5903 5.10227 22.2921 4.34861C22.4253 4.20559 22.4987 4.01936 22.4987 3.82422V3.32866C22.4988 3.19886 22.4317 3.0783 22.3214 3.00991Z" fill="white" fill-opacity="0.55"/>
<path d="M14.8664 19.6003C14.6603 19.5759 14.4742 19.723 14.45 19.9287C14.3897 20.4388 14.3426 20.9567 14.3096 21.4727H9.00623C9.03689 19.9603 9.19383 17.8728 9.72642 15.8839C10.4359 13.2342 11.5912 11.5239 13.1602 10.8003C13.9537 10.4343 14.3937 9.5492 14.2063 8.69561C14.019 7.84201 13.2488 7.22247 12.3749 7.22247C12.2235 7.22247 12.1134 7.24009 12.0325 7.25303C11.2864 7.37265 10.7353 7.39773 10.4043 7.39773C9.86189 7.39773 9.62475 7.32915 9.58275 7.31542L9.53311 7.2992C8.9587 7.11104 8.09067 6.82675 7.04766 6.82675C6.73247 6.82675 6.41953 6.85351 6.11737 6.90634C4.6507 7.16265 3.55523 8.37053 3.39516 9.84761H2.25V2.72218L3.73922 2.72021C3.94631 2.71993 4.11398 2.55184 4.1137 2.3447C4.11342 2.13775 3.94561 1.97021 3.7387 1.97021C3.73852 1.97021 3.73833 1.97021 3.73819 1.97021L1.87448 1.9727C1.66758 1.97298 1.5 2.14079 1.5 2.3477V10.2227C1.5 10.4298 1.66791 10.5977 1.875 10.5977H3.75C3.95709 10.5977 4.125 10.4298 4.125 10.2227C4.125 8.94404 5.01722 7.86006 6.24652 7.64523C6.50611 7.59986 6.77569 7.57689 7.04766 7.57689C7.97095 7.57689 8.77055 7.83878 9.29991 8.01217L9.34959 8.02843C9.48605 8.07306 9.80452 8.14787 10.4043 8.14787C10.7625 8.14787 11.3564 8.12111 12.1515 7.99365C12.2193 7.98282 12.2832 7.97256 12.3749 7.97256C12.8992 7.97256 13.3613 8.34432 13.4738 8.85648C13.5862 9.36868 13.3222 9.89978 12.8461 10.1193C11.0651 10.9406 9.77175 12.8148 9.00192 15.69C8.403 17.9267 8.26298 20.2716 8.25094 21.8449C8.25019 21.9448 8.28933 22.041 8.35978 22.1119C8.43019 22.1829 8.526 22.2227 8.62594 22.2227H14.6635C14.8631 22.2227 15.0277 22.0664 15.038 21.8671C15.0698 21.2505 15.1226 20.628 15.1948 20.0168C15.2191 19.811 15.072 19.6246 14.8664 19.6003Z" fill="white" fill-opacity="0.55"/>
</g>
<defs>
<clipPath id="clip0_1413_86793">
<rect width="24" height="24" fill="white" transform="translate(0 0.00537109)"/>
</clipPath>
</defs>
</svg>
