<svg width="24" height="36" viewBox="0 0 24 36" fill="none" xmlns="http://www.w3.org/2000/svg">
<g clip-path="url(#clip0_1545_21281)">
<g filter="url(#filter0_dii_1545_21281)">
<rect width="24" height="36" rx="3.13043" fill="white"/>
</g>
<path d="M4.03043 5.42053C3.35217 5.06783 3.01304 4.52183 3.01304 3.78253C3.01304 3.41626 3.10461 3.08392 3.28774 2.78548C3.47765 2.48026 3.75913 2.23948 4.13217 2.06313C4.512 1.88 4.97322 1.78844 5.51583 1.78844C6.05843 1.78844 6.51626 1.88 6.8893 2.06313C7.26913 2.23948 7.55061 2.48026 7.73374 2.78548C7.92365 3.08392 8.01861 3.41626 8.01861 3.78253C8.01861 4.15557 7.92704 4.48453 7.74391 4.7694C7.56078 5.04748 7.31661 5.26453 7.01139 5.42053C7.38443 5.58331 7.67609 5.8207 7.88635 6.1327C8.09661 6.4447 8.20174 6.81435 8.20174 7.24166C8.20174 7.70287 8.08304 8.10644 7.84565 8.45235C7.61504 8.79148 7.29626 9.05261 6.8893 9.23574C6.48235 9.41887 6.02452 9.51044 5.51583 9.51044C5.00713 9.51044 4.5493 9.41887 4.14235 9.23574C3.74217 9.05261 3.42339 8.79148 3.186 8.45235C2.95539 8.10644 2.84009 7.70287 2.84009 7.24166C2.84009 6.81435 2.94522 6.4447 3.15548 6.1327C3.36574 5.81392 3.65739 5.57653 4.03043 5.42053ZM6.63496 3.986C6.63496 3.65366 6.53322 3.39592 6.32974 3.21279C6.13304 3.02966 5.86174 2.93809 5.51583 2.93809C5.1767 2.93809 4.90539 3.02966 4.70191 3.21279C4.50522 3.39592 4.40687 3.65705 4.40687 3.99618C4.40687 4.3014 4.50861 4.54557 4.71209 4.7287C4.92235 4.91183 5.19026 5.0034 5.51583 5.0034C5.84139 5.0034 6.1093 4.91183 6.31957 4.7287C6.52983 4.53879 6.63496 4.29122 6.63496 3.986ZM5.51583 6.04113C5.12922 6.04113 4.81383 6.13948 4.56965 6.33618C4.33226 6.53287 4.21357 6.81435 4.21357 7.18061C4.21357 7.51974 4.32887 7.79783 4.55948 8.01487C4.79687 8.22513 5.11565 8.33026 5.51583 8.33026C5.916 8.33026 6.23139 8.22174 6.462 8.0047C6.69261 7.78766 6.80791 7.51296 6.80791 7.18061C6.80791 6.82113 6.68922 6.54305 6.45183 6.34635C6.21443 6.14287 5.90243 6.04113 5.51583 6.04113Z" fill="#515A6A"/>
<path d="M14.7735 32.7944L14.8158 32.87L14.858 32.7944C15.8369 30.8494 20.4744 28.781 20.9389 25.6427C21.2345 23.6658 20.4782 21.5935 18.2171 21.1599C15.7947 20.8934 15.0115 22.5322 14.8119 23.0732C14.6123 22.5322 13.833 20.8974 11.4068 21.1599C9.14561 21.5935 8.39317 23.6619 8.68493 25.6427C9.15328 28.777 13.7869 30.8494 14.7735 32.7944Z" fill="#FF353A"/>
<path d="M5.41742 17.5682L5.43918 17.6085L5.46093 17.5682C5.96523 16.5309 8.35423 15.4277 8.59352 13.754C8.7458 12.6996 8.35621 11.5944 7.19137 11.3632C5.94348 11.221 5.54004 12.095 5.4372 12.3836C5.33436 12.095 4.9329 11.2232 3.68303 11.3632C2.51819 11.5944 2.13057 12.6975 2.28087 13.754C2.52215 15.4256 4.90917 16.5309 5.41742 17.5682Z" fill="#FF353A"/>
</g>
<defs>
<filter id="filter0_dii_1545_21281" x="-0.391304" y="-0.391304" width="25.5652" height="37.5652" filterUnits="userSpaceOnUse" color-interpolation-filters="sRGB">
<feFlood flood-opacity="0" result="BackgroundImageFix"/>
<feColorMatrix in="SourceAlpha" type="matrix" values="0 0 0 0 0 0 0 0 0 0 0 0 0 0 0 0 0 0 127 0" result="hardAlpha"/>
<feOffset dx="0.391304" dy="0.391304"/>
<feGaussianBlur stdDeviation="0.391304"/>
<feColorMatrix type="matrix" values="0 0 0 0 0.377535 0 0 0 0 0.430682 0 0 0 0 0.545833 0 0 0 0.24 0"/>
<feBlend mode="normal" in2="BackgroundImageFix" result="effect1_dropShadow_1545_21281"/>
<feBlend mode="normal" in="SourceGraphic" in2="effect1_dropShadow_1545_21281" result="shape"/>
<feColorMatrix in="SourceAlpha" type="matrix" values="0 0 0 0 0 0 0 0 0 0 0 0 0 0 0 0 0 0 127 0" result="hardAlpha"/>
<feOffset/>
<feGaussianBlur stdDeviation="0.195652"/>
<feComposite in2="hardAlpha" operator="arithmetic" k2="-1" k3="1"/>
<feColorMatrix type="matrix" values="0 0 0 0 0.441528 0 0 0 0 0.489658 0 0 0 0 0.566667 0 0 0 1 0"/>
<feBlend mode="multiply" in2="shape" result="effect2_innerShadow_1545_21281"/>
<feColorMatrix in="SourceAlpha" type="matrix" values="0 0 0 0 0 0 0 0 0 0 0 0 0 0 0 0 0 0 127 0" result="hardAlpha"/>
<feOffset dx="0.391304" dy="0.391304"/>
<feGaussianBlur stdDeviation="0.195652"/>
<feComposite in2="hardAlpha" operator="arithmetic" k2="-1" k3="1"/>
<feColorMatrix type="matrix" values="0 0 0 0 1 0 0 0 0 1 0 0 0 0 1 0 0 0 1 0"/>
<feBlend mode="overlay" in2="effect2_innerShadow_1545_21281" result="effect3_innerShadow_1545_21281"/>
</filter>
<clipPath id="clip0_1545_21281">
<rect width="24" height="36" fill="white"/>
</clipPath>
</defs>
</svg>
