<svg width="27" height="39" viewBox="0 0 27 39" fill="none" xmlns="http://www.w3.org/2000/svg">
<g filter="url(#filter0_dii_1545_21282)">
<rect x="1" y="1" width="24" height="36" rx="3.13043" fill="white"/>
</g>
<path d="M3.61626 4.24331V2.93087H6.06817V10.3477H4.60313V4.24331H3.61626ZM7.98397 6.54261C7.98397 5.36922 8.19423 4.45018 8.61475 3.78548C9.04206 3.12079 9.74745 2.78844 10.7309 2.78844C11.7144 2.78844 12.4164 3.12079 12.8369 3.78548C13.2642 4.45018 13.4779 5.36922 13.4779 6.54261C13.4779 7.72279 13.2642 8.64861 12.8369 9.32009C12.4164 9.99157 11.7144 10.3273 10.7309 10.3273C9.74745 10.3273 9.04206 9.99157 8.61475 9.32009C8.19423 8.64861 7.98397 7.72279 7.98397 6.54261ZM12.0739 6.54261C12.0739 6.0407 12.04 5.62018 11.9721 5.28105C11.9111 4.93513 11.7822 4.65366 11.5855 4.43661C11.3956 4.21957 11.1108 4.11105 10.7309 4.11105C10.3511 4.11105 10.0628 4.21957 9.86614 4.43661C9.67623 4.65366 9.54736 4.93513 9.47953 5.28105C9.41849 5.62018 9.38797 6.0407 9.38797 6.54261C9.38797 7.05809 9.41849 7.49218 9.47953 7.84487C9.54058 8.19079 9.66945 8.47226 9.86614 8.68931C10.0628 8.89957 10.3511 9.0047 10.7309 9.0047C11.1108 9.0047 11.399 8.89957 11.5957 8.68931C11.7924 8.47226 11.9213 8.19079 11.9823 7.84487C12.0434 7.49218 12.0739 7.05809 12.0739 6.54261Z" fill="#515A6A"/>
<path d="M6.63852 18.0121C6.57643 17.8316 6.53504 17.5437 6.48612 17.3084C6.78715 17.6491 7.18977 17.8479 7.63943 17.8458H7.65449C8.08345 17.8418 8.48608 17.6633 8.78711 17.3469C9.08813 17.0265 9.2537 16.6046 9.24994 16.1585C9.24429 15.3979 8.77394 15.0004 8.18129 14.4954C8.0684 14.3981 7.94799 14.2967 7.82758 14.1912C6.94707 13.4043 6.25094 12.3456 6.24906 12.3477C6.24906 12.3477 5.55105 13.4043 4.67242 14.1932C4.55013 14.3007 4.43348 14.4021 4.31872 14.4974C3.72607 15.0024 3.25571 15.4 3.25006 16.1605C3.2463 16.6067 3.40999 17.0305 3.7129 17.349C4.01581 17.6674 4.41655 17.8438 4.84551 17.8479H4.86057C5.31211 17.8479 5.71285 17.6511 6.01388 17.3104C5.96308 17.5477 5.92169 17.8357 5.86149 18.0142C5.62631 18.7058 5.23497 18.9978 5.25943 18.9998H7.23869C7.26691 18.9937 6.87558 18.7017 6.63852 18.0121Z" fill="#515A6A"/>
<path d="M16.6138 31.836C16.4858 31.4644 16.4004 30.8715 16.2995 30.3871C16.9204 31.0886 17.7508 31.4978 18.6782 31.4936H18.7093C19.594 31.4853 20.4244 31.1178 21.0453 30.4664C21.6662 29.8067 22.0076 28.9382 21.9999 28.0196C21.9882 26.4538 21.0181 25.6354 19.7958 24.5957C19.5629 24.3953 19.3146 24.1865 19.0663 23.9694C17.2502 22.3493 15.8144 20.1697 15.8106 20.1738C15.8106 20.1738 14.3709 22.3493 12.5587 23.9735C12.3065 24.1948 12.0659 24.4036 11.8292 24.5999C10.6069 25.6396 9.63677 26.458 9.62513 28.0238C9.61737 28.9424 9.95497 29.8151 10.5797 30.4706C11.2045 31.1262 12.031 31.4894 12.9157 31.4978H12.9468C13.8781 31.4978 14.7046 31.0928 15.3255 30.3913C15.2207 30.8798 15.1354 31.4727 15.0112 31.8402C14.5261 33.264 13.719 33.8653 13.7694 33.8695H17.8517C17.9099 33.857 17.1027 33.2557 16.6138 31.836Z" fill="#515A6A"/>
<defs>
<filter id="filter0_dii_1545_21282" x="0.608696" y="0.608696" width="25.5652" height="37.5652" filterUnits="userSpaceOnUse" color-interpolation-filters="sRGB">
<feFlood flood-opacity="0" result="BackgroundImageFix"/>
<feColorMatrix in="SourceAlpha" type="matrix" values="0 0 0 0 0 0 0 0 0 0 0 0 0 0 0 0 0 0 127 0" result="hardAlpha"/>
<feOffset dx="0.391304" dy="0.391304"/>
<feGaussianBlur stdDeviation="0.391304"/>
<feColorMatrix type="matrix" values="0 0 0 0 0.377535 0 0 0 0 0.430682 0 0 0 0 0.545833 0 0 0 0.24 0"/>
<feBlend mode="normal" in2="BackgroundImageFix" result="effect1_dropShadow_1545_21282"/>
<feBlend mode="normal" in="SourceGraphic" in2="effect1_dropShadow_1545_21282" result="shape"/>
<feColorMatrix in="SourceAlpha" type="matrix" values="0 0 0 0 0 0 0 0 0 0 0 0 0 0 0 0 0 0 127 0" result="hardAlpha"/>
<feOffset/>
<feGaussianBlur stdDeviation="0.195652"/>
<feComposite in2="hardAlpha" operator="arithmetic" k2="-1" k3="1"/>
<feColorMatrix type="matrix" values="0 0 0 0 0.441528 0 0 0 0 0.489658 0 0 0 0 0.566667 0 0 0 1 0"/>
<feBlend mode="multiply" in2="shape" result="effect2_innerShadow_1545_21282"/>
<feColorMatrix in="SourceAlpha" type="matrix" values="0 0 0 0 0 0 0 0 0 0 0 0 0 0 0 0 0 0 127 0" result="hardAlpha"/>
<feOffset dx="0.391304" dy="0.391304"/>
<feGaussianBlur stdDeviation="0.195652"/>
<feComposite in2="hardAlpha" operator="arithmetic" k2="-1" k3="1"/>
<feColorMatrix type="matrix" values="0 0 0 0 1 0 0 0 0 1 0 0 0 0 1 0 0 0 1 0"/>
<feBlend mode="overlay" in2="effect2_innerShadow_1545_21282" result="effect3_innerShadow_1545_21282"/>
</filter>
</defs>
</svg>
