<svg width="20" height="16" viewBox="0 0 20 16" fill="none" xmlns="http://www.w3.org/2000/svg">
<path d="M6.94922 15.7051C6.94922 15.8144 7.00989 15.9146 7.10636 15.9656C7.20276 16.0167 7.31997 16.0101 7.41007 15.9484L9.43932 14.5628L6.94926 13.376V15.7051H6.94922Z" fill="black"/>
<path d="M19.0216 0.078275C18.9659 0.0268898 18.894 0 18.8212 0C18.7774 0 18.7337 0.00972452 18.6923 0.0300576L1.17397 8.62329C0.994912 8.71129 0.881607 8.89414 0.882822 9.09416C0.884038 9.29392 0.999259 9.47552 1.1796 9.56156L5.79661 11.7615L15.0283 4.17381L6.94053 12.3065L12.6922 15.0471C12.7628 15.0809 12.84 15.0978 12.9163 15.0978C12.9814 15.0978 13.0459 15.0859 13.1073 15.0618C13.2413 15.0088 13.3477 14.9027 13.4009 14.7687L19.0955 0.402941C19.1406 0.289894 19.1112 0.160639 19.0216 0.078275Z" fill="black"/>
</svg>
