<svg width="100" height="100" viewBox="0 0 100 100" fill="none" xmlns="http://www.w3.org/2000/svg">
<g clip-path="url(#clip0_1543_15066)">
<path d="M85.3555 14.6367C75.9115 5.19297 63.3555 -0.0078125 50 -0.0078125C36.6445 -0.0078125 24.0885 5.19297 14.6445 14.6367C5.20059 24.0805 0 36.6367 0 49.9922C0 63.3477 5.20078 75.9037 14.6445 85.3477C24.0883 94.7916 36.6445 99.9922 50 99.9922C63.3555 99.9922 75.9115 94.7914 85.3555 85.3477C94.7994 75.9039 100 63.3477 100 49.9922C100 36.6367 94.7992 24.0807 85.3555 14.6367ZM91.3729 72.0746L83.2225 67.3689C85.7242 62.6053 87.2305 57.2416 87.4648 51.5547H96.8463C96.61 58.8244 94.7277 65.8084 91.3729 72.0746ZM48.4375 87.4572V96.8387C41.1678 96.6021 34.1838 94.7201 27.9176 91.3652L32.6232 83.2148C37.3867 85.7164 42.7504 87.2229 48.4375 87.4572ZM51.5625 87.4572C57.2496 87.2229 62.6133 85.7164 67.3768 83.2148L72.0824 91.3652C65.8162 94.7201 58.8322 96.6021 51.5625 96.8387V87.4572ZM50 84.3672C31.0455 84.3672 15.625 68.9467 15.625 49.9922C15.625 31.0377 31.0455 15.6172 50 15.6172C68.9545 15.6172 84.375 31.0377 84.375 49.9922C84.375 68.9467 68.9545 84.3672 50 84.3672ZM3.15352 51.5547H12.535C12.7693 57.2418 14.2758 62.6055 16.7773 67.3689L8.62695 72.0746C5.27226 65.8084 3.39004 58.8244 3.15352 51.5547ZM8.62715 27.9098L16.7775 32.6154C14.2758 37.3789 12.7693 42.7426 12.535 48.4297H3.15352C3.39004 41.16 5.27227 34.176 8.62715 27.9098ZM51.5625 12.5271V3.1457C58.8322 3.38223 65.8162 5.26426 72.0824 8.61914L67.3768 16.7695C62.6133 14.268 57.2496 12.7615 51.5625 12.5271ZM48.4375 12.5271C42.7504 12.7615 37.3867 14.268 32.6232 16.7695L27.9176 8.61914C34.1838 5.26445 41.1678 3.38223 48.4375 3.1457V12.5271ZM87.465 48.4297C87.2307 42.7426 85.7242 37.3789 83.2227 32.6154L91.373 27.9098C94.7279 34.176 96.61 41.16 96.8467 48.4297H87.465ZM89.8039 25.2072L81.6566 29.9109C78.6941 25.2572 74.7348 21.298 70.0813 18.3355L74.785 10.1883C77.7805 12.0615 80.5855 14.2865 83.1455 16.8465C85.7057 19.4064 87.9307 22.2117 89.8039 25.2072ZM16.8543 16.8465C19.4143 14.2865 22.2195 12.0613 25.2148 10.1883L29.9186 18.3355C25.2648 21.298 21.3055 25.2574 18.3432 29.9109L10.1959 25.2072C12.0693 22.2117 14.2943 19.4064 16.8543 16.8465ZM10.1961 74.7771L18.3434 70.0734C21.3059 74.7271 25.2652 78.6863 29.9188 81.6488L25.215 89.7961C22.2195 87.9229 19.4145 85.6979 16.8545 83.1379C14.2943 80.5779 12.0693 77.7727 10.1961 74.7771ZM83.1457 83.1379C80.5857 85.6979 77.7805 87.923 74.7852 89.7961L70.0814 81.6488C74.7352 78.6863 78.6943 74.727 81.6568 70.0734L89.8041 74.7771C87.9307 77.7727 85.7057 80.5779 83.1457 83.1379Z" fill="url(#paint0_linear_1543_15066)"/>
<path d="M70.7222 30.9765C71.0304 31.3122 71.4513 31.4823 71.8735 31.4823C72.2511 31.4823 72.6298 31.3462 72.9298 31.0708C73.5655 30.4872 73.6077 29.4987 73.0241 28.8632C72.4214 28.2067 71.7831 27.5684 71.1269 26.9661C70.4913 26.3827 69.5028 26.4247 68.9192 27.0606C68.3356 27.6964 68.378 28.6847 69.0138 29.2683C69.6046 29.8104 70.1794 30.3852 70.7222 30.9765Z" fill="url(#paint1_linear_1543_15066)"/>
<path d="M21.875 49.9922C21.875 34.484 34.4918 21.8672 50 21.8672C54.6482 21.8672 59.2533 23.0244 63.3178 25.2137C64.0775 25.6227 65.0252 25.3389 65.4344 24.5789C65.8435 23.8191 65.5594 22.8715 64.7996 22.4623C60.2814 20.0285 55.1639 18.7422 50 18.7422C32.7687 18.7422 18.75 32.7609 18.75 49.9922C18.75 57.1688 21.2434 64.1783 25.7709 69.7297C26.0799 70.1084 26.5293 70.3047 26.9828 70.3047C27.3299 70.3047 27.6793 70.1895 27.9693 69.9529C28.6381 69.4076 28.7381 68.4232 28.1928 67.7545C24.1186 62.7594 21.875 56.4512 21.875 49.9922Z" fill="url(#paint2_linear_1543_15066)"/>
<path d="M77.5253 35.1877C77.1159 34.428 76.1681 34.1442 75.4085 34.5536C74.6489 34.9629 74.365 35.9106 74.7743 36.6704C76.9653 40.7358 78.1235 45.3428 78.1235 49.9932C78.1235 65.5014 65.5068 78.1182 49.9985 78.1182C43.5394 78.1182 37.231 75.8745 32.2357 71.8C31.5671 71.2547 30.5827 71.3547 30.0372 72.0235C29.4919 72.6922 29.5917 73.6764 30.2607 74.2219C35.812 78.7497 42.8216 81.2432 49.9985 81.2432C67.2298 81.2432 81.2485 67.2245 81.2485 49.9932C81.2485 44.827 79.961 39.7073 77.5253 35.1877Z" fill="url(#paint3_linear_1543_15066)"/>
<path d="M50 37.4961C52.8393 37.4961 55.4678 38.8498 56.115 40.6469C56.2047 40.8943 56.25 41.1484 56.25 41.4023C56.25 43.9871 58.3527 46.0898 60.9375 46.0898C63.5223 46.0898 65.625 43.9871 65.625 41.4023C65.625 40.0637 65.3928 38.7396 64.9344 37.467C63.3969 33.1992 59.5754 29.9947 54.5895 28.7273C54.1467 26.5996 52.257 24.9961 50 24.9961C47.7475 24.9961 45.8611 26.5932 45.4133 28.7145C42.5088 29.4752 39.8883 30.9594 37.9408 32.9635C35.6414 35.3303 34.375 38.3271 34.375 41.4023C34.375 48.7256 41.3844 54.6836 50 54.6836C52.9502 54.6836 56.25 56.3541 56.25 58.5898C56.25 60.8256 52.9502 62.4961 50 62.4961C47.0498 62.4961 43.75 60.8256 43.75 58.5898C43.75 56.0051 41.6473 53.9023 39.0625 53.9023C36.4777 53.9023 34.375 56.0051 34.375 58.5898C34.375 61.665 35.6414 64.6619 37.9408 67.0287C39.8883 69.033 42.5088 70.517 45.4133 71.2777C45.8611 73.399 47.7475 74.9961 50 74.9961C52.2525 74.9961 54.1389 73.399 54.5867 71.2777C57.4912 70.517 60.1117 69.0328 62.0592 67.0287C64.3586 64.6619 65.625 61.665 65.625 58.5898C65.625 51.2666 58.6156 45.3086 50 45.3086C47.0498 45.3086 43.75 43.6381 43.75 41.4023C43.75 39.1666 47.0498 37.4961 50 37.4961ZM50 48.4336C56.8926 48.4336 62.5 52.9896 62.5 58.5898C62.5 63.251 58.4346 67.407 52.8332 68.4719C52.0961 68.6121 51.5625 69.2564 51.5625 70.0068V70.3086C51.5625 71.1701 50.8615 71.8711 50 71.8711C49.1385 71.8711 48.4375 71.1701 48.4375 70.3086V70.0068C48.4375 69.2564 47.9041 68.6119 47.1668 68.4719C41.5654 67.407 37.5 63.251 37.5 58.5898C37.5 57.7283 38.201 57.0273 39.0625 57.0273C39.924 57.0273 40.625 57.7283 40.625 58.5898C40.625 62.467 44.8307 65.6211 50 65.6211C55.1693 65.6211 59.375 62.467 59.375 58.5898C59.375 54.7127 55.1693 51.5586 50 51.5586C43.1074 51.5586 37.5 47.0025 37.5 41.4023C37.5 36.7412 41.5654 32.5852 47.1668 31.5203C47.9039 31.3801 48.4375 30.7357 48.4375 29.9854V29.6836C48.4375 28.8221 49.1385 28.1211 50 28.1211C50.8615 28.1211 51.5625 28.8221 51.5625 29.6836V30.0043C51.5625 30.7568 52.0988 31.4023 52.8385 31.5402C57.2285 32.359 60.7367 35.0357 61.9941 38.526C62.3299 39.4578 62.5 40.4256 62.5 41.4023C62.5 42.2639 61.799 42.9648 60.9375 42.9648C60.076 42.9648 59.375 42.2639 59.375 41.4023C59.375 40.7848 59.2668 40.173 59.0545 39.5857C57.9484 36.5154 54.2252 34.3711 50 34.3711C44.8307 34.3711 40.625 37.5252 40.625 41.4023C40.625 45.2795 44.8307 48.4336 50 48.4336Z" fill="url(#paint4_linear_1543_15066)"/>
</g>
<defs>
<linearGradient id="paint0_linear_1543_15066" x1="50" y1="-0.0078125" x2="50" y2="99.9922" gradientUnits="userSpaceOnUse">
<stop stop-color="#40FFD1"/>
<stop offset="1" stop-color="#00ADEF"/>
</linearGradient>
<linearGradient id="paint1_linear_1543_15066" x1="70.9717" y1="26.5547" x2="70.9717" y2="31.4823" gradientUnits="userSpaceOnUse">
<stop stop-color="#40FFD1"/>
<stop offset="1" stop-color="#00ADEF"/>
</linearGradient>
<linearGradient id="paint2_linear_1543_15066" x1="42.1857" y1="18.7422" x2="42.1857" y2="70.3047" gradientUnits="userSpaceOnUse">
<stop stop-color="#40FFD1"/>
<stop offset="1" stop-color="#00ADEF"/>
</linearGradient>
<linearGradient id="paint3_linear_1543_15066" x1="55.467" y1="34.3662" x2="55.467" y2="81.2432" gradientUnits="userSpaceOnUse">
<stop stop-color="#40FFD1"/>
<stop offset="1" stop-color="#00ADEF"/>
</linearGradient>
<linearGradient id="paint4_linear_1543_15066" x1="50" y1="24.9961" x2="50" y2="74.9961" gradientUnits="userSpaceOnUse">
<stop stop-color="#40FFD1"/>
<stop offset="1" stop-color="#00ADEF"/>
</linearGradient>
<clipPath id="clip0_1543_15066">
<rect width="100" height="100" fill="white"/>
</clipPath>
</defs>
</svg>
