<svg width="24" height="24" viewBox="0 0 24 24" fill="none" xmlns="http://www.w3.org/2000/svg">
<path d="M6.99578 15.025H4.99859C4.73375 15.025 4.47975 14.9188 4.29248 14.7297C4.10521 14.5406 4 14.2841 4 14.0167V9.98331C4 9.71589 4.10521 9.45941 4.29248 9.27031C4.47975 9.08121 4.73375 8.97497 4.99859 8.97497H6.99578L10.4909 4.43743C10.5781 4.26624 10.7232 4.13223 10.8998 4.0596C11.0764 3.98696 11.2729 3.98051 11.4537 4.0414C11.6346 4.10228 11.788 4.2265 11.8861 4.39159C11.9842 4.55669 12.0206 4.75177 11.9887 4.9416V19.0584C12.0206 19.2482 11.9842 19.4433 11.8861 19.6084C11.788 19.7735 11.6346 19.8977 11.4537 19.9586C11.2729 20.0195 11.0764 20.013 10.8998 19.9404C10.7232 19.8678 10.5781 19.7338 10.4909 19.5626L6.99578 15.025Z" stroke="white" stroke-width="2" stroke-linecap="round" stroke-linejoin="round"/>
<path d="M20 10L16 14M16 10L20 14L16 10Z" stroke="white" stroke-width="2" stroke-linecap="round" stroke-linejoin="round"/>
</svg>
