<svg width="25" height="25" viewBox="0 0 25 25" fill="none" xmlns="http://www.w3.org/2000/svg">
<path d="M20.7881 4.89366C20.9114 5.02796 21.0797 5.096 21.2486 5.096C21.3996 5.096 21.5511 5.04155 21.6711 4.93139C21.9254 4.69796 21.9423 4.30257 21.7089 4.04836C21.4678 3.78578 21.2125 3.53047 20.95 3.28954C20.6957 3.05618 20.3003 3.07306 20.0669 3.32735C19.8335 3.58164 19.8504 3.97695 20.1047 4.21039C20.3411 4.42726 20.571 4.65718 20.7881 4.89366Z" fill="#FBFCFF"/>
<path d="M1.24999 12.4999C1.24999 6.29665 6.29666 1.24999 12.4999 1.24999C14.3592 1.24999 16.2012 1.71287 17.827 2.58857C18.1309 2.75224 18.5099 2.63864 18.6736 2.33466C18.8373 2.03076 18.7236 1.6517 18.4197 1.48803C16.6124 0.514525 14.5654 0 12.4999 0C5.60745 0 0 5.60744 0 12.4999C0 15.3705 0.997336 18.1743 2.80834 20.3948C2.93193 20.5463 3.11169 20.6248 3.2931 20.6248C3.43192 20.6248 3.57169 20.5787 3.6877 20.4841C3.9552 20.2659 3.9952 19.8722 3.77708 19.6047C2.1474 17.6067 1.24999 15.0834 1.24999 12.4999Z" fill="#FBFCFF"/>
<path d="M23.5108 6.57861C23.3469 6.27471 22.9679 6.16119 22.664 6.32494C22.3602 6.48869 22.2466 6.86775 22.4104 7.17165C23.2868 8.7978 23.75 10.6406 23.75 12.5007C23.75 18.7039 18.7034 23.7506 12.5001 23.7506C9.91648 23.7506 7.39315 22.8531 5.39504 21.2234C5.12762 21.0052 4.73395 21.0452 4.51567 21.3127C4.29754 21.5802 4.33747 21.9739 4.60504 22.1921C6.82557 24.0032 9.62938 25.0006 12.5001 25.0006C19.3926 25.0006 25 19.3932 25 12.5007C25 10.4343 24.485 8.3864 23.5108 6.57861Z" fill="#FBFCFF"/>
<path d="M21.6175 11.9944C18.775 9.92719 15.0726 6.22481 13.0054 3.38234C12.8878 3.22062 12.6999 3.125 12.4999 3.125C12.2999 3.125 12.1121 3.2207 11.9945 3.38234C9.92721 6.22481 6.22482 9.92719 3.38234 11.9944C3.22062 12.112 3.125 12.2999 3.125 12.4999C3.125 12.6999 3.2207 12.8877 3.38234 13.0054C6.22482 15.0726 9.92721 18.775 11.9945 21.6175C12.112 21.7792 12.2999 21.8748 12.4999 21.8748C12.6999 21.8748 12.8877 21.7791 13.0054 21.6175C15.0726 18.775 18.775 15.0726 21.6175 13.0054C21.7792 12.8878 21.8748 12.6999 21.8748 12.4999C21.8748 12.2999 21.7791 12.1121 21.6175 11.9944ZM12.4999 20.2098C10.4653 17.5845 7.41528 14.5346 4.78999 12.4999C7.41528 10.4652 10.4653 7.41526 12.4999 4.78998C14.5346 7.41526 17.5846 10.4652 20.2099 12.4999C17.5846 14.5346 14.5346 17.5845 12.4999 20.2098Z" fill="#FBFCFF"/>
</svg>
