<svg width="24" height="24" viewBox="0 0 24 24" fill="none" xmlns="http://www.w3.org/2000/svg">
<path d="M22.6842 8.41791C22.6907 8.38776 22.7019 8.3596 22.7019 8.32747V7.14135C22.7019 7.07629 22.6842 7.01679 22.6584 6.96205C22.66 6.88945 22.6496 6.81606 22.6119 6.74823L22.1299 5.887C20.1003 2.26122 16.3178 0.00878906 12.2581 0.00878906H12.1296C8.07026 0.00878906 4.28783 2.26122 2.25776 5.887L1.67159 6.93467C1.63621 6.99775 1.61774 7.06876 1.61774 7.14135V8.17752C0.646944 8.82809 0 9.95233 0 11.2336V14.4568C0 16.468 1.5862 18.1036 3.53588 18.1036H5.25171C5.91442 18.1036 6.45367 17.5474 6.45367 16.8639V8.82532C6.45367 8.14181 5.91442 7.58565 5.25171 7.58565H3.53588C3.14356 7.58565 2.7724 7.66737 2.41931 7.78995V7.25163L2.95125 6.29996C4.83862 2.92925 8.35604 0.835103 12.13 0.835103H12.2585C16.0324 0.835103 19.5495 2.92925 21.4361 6.30036L21.9022 7.13461C21.9022 7.13699 21.9011 7.13897 21.9011 7.14135V7.90776C21.4611 7.70466 20.9768 7.58605 20.4645 7.58605H18.7487C18.086 7.58605 17.5467 8.14221 17.5467 8.82571V16.8643C17.5467 17.5478 18.086 18.104 18.7487 18.104H20.4645C20.7864 18.104 21.0926 18.0449 21.3891 17.9616L19.4864 21.3573C19.2337 21.8075 18.7633 22.0876 18.2579 22.0876H15.0313C14.957 22.0876 14.8912 22.1138 14.832 22.1503C14.6816 21.4894 14.1085 20.9943 13.4227 20.9943H10.7623C9.96263 20.9943 9.31145 21.6659 9.31145 22.5125C9.31145 23.3372 9.96263 24.0088 10.7623 24.0088H13.4227C14.1047 24.0088 14.6747 23.5185 14.8289 22.8496C14.8893 22.8869 14.9559 22.9143 15.0316 22.9143H18.2579C19.0483 22.9143 19.7845 22.476 20.1795 21.7706L22.6115 17.4304C22.6353 17.3884 22.6469 17.3431 22.655 17.2975C23.4681 16.6287 24.0004 15.6108 24.0004 14.4572V11.234C24 10.0939 23.4804 9.08753 22.6842 8.41791ZM0.80118 14.4568V11.2336C0.80118 9.81547 1.82352 8.65077 3.14549 8.45282V17.2102C3.14549 17.2198 3.1501 17.2277 3.15087 17.2372C1.82621 17.042 0.80118 15.8762 0.80118 14.4568ZM5.65249 8.82532V16.8643C5.65249 17.092 5.47248 17.2777 5.25171 17.2777H3.93359C3.93743 17.2551 3.94667 17.2344 3.94667 17.2106V8.4437C3.94667 8.43259 3.94128 8.42307 3.94051 8.41236H5.25171C5.47248 8.41236 5.65249 8.59801 5.65249 8.82532ZM10.1126 22.4898C10.1126 22.1201 10.4038 21.8198 10.7623 21.8198H10.9065C10.9061 21.8262 10.903 21.8313 10.903 21.8377V23.1813H10.7623C10.4038 23.1817 10.1126 22.8814 10.1126 22.4898ZM13.4224 23.1817H11.7042V21.8381C11.7042 21.8317 11.7011 21.8266 11.7008 21.8202H13.4224C13.7808 21.8202 14.072 22.1205 14.072 22.5117C14.072 22.8814 13.7808 23.1817 13.4224 23.1817ZM18.3475 16.8643V8.82532C18.3475 8.59762 18.5275 8.41196 18.7483 8.41196H20.0595C20.0587 8.42307 20.0533 8.43219 20.0533 8.4433V17.2098C20.0533 17.2336 20.0626 17.2543 20.0664 17.2769H18.7483C18.5275 17.2773 18.3475 17.0916 18.3475 16.8643ZM23.1988 14.4568C23.1988 15.8758 22.1738 17.042 20.8491 17.2372C20.8499 17.2277 20.8545 17.2198 20.8545 17.2102V8.45282C22.1765 8.65038 23.1988 9.81547 23.1988 11.2336V14.4568Z" fill="white" fill-opacity="0.55"/>
</svg>
