<svg width="24" height="24" viewBox="0 0 24 24" fill="none" xmlns="http://www.w3.org/2000/svg">
<g clip-path="url(#clip0_1413_86803)">
<path d="M19.4582 4.54734C19.6544 4.74354 19.6544 5.06158 19.4582 5.25782L18.0774 6.63865C17.9793 6.73672 17.8508 6.78578 17.7222 6.78578C17.5937 6.78578 17.4651 6.73672 17.367 6.63865C17.1708 6.44246 17.1708 6.12442 17.367 5.92817L18.7478 4.54734C18.944 4.35121 19.262 4.35121 19.4582 4.54734ZM15.1636 7.70434C15.6229 7.4391 16.1618 7.35371 16.6803 7.46389C17.2739 7.59009 17.7882 7.9636 18.0913 8.48878C18.3776 8.98453 18.4536 9.562 18.3055 10.115C18.1573 10.6679 17.8027 11.1301 17.3069 11.4164C16.9703 11.6107 16.6022 11.7031 16.2389 11.7031C15.4976 11.7031 14.7758 11.3187 14.3793 10.632C13.7885 9.60855 14.1404 8.29526 15.1636 7.70434ZM15.2494 10.1297C15.5633 10.6732 16.261 10.8602 16.8045 10.5464C17.0679 10.3943 17.2563 10.1487 17.335 9.85498C17.4137 9.56122 17.3733 9.25446 17.2213 8.99117C17.0601 8.71221 16.7869 8.51367 16.4715 8.44663C16.3931 8.42995 16.3137 8.42174 16.2348 8.42174C16.0365 8.42174 15.8406 8.47365 15.666 8.57434C15.1225 8.8883 14.9356 9.586 15.2494 10.1297ZM24 0.507957V23.5033C24 23.7807 23.7751 24.0056 23.4977 24.0056H0.502342C0.224882 24.0056 0 23.7807 0 23.5033V0.507957C0 0.230497 0.224882 0.00561523 0.502342 0.00561523H23.4977C23.7751 0.00561523 24 0.230497 24 0.507957ZM1.00468 3.90496C2.49686 3.68533 3.67977 2.50242 3.89935 1.0103H1.00468V3.90496ZM3.89935 23.0009C3.67977 21.5088 2.49686 20.326 1.00468 20.1063V23.0009H3.89935ZM22.9953 20.1063C21.5032 20.326 20.3203 21.5088 20.1007 23.0009H22.9953V20.1063ZM22.9953 4.91807C20.9486 4.68644 19.3193 3.05701 19.0876 1.0103H4.91246C4.68082 3.05701 3.05139 4.68638 1.00468 4.91807V19.0932C3.05139 19.3248 4.68082 20.9543 4.91246 23.001H19.0876C19.3192 20.9543 20.9486 19.3249 22.9953 19.0932V4.91807ZM22.9953 1.0103H20.1007C20.3204 2.50242 21.5032 3.68533 22.9953 3.90496V1.0103ZM14.1432 12.0056C14.1432 13.1873 13.1818 14.1487 12.0001 14.1487C11.3937 14.1487 10.813 13.8901 10.407 13.4391C10.0523 13.0451 9.8569 12.536 9.8569 12.0055C9.8569 10.8238 10.8183 9.8624 12.0001 9.8624C13.1818 9.86251 14.1432 10.8239 14.1432 12.0056ZM13.1385 12.0056C13.1385 11.3779 12.6279 10.8671 12.0001 10.8671C11.3723 10.8671 10.8616 11.3778 10.8616 12.0056C10.8616 12.2874 10.9653 12.5577 11.1537 12.7669C11.3694 13.0066 11.678 13.1441 12.0001 13.1441C12.6278 13.1441 13.1385 12.6333 13.1385 12.0056ZM16.6804 16.5472C16.5326 16.5786 16.3832 16.5941 16.2344 16.5941C15.8612 16.5941 15.4922 16.4964 15.1637 16.3068C14.1404 15.7159 13.7884 14.4026 14.3793 13.3792C14.9702 12.3558 16.2835 12.004 17.3069 12.5948C17.8027 12.881 18.1573 13.3432 18.3055 13.8961C18.4536 14.449 18.3776 15.0266 18.0913 15.5223C17.788 16.0476 17.2738 16.4211 16.6804 16.5472ZM17.335 14.1561C17.2563 13.8624 17.0679 13.6168 16.8045 13.4648C16.6257 13.3615 16.4302 13.3124 16.2372 13.3124C15.8435 13.3124 15.46 13.5166 15.2494 13.8814C14.9355 14.4251 15.1224 15.1228 15.666 15.4366C15.9101 15.5775 16.1961 15.6229 16.4716 15.5643C16.7869 15.4973 17.0602 15.2989 17.2213 15.0198C17.3733 14.7567 17.4137 14.4498 17.335 14.1561ZM5.92267 17.3725L4.5419 18.7534C4.3457 18.9495 4.34576 19.2676 4.5419 19.4638C4.63997 19.5618 4.76856 19.6109 4.89711 19.6109C5.02565 19.6109 5.15425 19.5618 5.25232 19.4637L6.63309 18.0828C6.82928 17.8866 6.82923 17.5686 6.63309 17.3724C6.43695 17.1763 6.11886 17.1763 5.92267 17.3725ZM5.92267 6.63865C6.02079 6.73672 6.14934 6.78578 6.27788 6.78578C6.40642 6.78578 6.53502 6.73672 6.63309 6.63865C6.82928 6.44246 6.82928 6.12442 6.63309 5.92817L5.25238 4.54734C5.05618 4.35126 4.7382 4.35121 4.54195 4.54734C4.34576 4.74354 4.34576 5.06158 4.54195 5.25782L5.92267 6.63865ZM9.83496 15.0054C9.68677 15.5584 9.33212 16.0206 8.83631 16.3068C8.50616 16.4974 8.13967 16.5948 7.76827 16.5948C7.58213 16.5948 7.39481 16.5703 7.21011 16.5209C6.65715 16.3727 6.19499 16.018 5.90877 15.5223C5.62255 15.0265 5.54647 14.449 5.69466 13.896C5.84279 13.3431 6.19745 12.8809 6.6932 12.5948C7.15268 12.3295 7.69136 12.2442 8.20989 12.3544C8.80332 12.4805 9.31761 12.854 9.62085 13.3791C9.90713 13.8749 9.9831 14.4525 9.83496 15.0054ZM8.75085 13.8816C8.58977 13.6027 8.31644 13.4042 8.00097 13.3372C7.92249 13.3204 7.84318 13.3122 7.7642 13.3122C7.56605 13.3122 7.37008 13.3641 7.1956 13.4649C6.93221 13.617 6.74383 13.8624 6.66513 14.1562C6.58643 14.4499 6.62678 14.7567 6.77888 15.0201C6.93098 15.2835 7.17646 15.4718 7.47016 15.5505C7.76397 15.6293 8.07068 15.5889 8.33396 15.4368C8.59736 15.2847 8.78579 15.0392 8.86449 14.7454C8.94319 14.4517 8.90284 14.1449 8.75085 13.8816ZM10.4071 8.54872C10.0523 8.15472 9.85695 7.64562 9.85695 7.11509C9.85695 5.93336 10.8184 4.97199 12.0002 4.97199C13.1818 4.97199 14.1433 5.93342 14.1433 7.11509C14.1433 8.29688 13.1818 9.25825 12.0002 9.25825C11.3937 9.25825 10.813 8.99966 10.4071 8.54872ZM10.8616 7.11509C10.8616 7.39691 10.9653 7.66728 11.1537 7.87648C11.3694 8.11615 11.678 8.25362 12.0001 8.25362C12.6278 8.25362 13.1385 7.74291 13.1385 7.11515C13.1385 6.48739 12.6279 5.97673 12.0001 5.97673C11.3724 5.97667 10.8616 6.48733 10.8616 7.11509ZM18.0774 17.3725C17.8812 17.1762 17.5632 17.1763 17.367 17.3724C17.1708 17.5686 17.1708 17.8866 17.367 18.0828L18.7477 19.4637C18.8459 19.5618 18.9744 19.6109 19.1029 19.6109C19.2315 19.6109 19.36 19.5618 19.4581 19.4638C19.6544 19.2676 19.6544 18.9495 19.4582 18.7534L18.0774 17.3725ZM14.1432 16.896C14.1432 18.0778 13.1818 19.0391 12.0001 19.0391C11.3937 19.0391 10.813 18.7805 10.407 18.3295C10.0523 17.9355 9.8569 17.4264 9.8569 16.8959C9.8569 15.7142 10.8183 14.7528 12.0001 14.7528C13.1818 14.7529 14.1432 15.7143 14.1432 16.896ZM13.1385 16.896C13.1385 16.2682 12.6279 15.7576 12.0001 15.7576C11.3723 15.7576 10.8616 16.2682 10.8616 16.896C10.8616 17.1778 10.9653 17.4482 11.1537 17.6574C11.3694 17.897 11.678 18.0345 12.0001 18.0345C12.6278 18.0345 13.1385 17.5237 13.1385 16.896ZM7.21011 7.49023C7.76308 7.34215 8.34061 7.41806 8.83631 7.70434C9.85969 8.29521 10.2117 9.6085 9.62091 10.6319C9.31766 11.157 8.80338 11.5306 8.20989 11.6567C8.06209 11.6881 7.91256 11.7037 7.76381 11.7037C7.39062 11.7037 7.02174 11.606 6.6932 11.4163C6.1975 11.1301 5.84285 10.668 5.69466 10.115C5.54647 9.56206 5.62255 8.98453 5.90877 8.48878C6.19505 7.99302 6.6572 7.63837 7.21011 7.49023ZM6.66513 9.85498C6.74383 10.1487 6.93221 10.3942 7.19555 10.5463C7.43963 10.6872 7.72563 10.7326 8.00091 10.674C8.31638 10.607 8.58966 10.4086 8.7508 10.1296C9.06465 9.58595 8.87761 8.8883 8.33396 8.5744C8.15859 8.4732 7.96391 8.42141 7.76665 8.42141C7.66775 8.42141 7.56823 8.43441 7.4701 8.4607C7.17635 8.5394 6.93087 8.72778 6.77883 8.99112C6.62684 9.25446 6.58643 9.56122 6.66513 9.85498Z" fill="white" fill-opacity="0.55"/>
</g>
<defs>
<clipPath id="clip0_1413_86803">
<rect width="24" height="24" fill="white" transform="translate(0 0.00561523)"/>
</clipPath>
</defs>
</svg>
