<svg width="89" height="12" viewBox="0 0 89 12" fill="none" xmlns="http://www.w3.org/2000/svg">
<path d="M1.5625 11H0.25V1.04688H1.5625V11Z" fill="white"/>
<path d="M3.85938 3.84961L3.1416 3.35742C3.56543 2.76497 3.78418 2.14062 3.79785 1.48438V0.5H5.04883V1.38867C5.04427 1.8444 4.93034 2.30013 4.70703 2.75586C4.48828 3.20703 4.20573 3.57161 3.85938 3.84961Z" fill="white"/>
<path d="M7.62598 3.60352L7.66016 4.42383C8.20247 3.78581 8.93392 3.4668 9.85449 3.4668C10.889 3.4668 11.5931 3.86328 11.9668 4.65625C12.2129 4.30078 12.5319 4.01367 12.9238 3.79492C13.3203 3.57617 13.7874 3.4668 14.3252 3.4668C15.9476 3.4668 16.7725 4.32585 16.7998 6.04395V11H15.5352V6.11914C15.5352 5.59049 15.4144 5.19629 15.1729 4.93652C14.9313 4.6722 14.5257 4.54004 13.9561 4.54004C13.4867 4.54004 13.097 4.68131 12.7871 4.96387C12.4772 5.24186 12.2972 5.61784 12.2471 6.0918V11H10.9756V6.15332C10.9756 5.0778 10.4492 4.54004 9.39648 4.54004C8.56706 4.54004 7.99967 4.89323 7.69434 5.59961V11H6.42969V3.60352H7.62598Z" fill="white"/>
<path d="M23.3828 3.60352L23.4238 4.5332C23.9889 3.82227 24.7272 3.4668 25.6387 3.4668C27.2018 3.4668 27.9902 4.34863 28.0039 6.1123V11H26.7393V6.10547C26.7347 5.57227 26.6117 5.17806 26.3701 4.92285C26.1331 4.66764 25.7617 4.54004 25.2559 4.54004C24.8457 4.54004 24.4857 4.64941 24.1758 4.86816C23.8659 5.08691 23.6243 5.37402 23.4512 5.72949V11H22.1865V3.60352H23.3828Z" fill="white"/>
<path d="M29.5762 7.2334C29.5762 6.50879 29.7174 5.8571 30 5.27832C30.2871 4.69954 30.6836 4.25293 31.1895 3.93848C31.6999 3.62402 32.2809 3.4668 32.9326 3.4668C33.9398 3.4668 34.7533 3.81543 35.373 4.5127C35.9974 5.20996 36.3096 6.13737 36.3096 7.29492V7.38379C36.3096 8.10384 36.1706 8.75098 35.8926 9.3252C35.6191 9.89486 35.2249 10.3392 34.71 10.6582C34.1995 10.9772 33.6117 11.1367 32.9463 11.1367C31.9437 11.1367 31.1302 10.7881 30.5059 10.0908C29.8861 9.39355 29.5762 8.4707 29.5762 7.32227V7.2334ZM30.8477 7.38379C30.8477 8.2041 31.0368 8.86263 31.415 9.35938C31.7979 9.85612 32.3083 10.1045 32.9463 10.1045C33.5889 10.1045 34.0993 9.85384 34.4775 9.35254C34.8558 8.84668 35.0449 8.1403 35.0449 7.2334C35.0449 6.4222 34.8512 5.76595 34.4639 5.26465C34.0811 4.75879 33.5706 4.50586 32.9326 4.50586C32.3083 4.50586 31.8047 4.75423 31.4219 5.25098C31.0391 5.74772 30.8477 6.45866 30.8477 7.38379Z" fill="white"/>
<path d="M39.6113 1.8125V3.60352H40.9922V4.58105H39.6113V9.16797C39.6113 9.46419 39.6729 9.6875 39.7959 9.83789C39.9189 9.98372 40.1286 10.0566 40.4248 10.0566C40.5706 10.0566 40.7712 10.0293 41.0264 9.97461V11C40.6937 11.0911 40.3701 11.1367 40.0557 11.1367C39.4906 11.1367 39.0645 10.9658 38.7773 10.624C38.4902 10.2822 38.3467 9.79688 38.3467 9.16797V4.58105H37V3.60352H38.3467V1.8125H39.6113Z" fill="white"/>
<path d="M50.5146 11C50.4417 10.8542 50.3825 10.5944 50.3369 10.2207C49.749 10.8314 49.0472 11.1367 48.2314 11.1367C47.5023 11.1367 46.903 10.9316 46.4336 10.5215C45.9688 10.1068 45.7363 9.58268 45.7363 8.94922C45.7363 8.17904 46.028 7.58203 46.6113 7.1582C47.1992 6.72982 48.0241 6.51562 49.0859 6.51562H50.3164V5.93457C50.3164 5.49251 50.1842 5.1416 49.9199 4.88184C49.6556 4.61751 49.2659 4.48535 48.751 4.48535C48.2998 4.48535 47.9216 4.59928 47.6162 4.82715C47.3109 5.05501 47.1582 5.33073 47.1582 5.6543H45.8867C45.8867 5.28516 46.0166 4.92969 46.2764 4.58789C46.5407 4.24154 46.8962 3.9681 47.3428 3.76758C47.7939 3.56706 48.2884 3.4668 48.8262 3.4668C49.6784 3.4668 50.346 3.68099 50.8291 4.10938C51.3122 4.5332 51.5628 5.11881 51.5811 5.86621V9.27051C51.5811 9.94954 51.6676 10.4896 51.8408 10.8906V11H50.5146ZM48.416 10.0361C48.8125 10.0361 49.1885 9.93359 49.5439 9.72852C49.8994 9.52344 50.1569 9.25684 50.3164 8.92871V7.41113H49.3252C47.7757 7.41113 47.001 7.86458 47.001 8.77148C47.001 9.16797 47.1331 9.47786 47.3975 9.70117C47.6618 9.92448 48.0013 10.0361 48.416 10.0361Z" fill="white"/>
<path d="M60.6113 4.73828C60.4199 4.70638 60.2126 4.69043 59.9893 4.69043C59.1598 4.69043 58.597 5.04362 58.3008 5.75V11H57.0361V3.60352H58.2666L58.2871 4.45801C58.7018 3.7972 59.2897 3.4668 60.0508 3.4668C60.2969 3.4668 60.4837 3.4987 60.6113 3.5625V4.73828Z" fill="white"/>
<path d="M61.3086 7.2334C61.3086 6.50879 61.4499 5.8571 61.7324 5.27832C62.0195 4.69954 62.416 4.25293 62.9219 3.93848C63.4323 3.62402 64.0133 3.4668 64.665 3.4668C65.6722 3.4668 66.4857 3.81543 67.1055 4.5127C67.7298 5.20996 68.042 6.13737 68.042 7.29492V7.38379C68.042 8.10384 67.903 8.75098 67.625 9.3252C67.3516 9.89486 66.9574 10.3392 66.4424 10.6582C65.932 10.9772 65.3441 11.1367 64.6787 11.1367C63.6761 11.1367 62.8626 10.7881 62.2383 10.0908C61.6185 9.39355 61.3086 8.4707 61.3086 7.32227V7.2334ZM62.5801 7.38379C62.5801 8.2041 62.7692 8.86263 63.1475 9.35938C63.5303 9.85612 64.0407 10.1045 64.6787 10.1045C65.3213 10.1045 65.8317 9.85384 66.21 9.35254C66.5882 8.84668 66.7773 8.1403 66.7773 7.2334C66.7773 6.4222 66.5837 5.76595 66.1963 5.26465C65.8135 4.75879 65.3031 4.50586 64.665 4.50586C64.0407 4.50586 63.5371 4.75423 63.1543 5.25098C62.7715 5.74772 62.5801 6.45866 62.5801 7.38379Z" fill="white"/>
<path d="M75.8896 7.38379C75.8896 8.514 75.6299 9.42318 75.1104 10.1113C74.5908 10.7949 73.8936 11.1367 73.0186 11.1367C72.0843 11.1367 71.362 10.8063 70.8516 10.1455L70.79 11H69.6279V0.5H70.8926V4.41699C71.403 3.78353 72.1071 3.4668 73.0049 3.4668C73.9027 3.4668 74.6068 3.80632 75.1172 4.48535C75.6322 5.16439 75.8896 6.09408 75.8896 7.27441V7.38379ZM74.625 7.24023C74.625 6.37891 74.4587 5.71354 74.126 5.24414C73.7933 4.77474 73.3148 4.54004 72.6904 4.54004C71.8564 4.54004 71.2572 4.92741 70.8926 5.70215V8.90137C71.2799 9.67611 71.8838 10.0635 72.7041 10.0635C73.3102 10.0635 73.7819 9.82878 74.1191 9.35938C74.4564 8.88997 74.625 8.18359 74.625 7.24023Z" fill="white"/>
<path d="M77.1543 7.2334C77.1543 6.50879 77.2956 5.8571 77.5781 5.27832C77.8652 4.69954 78.2617 4.25293 78.7676 3.93848C79.278 3.62402 79.859 3.4668 80.5107 3.4668C81.5179 3.4668 82.3314 3.81543 82.9512 4.5127C83.5755 5.20996 83.8877 6.13737 83.8877 7.29492V7.38379C83.8877 8.10384 83.7487 8.75098 83.4707 9.3252C83.1973 9.89486 82.8031 10.3392 82.2881 10.6582C81.7777 10.9772 81.1898 11.1367 80.5244 11.1367C79.5218 11.1367 78.7083 10.7881 78.084 10.0908C77.4642 9.39355 77.1543 8.4707 77.1543 7.32227V7.2334ZM78.4258 7.38379C78.4258 8.2041 78.6149 8.86263 78.9932 9.35938C79.376 9.85612 79.8864 10.1045 80.5244 10.1045C81.167 10.1045 81.6774 9.85384 82.0557 9.35254C82.4339 8.84668 82.623 8.1403 82.623 7.2334C82.623 6.4222 82.4294 5.76595 82.042 5.26465C81.6592 4.75879 81.1488 4.50586 80.5107 4.50586C79.8864 4.50586 79.3828 4.75423 79 5.25098C78.6172 5.74772 78.4258 6.45866 78.4258 7.38379Z" fill="white"/>
<path d="M87.1895 1.8125V3.60352H88.5703V4.58105H87.1895V9.16797C87.1895 9.46419 87.251 9.6875 87.374 9.83789C87.4971 9.98372 87.7067 10.0566 88.0029 10.0566C88.1488 10.0566 88.3493 10.0293 88.6045 9.97461V11C88.2718 11.0911 87.9482 11.1367 87.6338 11.1367C87.0687 11.1367 86.6426 10.9658 86.3555 10.624C86.0684 10.2822 85.9248 9.79688 85.9248 9.16797V4.58105H84.5781V3.60352H85.9248V1.8125H87.1895Z" fill="white"/>
</svg>
