<svg width="18" height="15" viewBox="0 0 18 15" fill="none" xmlns="http://www.w3.org/2000/svg">
<path d="M18 2.01489C17.3253 2.30135 16.6108 2.48917 15.8796 2.57227C16.6471 2.1341 17.2242 1.43924 17.5032 0.617523C16.776 1.02906 15.9829 1.31892 15.1569 1.47502C14.8091 1.12083 14.3907 0.839237 13.9273 0.647429C13.4638 0.455622 12.9651 0.357619 12.4614 0.359399C10.422 0.359399 8.7687 1.94315 8.7687 3.89439C8.7687 4.17089 8.8011 4.44126 8.8641 4.69939C7.40122 4.63175 5.9689 4.26837 4.65855 3.63245C3.3482 2.99653 2.18858 2.10203 1.2537 1.00602C0.925943 1.54362 0.753673 2.15733 0.7551 2.78227C0.755727 3.36674 0.906145 3.94184 1.19276 4.45561C1.47938 4.96938 1.89315 5.40561 2.3967 5.72489C1.81124 5.70651 1.23842 5.55455 0.7245 5.28126V5.32501C0.7245 7.03826 1.998 8.46713 3.6855 8.79263C3.36835 8.87444 3.04162 8.91591 2.7135 8.916C2.475 8.916 2.2437 8.89413 2.0178 8.85038C2.25908 9.55731 2.7208 10.1736 3.33884 10.6138C3.95688 11.0539 4.70056 11.2961 5.4666 11.3065C4.15266 12.2905 2.53964 12.822 0.8811 12.8176C0.5823 12.8176 0.2889 12.8001 0 12.7686C1.69313 13.8105 3.65633 14.3622 5.6601 14.3594C12.4524 14.3594 16.1658 8.972 16.1658 4.30039L16.1532 3.84276C16.8776 3.34723 17.5033 2.72788 18 2.01489Z" fill="#00ADEF"/>
</svg>
