<svg width="19" height="15" viewBox="0 0 19 15" fill="none" xmlns="http://www.w3.org/2000/svg">
<path d="M15.0538 0.360378H3.94623C1.76605 0.360378 0 2.19958 0 4.46877V10.25C0 12.5192 1.767 14.3594 3.94623 14.3594H15.0538C17.234 14.3594 19 12.5192 19 10.25V4.46877C19 2.19958 17.233 0.359375 15.0538 0.359375V0.360378ZM12.3852 7.64002L7.18986 10.2209C7.15817 10.237 7.12314 10.2443 7.08802 10.2423C7.0529 10.2403 7.01884 10.229 6.98901 10.2093C6.95917 10.1897 6.93453 10.1625 6.91738 10.1302C6.90023 10.0979 6.89113 10.0615 6.89092 10.0245V4.7033C6.89155 4.66609 6.90112 4.62965 6.91874 4.59739C6.93635 4.56512 6.96144 4.53807 6.99166 4.51876C7.02188 4.49945 7.05625 4.48851 7.09158 4.48695C7.1269 4.4854 7.16202 4.49328 7.19367 4.50986L12.3899 7.25113C12.4245 7.2693 12.4536 7.29738 12.4737 7.33214C12.4939 7.3669 12.5043 7.40693 12.5038 7.44765C12.5033 7.48836 12.4919 7.5281 12.4709 7.5623C12.4499 7.59651 12.4202 7.62379 12.3852 7.64102V7.64002Z" fill="#FF6E77"/>
</svg>
