<svg width="64" height="92" viewBox="0 0 64 92" fill="none" xmlns="http://www.w3.org/2000/svg">
<path d="M22.268 30.048C25.084 27.7013 27.328 25.7507 29 24.196C30.672 22.612 32.0653 20.9693 33.18 19.268C34.2947 17.5667 34.852 15.8947 34.852 14.252C34.852 12.756 34.5 11.5827 33.796 10.732C33.092 9.88133 32.0067 9.456 30.54 9.456C29.0733 9.456 27.944 9.95467 27.152 10.952C26.36 11.92 25.9493 13.2547 25.92 14.956H19.936C20.0533 11.436 21.0947 8.76666 23.06 6.948C25.0547 5.12933 27.5773 4.22 30.628 4.22C33.972 4.22 36.5387 5.11466 38.328 6.904C40.1173 8.664 41.012 10.996 41.012 13.9C41.012 16.188 40.396 18.3733 39.164 20.456C37.932 22.5387 36.524 24.3573 34.94 25.912C33.356 27.4373 31.288 29.2853 28.736 31.456H41.716V36.56H19.98V31.984L22.268 30.048Z" fill="#8391A9"/>
<path d="M49 71.6129C49 66.9944 45.2111 63.239 40.54 63.2278C39.4543 63.2278 38.4024 63.4408 37.4411 63.8107C38.6965 62.3422 39.4656 60.4589 39.4543 58.3851C39.4543 53.7441 35.6767 50 30.9943 50C26.312 50 22.5344 53.7442 22.5344 58.3851C22.5344 60.4477 23.2922 62.3422 24.5476 63.8107C23.5862 63.4408 22.557 63.2278 21.4599 63.2166C16.7776 63.2166 13.0113 66.972 13 71.6017C13 76.2202 16.7776 79.9868 21.4599 79.9868C25.5316 79.9868 28.9359 77.1283 29.7389 73.3281C29.8407 77.2628 30.1121 79.7514 25.5089 84C28.3591 84 34.1046 84 36.4797 84C31.7747 79.6505 32.1027 77.1955 32.2497 73.3056C33.0188 77.1395 36.4232 79.998 40.5287 79.9868C45.2111 79.9868 49.0113 76.2427 49 71.6129Z" fill="#8391A9"/>
</svg>
