<svg width="64" height="92" viewBox="0 0 64 92" fill="none" xmlns="http://www.w3.org/2000/svg">
<path d="M19 66C24.0037 70.0011 30.653 78.0033 34 84C37.3358 77.9934 43.9963 70.0011 49 66C43.9963 61.9989 37.347 53.9967 34 48C30.653 53.9967 24.0037 61.9989 19 66Z" fill="#FF353A"/>
<path d="M40.916 42.412L36.252 36.824C34.9613 37.1467 33.6413 37.308 32.292 37.308C29.4173 37.308 26.7773 36.6333 24.372 35.284C21.9667 33.9347 20.06 32.072 18.652 29.696C17.244 27.2907 16.54 24.5773 16.54 21.556C16.54 18.564 17.244 15.88 18.652 13.504C20.06 11.0987 21.9667 9.22133 24.372 7.872C26.7773 6.52267 29.4173 5.848 32.292 5.848C35.196 5.848 37.836 6.52267 40.212 7.872C42.6173 9.22133 44.5093 11.0987 45.888 13.504C47.296 15.88 48 18.564 48 21.556C48 24.284 47.4133 26.7773 46.24 29.036C45.096 31.2653 43.5267 33.084 41.532 34.492L48.572 42.412H40.916ZM22.876 21.556C22.876 23.6093 23.272 25.4133 24.064 26.968C24.856 28.5227 25.956 29.7253 27.364 30.576C28.8013 31.3973 30.444 31.808 32.292 31.808C34.14 31.808 35.768 31.3973 37.176 30.576C38.584 29.7253 39.684 28.5227 40.476 26.968C41.268 25.4133 41.664 23.6093 41.664 21.556C41.664 19.5027 41.268 17.7133 40.476 16.188C39.684 14.6333 38.584 13.4453 37.176 12.624C35.768 11.8027 34.14 11.392 32.292 11.392C30.444 11.392 28.8013 11.8027 27.364 12.624C25.956 13.4453 24.856 14.6333 24.064 16.188C23.272 17.7133 22.876 19.5027 22.876 21.556Z" fill="#8391A9"/>
</svg>
