<svg width="64" height="92" viewBox="0 0 64 92" fill="none" xmlns="http://www.w3.org/2000/svg">
<path d="M10.584 10.6V4.924H21.188V37H14.852V10.6H10.584ZM29.4734 20.544C29.4734 15.4693 30.3827 11.4947 32.2014 8.62C34.0494 5.74533 37.1001 4.308 41.3534 4.308C45.6067 4.308 48.6427 5.74533 50.4614 8.62C52.3094 11.4947 53.2334 15.4693 53.2334 20.544C53.2334 25.648 52.3094 29.652 50.4614 32.556C48.6427 35.46 45.6067 36.912 41.3534 36.912C37.1001 36.912 34.0494 35.46 32.2014 32.556C30.3827 29.652 29.4734 25.648 29.4734 20.544ZM47.1614 20.544C47.1614 18.3733 47.0147 16.5547 46.7214 15.088C46.4574 13.592 45.9001 12.3747 45.0494 11.436C44.2281 10.4973 42.9961 10.028 41.3534 10.028C39.7107 10.028 38.4641 10.4973 37.6134 11.436C36.7921 12.3747 36.2347 13.592 35.9414 15.088C35.6774 16.5547 35.5454 18.3733 35.5454 20.544C35.5454 22.7733 35.6774 24.6507 35.9414 26.176C36.2054 27.672 36.7627 28.8893 37.6134 29.828C38.4641 30.7373 39.7107 31.192 41.3534 31.192C42.9961 31.192 44.2427 30.7373 45.0934 29.828C45.9441 28.8893 46.5014 27.672 46.7654 26.176C47.0294 24.6507 47.1614 22.7733 47.1614 20.544Z" fill="#8391A9"/>
<path d="M32.3961 83.8069L32.5087 84L32.6213 83.8069C35.2318 78.8362 47.5984 73.5504 48.8371 65.5302C49.6253 60.4782 47.6086 55.1823 41.5789 54.0743C35.1192 53.3933 33.0308 57.5812 32.4984 58.9637C31.9661 57.5812 29.8879 53.4034 23.418 54.0743C17.3883 55.1823 15.3818 60.4681 16.1598 65.5302C17.4088 73.5402 29.7651 78.8362 32.3961 83.8069Z" fill="#FF353A"/>
</svg>
