<svg width="64" height="92" viewBox="0 0 64 92" fill="none" xmlns="http://www.w3.org/2000/svg">
<path d="M22.268 30.048C25.084 27.7013 27.328 25.7507 29 24.196C30.672 22.612 32.0653 20.9693 33.18 19.268C34.2947 17.5667 34.852 15.8947 34.852 14.252C34.852 12.756 34.5 11.5827 33.796 10.732C33.092 9.88133 32.0067 9.456 30.54 9.456C29.0733 9.456 27.944 9.95467 27.152 10.952C26.36 11.92 25.9493 13.2547 25.92 14.956H19.936C20.0533 11.436 21.0947 8.76666 23.06 6.948C25.0547 5.12933 27.5773 4.22 30.628 4.22C33.972 4.22 36.5387 5.11466 38.328 6.904C40.1173 8.664 41.012 10.996 41.012 13.9C41.012 16.188 40.396 18.3733 39.164 20.456C37.932 22.5387 36.524 24.3573 34.94 25.912C33.356 27.4373 31.288 29.2853 28.736 31.456H41.716V36.56H19.98V31.984L22.268 30.048Z" fill="#8391A9"/>
<path d="M34.6368 78.8034C34.2954 77.8537 34.0677 76.3384 33.7987 75.1006C35.4543 76.8933 37.6688 77.939 40.1419 77.9284H40.2247C42.584 77.907 44.7984 76.968 46.4541 75.3034C48.1097 73.6174 49.0204 71.3979 48.9997 69.0503C48.9686 65.0488 46.3816 62.9573 43.1221 60.3003C42.5012 59.7881 41.8389 59.2546 41.1767 58.6997C36.3339 54.5595 32.5052 48.9893 32.4948 49C32.4948 49 28.6558 54.5595 23.8233 58.7104C23.1507 59.2759 22.5092 59.8095 21.8779 60.311C18.6184 62.968 16.0314 65.0595 16.0003 69.061C15.9797 71.4085 16.8799 73.6387 18.5459 75.314C20.2119 76.9893 22.416 77.9177 24.7753 77.939H24.8581C27.3416 77.939 29.5457 76.904 31.2013 75.1113C30.922 76.3598 30.6943 77.875 30.3632 78.814C29.0697 82.4527 26.9173 83.9893 27.0519 84H37.9378C38.093 83.968 35.9407 82.4314 34.6368 78.8034Z" fill="#8391A9"/>
</svg>
