<svg width="64" height="92" viewBox="0 0 64 92" fill="none" xmlns="http://www.w3.org/2000/svg">
<path d="M19 66C24.0037 70.0011 30.653 78.0033 34 84C37.3358 77.9934 43.9963 70.0011 49 66C43.9963 61.9989 37.347 53.9967 34 48C30.653 53.9967 24.0037 61.9989 19 66Z" fill="#FF353A"/>
<path d="M41.892 10.248H27.636V17.772C28.252 17.0093 29.132 16.3933 30.276 15.924C31.42 15.4253 32.6373 15.176 33.928 15.176C36.2747 15.176 38.196 15.6893 39.692 16.716C41.188 17.7427 42.2733 19.0627 42.948 20.676C43.6227 22.26 43.96 23.9613 43.96 25.78C43.96 29.1533 42.992 31.8667 41.056 33.92C39.1493 35.9733 36.4213 37 32.872 37C29.528 37 26.8587 36.164 24.864 34.492C22.8693 32.82 21.74 30.6347 21.476 27.936H27.46C27.724 29.1093 28.3107 30.048 29.22 30.752C30.1587 31.456 31.3467 31.808 32.784 31.808C34.5147 31.808 35.82 31.2653 36.7 30.18C37.58 29.0947 38.02 27.6573 38.02 25.868C38.02 24.0493 37.5653 22.6707 36.656 21.732C35.776 20.764 34.4707 20.28 32.74 20.28C31.508 20.28 30.4813 20.588 29.66 21.204C28.8387 21.82 28.252 22.6413 27.9 23.668H22.004V4.836H41.892V10.248Z" fill="#8391A9"/>
</svg>
