<svg width="64" height="92" viewBox="0 0 64 92" fill="none" xmlns="http://www.w3.org/2000/svg">
<path d="M38.944 6.288V27.848C38.944 30.84 38.0787 33.172 36.348 34.844C34.6173 36.4867 32.3 37.308 29.396 37.308C26.4627 37.308 24.0867 36.4573 22.268 34.756C20.4787 33.0547 19.584 30.6787 19.584 27.628H25.744C25.7733 28.948 26.0813 29.9747 26.668 30.708C27.284 31.4413 28.164 31.808 29.308 31.808C30.4227 31.808 31.2733 31.456 31.86 30.752C32.4467 30.048 32.74 29.08 32.74 27.848V6.288H38.944Z" fill="#8391A9"/>
<path d="M32.3961 83.8069L32.5087 84L32.6213 83.8069C35.2318 78.8362 47.5984 73.5504 48.8371 65.5302C49.6253 60.4782 47.6086 55.1823 41.5789 54.0743C35.1192 53.3933 33.0308 57.5812 32.4984 58.9637C31.9661 57.5812 29.8879 53.4034 23.418 54.0743C17.3883 55.1823 15.3818 60.4681 16.1598 65.5302C17.4088 73.5402 29.7651 78.8362 32.3961 83.8069Z" fill="#FF353A"/>
</svg>
