<svg width="64" height="92" viewBox="0 0 64 92" fill="none" xmlns="http://www.w3.org/2000/svg">
<path d="M38.944 6.288V27.848C38.944 30.84 38.0787 33.172 36.348 34.844C34.6173 36.4867 32.3 37.308 29.396 37.308C26.4627 37.308 24.0867 36.4573 22.268 34.756C20.4787 33.0547 19.584 30.6787 19.584 27.628H25.744C25.7733 28.948 26.0813 29.9747 26.668 30.708C27.284 31.4413 28.164 31.808 29.308 31.808C30.4227 31.808 31.2733 31.456 31.86 30.752C32.4467 30.048 32.74 29.08 32.74 27.848V6.288H38.944Z" fill="#8391A9"/>
<path d="M49 71.6129C49 66.9944 45.2111 63.239 40.54 63.2278C39.4543 63.2278 38.4024 63.4408 37.4411 63.8107C38.6965 62.3422 39.4656 60.4589 39.4543 58.3851C39.4543 53.7441 35.6767 50 30.9943 50C26.312 50 22.5344 53.7442 22.5344 58.3851C22.5344 60.4477 23.2922 62.3422 24.5476 63.8107C23.5862 63.4408 22.557 63.2278 21.4599 63.2166C16.7776 63.2166 13.0113 66.972 13 71.6017C13 76.2202 16.7776 79.9868 21.4599 79.9868C25.5316 79.9868 28.9359 77.1283 29.7389 73.3281C29.8407 77.2628 30.1121 79.7514 25.5089 84C28.3591 84 34.1046 84 36.4797 84C31.7747 79.6505 32.1027 77.1955 32.2497 73.3056C33.0188 77.1395 36.4232 79.998 40.5287 79.9868C45.2111 79.9868 49.0113 76.2427 49 71.6129Z" fill="#8391A9"/>
</svg>
