<svg width="64" height="92" viewBox="0 0 64 92" fill="none" xmlns="http://www.w3.org/2000/svg">
<path d="M20.068 30.752V25.912L34.456 5.32H41.628V25.384H45.5V30.752H41.628V37H35.468V30.752H20.068ZM35.864 11.92L26.844 25.384H35.864V11.92Z" fill="#8391A9"/>
<path d="M34.6368 78.8034C34.2954 77.8537 34.0677 76.3384 33.7987 75.1006C35.4543 76.8933 37.6688 77.939 40.1419 77.9284H40.2247C42.584 77.907 44.7984 76.968 46.4541 75.3034C48.1097 73.6174 49.0204 71.3979 48.9997 69.0503C48.9686 65.0488 46.3816 62.9573 43.1221 60.3003C42.5012 59.7881 41.8389 59.2546 41.1767 58.6997C36.3339 54.5595 32.5052 48.9893 32.4948 49C32.4948 49 28.6558 54.5595 23.8233 58.7104C23.1507 59.2759 22.5092 59.8095 21.8779 60.311C18.6184 62.968 16.0314 65.0595 16.0003 69.061C15.9797 71.4085 16.8799 73.6387 18.5459 75.314C20.2119 76.9893 22.416 77.9177 24.7753 77.939H24.8581C27.3416 77.939 29.5457 76.904 31.2013 75.1113C30.922 76.3598 30.6943 77.875 30.3632 78.814C29.0697 82.4527 26.9173 83.9893 27.0519 84H37.9378C38.093 83.968 35.9407 82.4314 34.6368 78.8034Z" fill="#8391A9"/>
</svg>
