<svg width="64" height="92" viewBox="0 0 64 92" fill="none" xmlns="http://www.w3.org/2000/svg">
<path d="M27.46 27.98C27.6947 29.2707 28.2227 30.268 29.044 30.972C29.8947 31.6467 31.024 31.984 32.432 31.984C34.2507 31.984 35.5707 31.236 36.392 29.74C37.2133 28.2147 37.624 25.6627 37.624 22.084C36.9493 23.0227 35.996 23.756 34.764 24.284C33.5613 24.812 32.256 25.076 30.848 25.076C28.9707 25.076 27.2693 24.6947 25.744 23.932C24.248 23.14 23.06 21.9813 22.18 20.456C21.3 18.9013 20.86 17.024 20.86 14.824C20.86 11.568 21.828 8.98667 23.764 7.08C25.7 5.144 28.34 4.176 31.684 4.176C35.8493 4.176 38.7827 5.51066 40.484 8.18C42.2147 10.8493 43.08 14.868 43.08 20.236C43.08 24.0493 42.7427 27.1733 42.068 29.608C41.4227 32.0427 40.2933 33.8907 38.68 35.152C37.096 36.4133 34.9253 37.044 32.168 37.044C29.9973 37.044 28.1493 36.6333 26.624 35.812C25.0987 34.9613 23.9253 33.8613 23.104 32.512C22.312 31.1333 21.8573 29.6227 21.74 27.98H27.46ZM32.124 20.06C33.6493 20.06 34.852 19.5907 35.732 18.652C36.612 17.7133 37.052 16.452 37.052 14.868C37.052 13.1373 36.5827 11.8027 35.644 10.864C34.7347 9.896 33.488 9.412 31.904 9.412C30.32 9.412 29.0587 9.91066 28.12 10.908C27.2107 11.876 26.756 13.1667 26.756 14.78C26.756 16.3347 27.196 17.6107 28.076 18.608C28.9853 19.576 30.3347 20.06 32.124 20.06Z" fill="#8391A9"/>
<path d="M34.6368 78.8034C34.2954 77.8537 34.0677 76.3384 33.7987 75.1006C35.4543 76.8933 37.6688 77.939 40.1419 77.9284H40.2247C42.584 77.907 44.7984 76.968 46.4541 75.3034C48.1097 73.6174 49.0204 71.3979 48.9997 69.0503C48.9686 65.0488 46.3816 62.9573 43.1221 60.3003C42.5012 59.7881 41.8389 59.2546 41.1767 58.6997C36.3339 54.5595 32.5052 48.9893 32.4948 49C32.4948 49 28.6558 54.5595 23.8233 58.7104C23.1507 59.2759 22.5092 59.8095 21.8779 60.311C18.6184 62.968 16.0314 65.0595 16.0003 69.061C15.9797 71.4085 16.8799 73.6387 18.5459 75.314C20.2119 76.9893 22.416 77.9177 24.7753 77.939H24.8581C27.3416 77.939 29.5457 76.904 31.2013 75.1113C30.922 76.3598 30.6943 77.875 30.3632 78.814C29.0697 82.4527 26.9173 83.9893 27.0519 84H37.9378C38.093 83.968 35.9407 82.4314 34.6368 78.8034Z" fill="#8391A9"/>
</svg>
