<svg width="64" height="92" viewBox="0 0 64 92" fill="none" xmlns="http://www.w3.org/2000/svg">
<path d="M25.7 20.016C22.7667 18.4907 21.3 16.1293 21.3 12.932C21.3 11.348 21.696 9.91067 22.488 8.62C23.3093 7.3 24.5267 6.25866 26.14 5.496C27.7827 4.704 29.7773 4.308 32.124 4.308C34.4707 4.308 36.4507 4.704 38.064 5.496C39.7067 6.25866 40.924 7.3 41.716 8.62C42.5373 9.91067 42.948 11.348 42.948 12.932C42.948 14.5453 42.552 15.968 41.76 17.2C40.968 18.4027 39.912 19.3413 38.592 20.016C40.2053 20.72 41.4667 21.7467 42.376 23.096C43.2853 24.4453 43.74 26.044 43.74 27.892C43.74 29.8867 43.2267 31.632 42.2 33.128C41.2027 34.5947 39.824 35.724 38.064 36.516C36.304 37.308 34.324 37.704 32.124 37.704C29.924 37.704 27.944 37.308 26.184 36.516C24.4533 35.724 23.0747 34.5947 22.048 33.128C21.0507 31.632 20.552 29.8867 20.552 27.892C20.552 26.044 21.0067 24.4453 21.916 23.096C22.8253 21.7173 24.0867 20.6907 25.7 20.016ZM36.964 13.812C36.964 12.3747 36.524 11.26 35.644 10.468C34.7933 9.676 33.62 9.28 32.124 9.28C30.6573 9.28 29.484 9.676 28.604 10.468C27.7533 11.26 27.328 12.3893 27.328 13.856C27.328 15.176 27.768 16.232 28.648 17.024C29.5573 17.816 30.716 18.212 32.124 18.212C33.532 18.212 34.6907 17.816 35.6 17.024C36.5093 16.2027 36.964 15.132 36.964 13.812ZM32.124 22.7C30.452 22.7 29.088 23.1253 28.032 23.976C27.0053 24.8267 26.492 26.044 26.492 27.628C26.492 29.0947 26.9907 30.2973 27.988 31.236C29.0147 32.1453 30.3933 32.6 32.124 32.6C33.8547 32.6 35.2187 32.1307 36.216 31.192C37.2133 30.2533 37.712 29.0653 37.712 27.628C37.712 26.0733 37.1987 24.8707 36.172 24.02C35.1453 23.14 33.796 22.7 32.124 22.7Z" fill="#8391A9"/>
<path d="M49 71.6129C49 66.9944 45.2111 63.239 40.54 63.2278C39.4543 63.2278 38.4024 63.4408 37.4411 63.8107C38.6965 62.3422 39.4656 60.4589 39.4543 58.3851C39.4543 53.7441 35.6767 50 30.9943 50C26.312 50 22.5344 53.7442 22.5344 58.3851C22.5344 60.4477 23.2922 62.3422 24.5476 63.8107C23.5862 63.4408 22.557 63.2278 21.4599 63.2166C16.7776 63.2166 13.0113 66.972 13 71.6017C13 76.2202 16.7776 79.9868 21.4599 79.9868C25.5316 79.9868 28.9359 77.1283 29.7389 73.3281C29.8407 77.2628 30.1121 79.7514 25.5089 84C28.3591 84 34.1046 84 36.4797 84C31.7747 79.6505 32.1027 77.1955 32.2497 73.3056C33.0188 77.1395 36.4232 79.998 40.5287 79.9868C45.2111 79.9868 49.0113 76.2427 49 71.6129Z" fill="#8391A9"/>
</svg>
