<svg width="64" height="92" viewBox="0 0 64 92" fill="none" xmlns="http://www.w3.org/2000/svg">
<path d="M20.42 13.372C20.5667 10.4387 21.5933 8.18 23.5 6.596C25.436 4.98266 27.9733 4.176 31.112 4.176C33.2533 4.176 35.0867 4.55733 36.612 5.32C38.1373 6.05333 39.2813 7.06533 40.044 8.356C40.836 9.61733 41.232 11.0547 41.232 12.668C41.232 14.516 40.748 16.0853 39.78 17.376C38.8413 18.6373 37.712 19.488 36.392 19.928V20.104C38.0933 20.632 39.4133 21.5707 40.352 22.92C41.32 24.2693 41.804 26 41.804 28.112C41.804 29.872 41.3933 31.4413 40.572 32.82C39.78 34.1987 38.592 35.284 37.008 36.076C35.4533 36.8387 33.576 37.22 31.376 37.22C28.0613 37.22 25.3627 36.384 23.28 34.712C21.1973 33.04 20.0973 30.576 19.98 27.32H25.964C26.0227 28.7573 26.5067 29.916 27.416 30.796C28.3547 31.6467 29.6307 32.072 31.244 32.072C32.74 32.072 33.884 31.6613 34.676 30.84C35.4973 29.9893 35.908 28.904 35.908 27.584C35.908 25.824 35.3507 24.5627 34.236 23.8C33.1213 23.0373 31.3907 22.656 29.044 22.656H27.768V17.596H29.044C33.2093 17.596 35.292 16.2027 35.292 13.416C35.292 12.1547 34.9107 11.172 34.148 10.468C33.4147 9.764 32.344 9.412 30.936 9.412C29.5573 9.412 28.4867 9.79333 27.724 10.556C26.9907 11.2893 26.5653 12.228 26.448 13.372H20.42Z" fill="#8391A9"/>
<path d="M32.3961 83.8069L32.5087 84L32.6213 83.8069C35.2318 78.8362 47.5984 73.5504 48.8371 65.5302C49.6253 60.4782 47.6086 55.1823 41.5789 54.0743C35.1192 53.3933 33.0308 57.5812 32.4984 58.9637C31.9661 57.5812 29.8879 53.4034 23.418 54.0743C17.3883 55.1823 15.3818 60.4681 16.1598 65.5302C17.4088 73.5402 29.7651 78.8362 32.3961 83.8069Z" fill="#FF353A"/>
</svg>
