<svg width="64" height="92" viewBox="0 0 64 92" fill="none" xmlns="http://www.w3.org/2000/svg">
<path d="M41.892 10.248H27.636V17.772C28.252 17.0093 29.132 16.3933 30.276 15.924C31.42 15.4253 32.6373 15.176 33.928 15.176C36.2747 15.176 38.196 15.6893 39.692 16.716C41.188 17.7427 42.2733 19.0627 42.948 20.676C43.6227 22.26 43.96 23.9613 43.96 25.78C43.96 29.1533 42.992 31.8667 41.056 33.92C39.1493 35.9733 36.4213 37 32.872 37C29.528 37 26.8587 36.164 24.864 34.492C22.8693 32.82 21.74 30.6347 21.476 27.936H27.46C27.724 29.1093 28.3107 30.048 29.22 30.752C30.1587 31.456 31.3467 31.808 32.784 31.808C34.5147 31.808 35.82 31.2653 36.7 30.18C37.58 29.0947 38.02 27.6573 38.02 25.868C38.02 24.0493 37.5653 22.6707 36.656 21.732C35.776 20.764 34.4707 20.28 32.74 20.28C31.508 20.28 30.4813 20.588 29.66 21.204C28.8387 21.82 28.252 22.6413 27.9 23.668H22.004V4.836H41.892V10.248Z" fill="#8391A9"/>
<path d="M49 71.6129C49 66.9944 45.2111 63.239 40.54 63.2278C39.4543 63.2278 38.4024 63.4408 37.4411 63.8107C38.6965 62.3422 39.4656 60.4589 39.4543 58.3851C39.4543 53.7441 35.6767 50 30.9943 50C26.312 50 22.5344 53.7442 22.5344 58.3851C22.5344 60.4477 23.2922 62.3422 24.5476 63.8107C23.5862 63.4408 22.557 63.2278 21.4599 63.2166C16.7776 63.2166 13.0113 66.972 13 71.6017C13 76.2202 16.7776 79.9868 21.4599 79.9868C25.5316 79.9868 28.9359 77.1283 29.7389 73.3281C29.8407 77.2628 30.1121 79.7514 25.5089 84C28.3591 84 34.1046 84 36.4797 84C31.7747 79.6505 32.1027 77.1955 32.2497 73.3056C33.0188 77.1395 36.4232 79.998 40.5287 79.9868C45.2111 79.9868 49.0113 76.2427 49 71.6129Z" fill="#8391A9"/>
</svg>
