<svg width="64" height="92" viewBox="0 0 64 92" fill="none" xmlns="http://www.w3.org/2000/svg">
<path d="M19 66C24.0037 70.0011 30.653 78.0033 34 84C37.3358 77.9934 43.9963 70.0011 49 66C43.9963 61.9989 37.347 53.9967 34 48C30.653 53.9967 24.0037 61.9989 19 66Z" fill="#FF353A"/>
<path d="M27.46 27.98C27.6947 29.2707 28.2227 30.268 29.044 30.972C29.8947 31.6467 31.024 31.984 32.432 31.984C34.2507 31.984 35.5707 31.236 36.392 29.74C37.2133 28.2147 37.624 25.6627 37.624 22.084C36.9493 23.0227 35.996 23.756 34.764 24.284C33.5613 24.812 32.256 25.076 30.848 25.076C28.9707 25.076 27.2693 24.6947 25.744 23.932C24.248 23.14 23.06 21.9813 22.18 20.456C21.3 18.9013 20.86 17.024 20.86 14.824C20.86 11.568 21.828 8.98667 23.764 7.08C25.7 5.144 28.34 4.176 31.684 4.176C35.8493 4.176 38.7827 5.51066 40.484 8.18C42.2147 10.8493 43.08 14.868 43.08 20.236C43.08 24.0493 42.7427 27.1733 42.068 29.608C41.4227 32.0427 40.2933 33.8907 38.68 35.152C37.096 36.4133 34.9253 37.044 32.168 37.044C29.9973 37.044 28.1493 36.6333 26.624 35.812C25.0987 34.9613 23.9253 33.8613 23.104 32.512C22.312 31.1333 21.8573 29.6227 21.74 27.98H27.46ZM32.124 20.06C33.6493 20.06 34.852 19.5907 35.732 18.652C36.612 17.7133 37.052 16.452 37.052 14.868C37.052 13.1373 36.5827 11.8027 35.644 10.864C34.7347 9.896 33.488 9.412 31.904 9.412C30.32 9.412 29.0587 9.91066 28.12 10.908C27.2107 11.876 26.756 13.1667 26.756 14.78C26.756 16.3347 27.196 17.6107 28.076 18.608C28.9853 19.576 30.3347 20.06 32.124 20.06Z" fill="#8391A9"/>
</svg>
