<svg width="64" height="92" viewBox="0 0 64 92" fill="none" xmlns="http://www.w3.org/2000/svg">
<path d="M10.584 10.6V4.924H21.188V37H14.852V10.6H10.584ZM29.4734 20.544C29.4734 15.4693 30.3827 11.4947 32.2014 8.62C34.0494 5.74533 37.1001 4.308 41.3534 4.308C45.6067 4.308 48.6427 5.74533 50.4614 8.62C52.3094 11.4947 53.2334 15.4693 53.2334 20.544C53.2334 25.648 52.3094 29.652 50.4614 32.556C48.6427 35.46 45.6067 36.912 41.3534 36.912C37.1001 36.912 34.0494 35.46 32.2014 32.556C30.3827 29.652 29.4734 25.648 29.4734 20.544ZM47.1614 20.544C47.1614 18.3733 47.0147 16.5547 46.7214 15.088C46.4574 13.592 45.9001 12.3747 45.0494 11.436C44.2281 10.4973 42.9961 10.028 41.3534 10.028C39.7107 10.028 38.4641 10.4973 37.6134 11.436C36.7921 12.3747 36.2347 13.592 35.9414 15.088C35.6774 16.5547 35.5454 18.3733 35.5454 20.544C35.5454 22.7733 35.6774 24.6507 35.9414 26.176C36.2054 27.672 36.7627 28.8893 37.6134 29.828C38.4641 30.7373 39.7107 31.192 41.3534 31.192C42.9961 31.192 44.2427 30.7373 45.0934 29.828C45.9441 28.8893 46.5014 27.672 46.7654 26.176C47.0294 24.6507 47.1614 22.7733 47.1614 20.544Z" fill="#8391A9"/>
<path d="M34.6368 78.8034C34.2954 77.8537 34.0677 76.3384 33.7987 75.1006C35.4543 76.8933 37.6688 77.939 40.1419 77.9284H40.2247C42.584 77.907 44.7984 76.968 46.4541 75.3034C48.1097 73.6174 49.0204 71.3979 48.9997 69.0503C48.9686 65.0488 46.3816 62.9573 43.1221 60.3003C42.5012 59.7881 41.8389 59.2546 41.1767 58.6997C36.3339 54.5595 32.5052 48.9893 32.4948 49C32.4948 49 28.6558 54.5595 23.8233 58.7104C23.1507 59.2759 22.5092 59.8095 21.8779 60.311C18.6184 62.968 16.0314 65.0595 16.0003 69.061C15.9797 71.4085 16.8799 73.6387 18.5459 75.314C20.2119 76.9893 22.416 77.9177 24.7753 77.939H24.8581C27.3416 77.939 29.5457 76.904 31.2013 75.1113C30.922 76.3598 30.6943 77.875 30.3632 78.814C29.0697 82.4527 26.9173 83.9893 27.0519 84H37.9378C38.093 83.968 35.9407 82.4314 34.6368 78.8034Z" fill="#8391A9"/>
</svg>
