<svg width="64" height="92" viewBox="0 0 64 92" fill="none" xmlns="http://www.w3.org/2000/svg">
<path d="M41.892 10.248H27.636V17.772C28.252 17.0093 29.132 16.3933 30.276 15.924C31.42 15.4253 32.6373 15.176 33.928 15.176C36.2747 15.176 38.196 15.6893 39.692 16.716C41.188 17.7427 42.2733 19.0627 42.948 20.676C43.6227 22.26 43.96 23.9613 43.96 25.78C43.96 29.1533 42.992 31.8667 41.056 33.92C39.1493 35.9733 36.4213 37 32.872 37C29.528 37 26.8587 36.164 24.864 34.492C22.8693 32.82 21.74 30.6347 21.476 27.936H27.46C27.724 29.1093 28.3107 30.048 29.22 30.752C30.1587 31.456 31.3467 31.808 32.784 31.808C34.5147 31.808 35.82 31.2653 36.7 30.18C37.58 29.0947 38.02 27.6573 38.02 25.868C38.02 24.0493 37.5653 22.6707 36.656 21.732C35.776 20.764 34.4707 20.28 32.74 20.28C31.508 20.28 30.4813 20.588 29.66 21.204C28.8387 21.82 28.252 22.6413 27.9 23.668H22.004V4.836H41.892V10.248Z" fill="#8391A9"/>
<path d="M34.6368 78.8034C34.2954 77.8537 34.0677 76.3384 33.7987 75.1006C35.4543 76.8933 37.6688 77.939 40.1419 77.9284H40.2247C42.584 77.907 44.7984 76.968 46.4541 75.3034C48.1097 73.6174 49.0204 71.3979 48.9997 69.0503C48.9686 65.0488 46.3816 62.9573 43.1221 60.3003C42.5012 59.7881 41.8389 59.2546 41.1767 58.6997C36.3339 54.5595 32.5052 48.9893 32.4948 49C32.4948 49 28.6558 54.5595 23.8233 58.7104C23.1507 59.2759 22.5092 59.8095 21.8779 60.311C18.6184 62.968 16.0314 65.0595 16.0003 69.061C15.9797 71.4085 16.8799 73.6387 18.5459 75.314C20.2119 76.9893 22.416 77.9177 24.7753 77.939H24.8581C27.3416 77.939 29.5457 76.904 31.2013 75.1113C30.922 76.3598 30.6943 77.875 30.3632 78.814C29.0697 82.4527 26.9173 83.9893 27.0519 84H37.9378C38.093 83.968 35.9407 82.4314 34.6368 78.8034Z" fill="#8391A9"/>
</svg>
