<svg width="64" height="92" viewBox="0 0 64 92" fill="none" xmlns="http://www.w3.org/2000/svg">
<path d="M22.268 30.048C25.084 27.7013 27.328 25.7507 29 24.196C30.672 22.612 32.0653 20.9693 33.18 19.268C34.2947 17.5667 34.852 15.8947 34.852 14.252C34.852 12.756 34.5 11.5827 33.796 10.732C33.092 9.88133 32.0067 9.456 30.54 9.456C29.0733 9.456 27.944 9.95467 27.152 10.952C26.36 11.92 25.9493 13.2547 25.92 14.956H19.936C20.0533 11.436 21.0947 8.76666 23.06 6.948C25.0547 5.12933 27.5773 4.22 30.628 4.22C33.972 4.22 36.5387 5.11466 38.328 6.904C40.1173 8.664 41.012 10.996 41.012 13.9C41.012 16.188 40.396 18.3733 39.164 20.456C37.932 22.5387 36.524 24.3573 34.94 25.912C33.356 27.4373 31.288 29.2853 28.736 31.456H41.716V36.56H19.98V31.984L22.268 30.048Z" fill="#8391A9"/>
<path d="M32.3961 83.8069L32.5087 84L32.6213 83.8069C35.2318 78.8362 47.5984 73.5504 48.8371 65.5302C49.6253 60.4782 47.6086 55.1823 41.5789 54.0743C35.1192 53.3933 33.0308 57.5812 32.4984 58.9637C31.9661 57.5812 29.8879 53.4034 23.418 54.0743C17.3883 55.1823 15.3818 60.4681 16.1598 65.5302C17.4088 73.5402 29.7651 78.8362 32.3961 83.8069Z" fill="#FF353A"/>
</svg>
