<svg width="64" height="92" viewBox="0 0 64 92" fill="none" xmlns="http://www.w3.org/2000/svg">
<path d="M19 66C24.0037 70.0011 30.653 78.0033 34 84C37.3358 77.9934 43.9963 70.0011 49 66C43.9963 61.9989 37.347 53.9967 34 48C30.653 53.9967 24.0037 61.9989 19 66Z" fill="#FF353A"/>
<path d="M38.944 6.288V27.848C38.944 30.84 38.0787 33.172 36.348 34.844C34.6173 36.4867 32.3 37.308 29.396 37.308C26.4627 37.308 24.0867 36.4573 22.268 34.756C20.4787 33.0547 19.584 30.6787 19.584 27.628H25.744C25.7733 28.948 26.0813 29.9747 26.668 30.708C27.284 31.4413 28.164 31.808 29.308 31.808C30.4227 31.808 31.2733 31.456 31.86 30.752C32.4467 30.048 32.74 29.08 32.74 27.848V6.288H38.944Z" fill="#8391A9"/>
</svg>
