<svg width="64" height="92" viewBox="0 0 64 92" fill="none" xmlns="http://www.w3.org/2000/svg">
<path d="M10.584 10.6V4.924H21.188V37H14.852V10.6H10.584ZM29.4734 20.544C29.4734 15.4693 30.3827 11.4947 32.2014 8.62C34.0494 5.74533 37.1001 4.308 41.3534 4.308C45.6067 4.308 48.6427 5.74533 50.4614 8.62C52.3094 11.4947 53.2334 15.4693 53.2334 20.544C53.2334 25.648 52.3094 29.652 50.4614 32.556C48.6427 35.46 45.6067 36.912 41.3534 36.912C37.1001 36.912 34.0494 35.46 32.2014 32.556C30.3827 29.652 29.4734 25.648 29.4734 20.544ZM47.1614 20.544C47.1614 18.3733 47.0147 16.5547 46.7214 15.088C46.4574 13.592 45.9001 12.3747 45.0494 11.436C44.2281 10.4973 42.9961 10.028 41.3534 10.028C39.7107 10.028 38.4641 10.4973 37.6134 11.436C36.7921 12.3747 36.2347 13.592 35.9414 15.088C35.6774 16.5547 35.5454 18.3733 35.5454 20.544C35.5454 22.7733 35.6774 24.6507 35.9414 26.176C36.2054 27.672 36.7627 28.8893 37.6134 29.828C38.4641 30.7373 39.7107 31.192 41.3534 31.192C42.9961 31.192 44.2427 30.7373 45.0934 29.828C45.9441 28.8893 46.5014 27.672 46.7654 26.176C47.0294 24.6507 47.1614 22.7733 47.1614 20.544Z" fill="#8391A9"/>
<path d="M49 71.6129C49 66.9944 45.2111 63.239 40.54 63.2278C39.4543 63.2278 38.4024 63.4408 37.4411 63.8107C38.6965 62.3422 39.4656 60.4589 39.4543 58.3851C39.4543 53.7441 35.6767 50 30.9943 50C26.312 50 22.5344 53.7442 22.5344 58.3851C22.5344 60.4477 23.2922 62.3422 24.5476 63.8107C23.5862 63.4408 22.557 63.2278 21.4599 63.2166C16.7776 63.2166 13.0113 66.972 13 71.6017C13 76.2202 16.7776 79.9868 21.4599 79.9868C25.5316 79.9868 28.9359 77.1283 29.7389 73.3281C29.8407 77.2628 30.1121 79.7514 25.5089 84C28.3591 84 34.1046 84 36.4797 84C31.7747 79.6505 32.1027 77.1955 32.2497 73.3056C33.0188 77.1395 36.4232 79.998 40.5287 79.9868C45.2111 79.9868 49.0113 76.2427 49 71.6129Z" fill="#8391A9"/>
</svg>
