<svg width="64" height="92" viewBox="0 0 64 92" fill="none" xmlns="http://www.w3.org/2000/svg">
<path d="M27.46 27.98C27.6947 29.2707 28.2227 30.268 29.044 30.972C29.8947 31.6467 31.024 31.984 32.432 31.984C34.2507 31.984 35.5707 31.236 36.392 29.74C37.2133 28.2147 37.624 25.6627 37.624 22.084C36.9493 23.0227 35.996 23.756 34.764 24.284C33.5613 24.812 32.256 25.076 30.848 25.076C28.9707 25.076 27.2693 24.6947 25.744 23.932C24.248 23.14 23.06 21.9813 22.18 20.456C21.3 18.9013 20.86 17.024 20.86 14.824C20.86 11.568 21.828 8.98667 23.764 7.08C25.7 5.144 28.34 4.176 31.684 4.176C35.8493 4.176 38.7827 5.51066 40.484 8.18C42.2147 10.8493 43.08 14.868 43.08 20.236C43.08 24.0493 42.7427 27.1733 42.068 29.608C41.4227 32.0427 40.2933 33.8907 38.68 35.152C37.096 36.4133 34.9253 37.044 32.168 37.044C29.9973 37.044 28.1493 36.6333 26.624 35.812C25.0987 34.9613 23.9253 33.8613 23.104 32.512C22.312 31.1333 21.8573 29.6227 21.74 27.98H27.46ZM32.124 20.06C33.6493 20.06 34.852 19.5907 35.732 18.652C36.612 17.7133 37.052 16.452 37.052 14.868C37.052 13.1373 36.5827 11.8027 35.644 10.864C34.7347 9.896 33.488 9.412 31.904 9.412C30.32 9.412 29.0587 9.91066 28.12 10.908C27.2107 11.876 26.756 13.1667 26.756 14.78C26.756 16.3347 27.196 17.6107 28.076 18.608C28.9853 19.576 30.3347 20.06 32.124 20.06Z" fill="#8391A9"/>
<path d="M49 71.6129C49 66.9944 45.2111 63.239 40.54 63.2278C39.4543 63.2278 38.4024 63.4408 37.4411 63.8107C38.6965 62.3422 39.4656 60.4589 39.4543 58.3851C39.4543 53.7441 35.6767 50 30.9943 50C26.312 50 22.5344 53.7442 22.5344 58.3851C22.5344 60.4477 23.2922 62.3422 24.5476 63.8107C23.5862 63.4408 22.557 63.2278 21.4599 63.2166C16.7776 63.2166 13.0113 66.972 13 71.6017C13 76.2202 16.7776 79.9868 21.4599 79.9868C25.5316 79.9868 28.9359 77.1283 29.7389 73.3281C29.8407 77.2628 30.1121 79.7514 25.5089 84C28.3591 84 34.1046 84 36.4797 84C31.7747 79.6505 32.1027 77.1955 32.2497 73.3056C33.0188 77.1395 36.4232 79.998 40.5287 79.9868C45.2111 79.9868 49.0113 76.2427 49 71.6129Z" fill="#8391A9"/>
</svg>
