<svg width="64" height="92" viewBox="0 0 64 92" fill="none" xmlns="http://www.w3.org/2000/svg">
<path d="M20.068 30.752V25.912L34.456 5.32H41.628V25.384H45.5V30.752H41.628V37H35.468V30.752H20.068ZM35.864 11.92L26.844 25.384H35.864V11.92Z" fill="#8391A9"/>
<path d="M32.3961 83.8069L32.5087 84L32.6213 83.8069C35.2318 78.8362 47.5984 73.5504 48.8371 65.5302C49.6253 60.4782 47.6086 55.1823 41.5789 54.0743C35.1192 53.3933 33.0308 57.5812 32.4984 58.9637C31.9661 57.5812 29.8879 53.4034 23.418 54.0743C17.3883 55.1823 15.3818 60.4681 16.1598 65.5302C17.4088 73.5402 29.7651 78.8362 32.3961 83.8069Z" fill="#FF353A"/>
</svg>
