<svg width="64" height="92" viewBox="0 0 64 92" fill="none" xmlns="http://www.w3.org/2000/svg">
<path d="M36.964 12.932C36.6707 11.7 36.1573 10.776 35.424 10.16C34.72 9.544 33.6933 9.236 32.344 9.236C30.32 9.236 28.824 10.0573 27.856 11.7C26.9173 13.3133 26.4333 15.9533 26.404 19.62C27.108 18.4467 28.1347 17.5373 29.484 16.892C30.8333 16.2173 32.3 15.88 33.884 15.88C35.7907 15.88 37.4773 16.2907 38.944 17.112C40.4107 17.9333 41.5547 19.136 42.376 20.72C43.1973 22.2747 43.608 24.152 43.608 26.352C43.608 28.4347 43.1827 30.2973 42.332 31.94C41.5107 33.5533 40.2933 34.8147 38.68 35.724C37.0667 36.6333 35.1453 37.088 32.916 37.088C29.8653 37.088 27.46 36.4133 25.7 35.064C23.9693 33.7147 22.752 31.8373 22.048 29.432C21.3733 26.9973 21.036 24.0053 21.036 20.456C21.036 15.088 21.96 11.04 23.808 8.312C25.656 5.55467 28.5747 4.176 32.564 4.176C35.644 4.176 38.0347 5.012 39.736 6.684C41.4373 8.356 42.42 10.4387 42.684 12.932H36.964ZM32.476 20.94C30.9213 20.94 29.616 21.3947 28.56 22.304C27.504 23.2133 26.976 24.5333 26.976 26.264C26.976 27.9947 27.46 29.3587 28.428 30.356C29.4253 31.3533 30.8187 31.852 32.608 31.852C34.192 31.852 35.4387 31.368 36.348 30.4C37.2867 29.432 37.756 28.1267 37.756 26.484C37.756 24.7827 37.3013 23.4333 36.392 22.436C35.512 21.4387 34.2067 20.94 32.476 20.94Z" fill="#8391A9"/>
<path d="M34.6368 78.8034C34.2954 77.8537 34.0677 76.3384 33.7987 75.1006C35.4543 76.8933 37.6688 77.939 40.1419 77.9284H40.2247C42.584 77.907 44.7984 76.968 46.4541 75.3034C48.1097 73.6174 49.0204 71.3979 48.9997 69.0503C48.9686 65.0488 46.3816 62.9573 43.1221 60.3003C42.5012 59.7881 41.8389 59.2546 41.1767 58.6997C36.3339 54.5595 32.5052 48.9893 32.4948 49C32.4948 49 28.6558 54.5595 23.8233 58.7104C23.1507 59.2759 22.5092 59.8095 21.8779 60.311C18.6184 62.968 16.0314 65.0595 16.0003 69.061C15.9797 71.4085 16.8799 73.6387 18.5459 75.314C20.2119 76.9893 22.416 77.9177 24.7753 77.939H24.8581C27.3416 77.939 29.5457 76.904 31.2013 75.1113C30.922 76.3598 30.6943 77.875 30.3632 78.814C29.0697 82.4527 26.9173 83.9893 27.0519 84H37.9378C38.093 83.968 35.9407 82.4314 34.6368 78.8034Z" fill="#8391A9"/>
</svg>
